<?xml version="1.0" encoding="UTF-8"?>
<svg width="55px" height="49px" viewBox="0 0 55 49" version="1.1" xmlns="http://www.w3.org/2000/svg" xmlns:xlink="http://www.w3.org/1999/xlink">
    <title>Group 7</title>
    <defs>
        <polygon id="path-1" points="0.800320127 1.21467851 20.0356511 1.21467851 20.0356511 17.04 0.800320127 17.04"></polygon>
        <polygon id="path-3" points="0.000320126736 0.414678505 19.2356511 0.414678505 19.2356511 16.24 0.000320126736 16.24"></polygon>
        <polygon id="path-5" points="0.139380808 0.366449807 19.3747118 0.366449807 19.3747118 16.1917713 0.139380808 16.1917713"></polygon>
    </defs>
    <g id="Page-1" stroke="none" stroke-width="1" fill="none" fill-rule="evenodd">
        <g id="semestre-francia---1920" transform="translate(-581.000000, -3424.000000)">
            <g id="block-aliados" transform="translate(463.000000, 3424.000000)">
                <g id="Group-7" transform="translate(145.500000, 24.500000) rotate(-96.000000) translate(-145.500000, -24.500000) translate(124.000000, 0.000000)">
                    <g id="Group-6" transform="translate(14.000000, 8.960000)">
                        <path d="M19.672184,6.51168 C19.552904,6.57328 19.433064,6.63544 19.314344,6.69816 C14.613704,9.1364 10.213224,12.15088 6.243384,15.65424" id="Fill-1" fill="#003093" transform="translate(12.957784, 11.082960) rotate(4.000000) translate(-12.957784, -11.082960) "></path>
                        <g id="Group-5" transform="translate(12.500000, 11.645488) rotate(-12.000000) translate(-12.500000, -11.645488) translate(2.000000, 2.145488)">
                            <mask id="mask-2" fill="white">
                                <use xlink:href="#path-1"></use>
                            </mask>
                            <g id="Clip-4" transform="translate(10.417986, 9.127339) rotate(-6.000000) translate(-10.417986, -9.127339) "></g>
                            <path d="M7.54640703,1.455103 C6.84614629,1.36137382 6.28853971,1.28050516 5.60060428,1.5019676 C4.88208381,1.73280295 4.23683051,2.09202549 3.60641324,2.48677793 C2.49599325,3.18211767 1.52252126,4.340218 0.946198453,5.48916339 C0.422372376,6.53326288 1.38169307,7.82955926 2.62358314,7.45355266 C4.80014326,6.79461472 7.50646387,5.56610851 8.49317417,3.50711816 C8.85174966,2.75881053 8.56005044,1.59111931 7.54640703,1.455103" id="Fill-3" fill="#003093" mask="url(#mask-2)"></path>
                        </g>
                    </g>
                    <g id="Group-6-Copy-2" transform="translate(13.759544, 13.641362) rotate(-53.000000) translate(-13.759544, -13.641362) translate(3.759544, 4.641362)">
                        <path d="M16.872184,3.71168 C16.752904,3.77328 16.633064,3.83544 16.514344,3.89816 C11.813704,6.3364 7.413224,9.35088 3.443384,12.85424" id="Fill-1" fill="#003093"></path>
                        <g id="Group-5" transform="translate(0.000000, 0.145488)">
                            <mask id="mask-4" fill="white">
                                <use xlink:href="#path-3"></use>
                            </mask>
                            <g id="Clip-4"></g>
                            <path d="M6.74640703,0.655103005 C6.04614629,0.561373823 5.48853971,0.480505157 4.80060428,0.701967596 C4.08208381,0.932802953 3.43683051,1.29202549 2.80641324,1.68677793 C1.69599325,2.38211767 0.722521262,3.540218 0.146198453,4.68916339 C-0.377627624,5.73326288 0.581693075,7.02955926 1.82358314,6.65355266 C4.00014326,5.99461472 6.70646387,4.76610851 7.69317417,2.70711816 C8.05174966,1.95881053 7.76005044,0.791119306 6.74640703,0.655103005" id="Fill-3" fill="#003093" mask="url(#mask-4)"></path>
                        </g>
                    </g>
                    <g id="Group-6-Copy" transform="translate(27.966562, 34.099509) rotate(47.000000) translate(-27.966562, -34.099509) translate(17.466562, 23.599509)">
                        <path d="M17.232184,11.19168 C17.112904,11.25328 16.993064,11.31544 16.874344,11.37816 C12.173704,13.8164 7.773224,16.83088 3.803384,20.33424" id="Fill-1" fill="#003093"></path>
                        <g id="Group-5" transform="translate(0.018838, 0.521252)">
                            <mask id="mask-6" fill="white">
                                <use xlink:href="#path-5"></use>
                            </mask>
                            <g id="Clip-4"></g>
                            <path d="M8.71109819,5.64524158 C8.01083745,5.55151239 7.45323086,5.47064373 6.76529544,5.69210617 C6.04677496,5.92294152 5.40152166,6.28216406 4.7711044,6.6769165 C3.66068441,7.37225624 2.68721242,8.53035658 2.11088961,9.67930196 C1.58706353,10.7234015 2.54638423,12.0196978 3.78827429,11.6436912 C5.96483441,10.9847533 8.67115503,9.75624708 9.65786532,7.69725673 C10.0164408,6.9489491 9.72474159,5.78125788 8.71109819,5.64524158" id="Fill-3" fill="#003093" mask="url(#mask-6)"></path>
                        </g>
                    </g>
                </g>
            </g>
        </g>
    </g>
</svg>