<?xml version="1.0" encoding="UTF-8"?>
<svg width="12px" height="17px" viewBox="0 0 12 17" version="1.1" xmlns="http://www.w3.org/2000/svg" xmlns:xlink="http://www.w3.org/1999/xlink">
    <title>Group</title>
    <g id="Page-1" stroke="none" stroke-width="1" fill="none" fill-rule="evenodd">
        <g id="semestre-francia---1920" transform="translate(-1092.000000, -772.000000)" fill="#FFFFFF">
            <g id="Group" transform="translate(1092.000000, 772.000000)">
                <path d="M8.8197984,16.5480171 C8.6148846,16.5480171 8.4185892,16.4449365 8.2361286,16.2414969 C7.8976296,15.8663697 7.574553,15.0286839 7.219611,13.6054005 C6.9449562,12.3714951 6.7894848,10.9033053 6.7561452,9.23768605 C6.7222386,7.63352965 6.7051152,6.17917465 6.7051152,4.91567185 L6.7051152,3.49329565 C6.7051152,2.36462545 6.9078744,1.51628005 7.3078362,0.972073455 C7.7152824,0.414825855 8.2461078,0.0937904545 8.8855704,0.0179258545 C9.515961,-0.0551037455 10.1006514,0.0963986545 10.6179822,0.464721855 C11.134179,0.835313055 11.4713172,1.32281965 11.6203248,1.91431405 L11.6241804,1.93268485 C11.6934678,2.35271845 11.7116118,3.05137585 11.6780454,4.00949245 C11.6423244,4.98110365 11.5734906,6.06146545 11.4739254,7.22086705 C11.3724324,8.40635065 11.2178682,9.60907105 11.0146554,10.7952351 C10.812123,11.9758425 10.588725,13.0580187 10.3508118,14.0118261 C10.1029194,15.0005607 9.824409,15.6916203 9.4994046,16.1245815 C9.2887074,16.4054733 9.0599796,16.5480171 8.8197984,16.5480171" id="Path"></path>
                <path d="M2.20563,16.5480171 C2.0079738,16.5480171 1.8150804,16.4449365 1.6325064,16.2416103 C1.293894,15.8653491 0.9711576,15.0276633 0.6166692,13.6054005 C0.3415608,12.3721755 0.1687392,10.9053465 0.1019466,9.24222205 C0.0342468,7.59712825 -2.66453526e-15,6.14141245 -2.66453526e-15,4.91567185 L-2.66453526e-15,3.49329565 C-2.66453526e-15,2.36258425 0.2219238,1.51174405 0.6596478,0.964815855 C1.1014542,0.411650655 1.6475886,0.0932234545 2.2825152,0.0179258545 C2.9125656,-0.0553305455 3.4975962,0.0963986545 4.0148136,0.464721855 C4.5333918,0.837014055 4.837077,1.32622165 4.9177044,1.91941705 C5.0572998,2.35544005 5.1085566,3.03946885 5.07465,4.00949245 C5.0390424,4.97055745 4.9530852,6.05296045 4.8193866,7.22710405 C4.6830798,8.40963925 4.5290826,9.60805045 4.3615908,10.7888847 C4.1911506,11.9766363 3.966732,13.0633485 3.6947988,14.0190837 C3.4187832,14.9836641 3.1356234,15.6883317 2.853144,16.1139219 C2.6604774,16.4019579 2.4427494,16.5480171 2.20563,16.5480171" id="Path"></path>
            </g>
        </g>
    </g>
</svg>