<?xml version="1.0" encoding="UTF-8"?>
<svg width="78px" height="240px" viewBox="0 0 78 240" version="1.1" xmlns="http://www.w3.org/2000/svg" xmlns:xlink="http://www.w3.org/1999/xlink">
    <title>Group 6</title>
    <g id="Page-1" stroke="none" stroke-width="1" fill="none" fill-rule="evenodd">
        <g id="semestre-francia---1920" transform="translate(-804.000000, -960.000000)" fill="#FFFFFF">
            <g id="block-context" transform="translate(395.000000, 960.000000)">
                <g id="Group-6" transform="translate(409.000000, 0.000000)">
                    <g id="Group-3">
                        <path d="M50.837,233.0471 C47.142,232.5411 43.119,230.9481 40.286,228.6551 C28.018,218.7211 31.304,200.7841 35.178,187.7421 C40.041,171.3761 46.629,154.9231 39.072,138.3651 C33.184,125.4701 17.669,117.3381 5.669,117.9501 C5.669,120.384838 5.669,122.210892 5.669,123.428261 C5.669,124.511114 5.669,126.135394 5.669,128.3011 C17.669,127.6211 30.211,121.9811 37.765,110.6531 C46.196,98.0141 46.506,82.2151 42.493,68.0261 C38.092,52.4781 27.517,35.0931 37.259,19.5111 C40.954,13.6031 47.555,10.5361 54.339,10.4241 C59.615,10.3361 66.851,12.5811 70.156,17.0001 C72.66,20.3511 78.065,18.4841 77.06,14.0851 C73.81,-0.1269 54.945,-2.3189 43.375,1.9471 C28.12,7.5721 21.376,23.8921 23.219,39.1671 C25.503,58.0931 38.453,74.7271 33.609,94.3191 C30.102,108.4961 19.668,117.4011 5.001,117.9501 C-1.65,118.1991 -1.684,128.5051 5,128.3011 C21.022,127.8121 31.56,142.2941 31.085,157.2791 C30.506,175.5341 20.155,191.8921 22.007,210.5211 C23.249,223.0281 30.03,234.3091 42.149,238.5061 C52.902,242.2291 64.61,237.8951 67.738,226.3941 C68.123,224.9821 66.325,224.4481 65.541,225.4681 C61.708,230.4471 57.397,233.9471 50.837,233.0471 Z" id="Fill-1"></path>
                    </g>
                    <polygon id="Path-2" points="5.68366712 128 5 118 11.9965801 118 18.1200532 118 22.2456599 121.508014 25 123 20.0985228 126.915712 9.66643882 128"></polygon>
                </g>
            </g>
        </g>
    </g>
</svg>