<?xml version="1.0" encoding="UTF-8"?>
<svg width="87px" height="77px" viewBox="0 0 87 77" version="1.1" xmlns="http://www.w3.org/2000/svg" xmlns:xlink="http://www.w3.org/1999/xlink">
    <title>rooster</title>
    <defs>
        <polygon id="path-1" points="0.800320127 1.21467851 20.0356511 1.21467851 20.0356511 17.04 0.800320127 17.04"></polygon>
        <polygon id="path-3" points="0.000320126736 0.414678505 19.2356511 0.414678505 19.2356511 16.24 0.000320126736 16.24"></polygon>
        <polygon id="path-5" points="0.139380808 0.366449807 19.3747118 0.366449807 19.3747118 16.1917713 0.139380808 16.1917713"></polygon>
    </defs>
    <g id="Page-1" stroke="none" stroke-width="1" fill="none" fill-rule="evenodd">
        <g id="semestre-francia---1920" transform="translate(-285.000000, -3919.000000)">
            <g id="footer" transform="translate(259.000000, 3919.000000)">
                <g id="rooster" transform="translate(26.000000, 0.000000)">
                    <g id="Group-17" transform="translate(0.000000, 24.000000)">
                        <path d="M23.42583,35.1354 C31.12603,40.4131 35.97493,23.8987 35.97493,23.8987 C30.39773,43.9115 23.42583,35.1354 23.42583,35.1354 M34.22073,13.9198 L29.50613,13.9198 L27.64223,19.6151 C27.64223,19.6151 26.63243,21.9122 23.35473,21.9122 C20.07703,21.9122 18.90963,19.9367 18.90963,19.9367 C18.90963,19.9367 17.75393,18.4529 18.26033,14.4251 C18.68683,11.0312 18.64923,7.2626 16.86013,4.1768 C15.15603,1.2382 11.64543,-0.3157 8.28793,0.0538 C5.38373,0.3735 3.22953,2.0413 1.90843,4.58 C0.24143,7.783 -0.05957,11.6021 0.00883,15.1493 C0.00883,15.1493 0.80573,9.2829 6.16523,6.9651 C6.16523,6.9651 0.29863,13.1214 1.74723,21.6676 C1.74723,21.6676 3.77513,13.1214 8.55513,11.6728 C8.55513,11.6728 3.12333,16.0183 4.57183,25.7234 C4.57183,25.7234 5.22353,21.1607 9.13453,19.2052 C9.13453,19.2052 6.16523,24.9268 8.33783,30.0691 C8.33783,30.0691 9.13453,24.4922 11.01763,22.6091 C11.01763,22.6091 10.11233,28.0909 11.88673,32.2418 C11.88673,32.2418 12.32563,27.4665 14.12243,25.2302 C14.82943,34.0172 22.71213,37.4546 25.73333,38.4553 C25.92103,39.8627 26.55263,41.7106 28.55183,42.0072 C30.23763,42.2575 31.76213,40.5207 32.59653,39.325 C41.43163,38.8382 43.69493,31.6109 43.69493,31.6109 C46.47763,22.4948 34.22073,13.9198 34.22073,13.9198" id="Fill-1" fill="#EDEDED"></path>
                        <path d="M28.34521,13.23765 C28.34491,13.23995 28.34671,13.23295 28.34751,13.23105 C28.59941,12.52265 28.10091,11.68485 27.55291,11.16915 C27.00341,10.65195 26.29351,10.34775 25.63171,9.98465 C24.97011,9.62145 24.31361,9.15495 24.01141,8.46315 C23.70921,7.77145 23.90861,6.81575 24.59921,6.51125 C25.39851,6.15865 26.44251,6.78305 27.15951,6.28395 C27.66941,5.92925 27.71601,5.20215 27.67811,4.58215 C27.64031,3.96205 27.59451,3.26135 28.01511,2.80415 C28.41031,2.37455 29.08641,2.33385 29.64871,2.49075 C30.21101,2.64795 30.71551,2.96465 31.26631,3.15875 C31.81681,3.35275 32.47391,3.40575 32.94641,3.06285 C33.35701,2.76495 33.53351,2.24175 33.87541,1.86725 C34.48441,1.20035 35.64871,1.09775 36.28391,1.78215 C36.71071,2.24215 36.67441,2.93445 36.55851,3.50645 C36.36141,4.47735 35.89591,5.41975 35.37271,6.25595 C35.37271,6.25595 28.99151,4.73195 28.34521,13.23765" id="Fill-3" fill="#003093"></path>
                        <path d="M35.37271,6.25591 C35.37271,6.25591 37.28801,3.86171 40.57161,3.45121 C40.57161,3.45121 37.01441,6.32451 36.33041,7.48731 L35.37271,6.25591 Z" id="Fill-5" fill="#003093"></path>
                        <path d="M36.56978,7.62407 C36.56978,7.62407 39.44288,7.35057 41.25578,8.37657 C41.25578,8.37657 38.07488,8.34247 36.05678,9.47127 L36.56978,7.62407 Z" id="Fill-7" fill="#003093"></path>
                        <path d="M33.76987,7.62983 C33.76987,7.85073 33.94887,8.02983 34.16977,8.02983 C34.39067,8.02983 34.56967,7.85073 34.56967,7.62983 C34.56967,7.40893 34.39067,7.22993 34.16977,7.22993 C33.94887,7.22993 33.76987,7.40893 33.76987,7.62983" id="Fill-9" fill="#EDEDED"></path>
                        <path d="M33.30894,7.62983 C33.30894,7.15433 33.69444,6.76903 34.16974,6.76903 C34.64524,6.76903 35.03074,7.15433 35.03074,7.62983 C35.03074,8.10523 34.64524,8.49063 34.16974,8.49063 C33.69444,8.49063 33.30894,8.10523 33.30894,7.62983 M30.96694,8.73773 C31.79664,10.43073 33.82154,10.39723 33.82154,10.39723 C31.13284,11.02803 30.96694,8.73773 30.96694,8.73773 M29.76624,19.90303 C30.40374,19.77653 31.05284,19.69513 31.69504,19.64473 C32.96544,19.54453 34.24734,19.59053 35.50704,19.78233 C36.76474,19.97403 37.91484,20.48823 39.16464,20.67413 C39.89334,20.78253 40.79024,20.82693 41.50904,20.63493 C42.51234,20.36693 43.02454,19.27623 43.04874,18.39803 C42.24004,18.82573 41.52154,18.91643 40.75344,18.87573 C39.94954,18.83293 39.16194,18.58543 38.48504,18.14813 C37.76314,17.68153 37.02394,17.36923 36.39354,16.74293 C35.78834,16.14163 35.30214,15.42563 34.93644,14.65643 C34.33634,13.39353 34.29154,11.98763 35.31454,10.96493 C37.93784,8.34243 36.59784,6.84303 36.59784,6.84303 C35.24384,4.88723 32.19164,6.42693 32.19164,6.42693 C27.69724,8.25523 28.24394,14.04743 28.24404,14.04913 C28.34274,15.11503 28.49964,16.34373 28.10674,17.36783 C27.56974,18.76713 26.23874,18.88643 24.93994,18.41673 C24.93994,18.41673 25.46074,19.64693 26.36864,20.07653 C27.21464,20.47673 27.94104,20.37883 28.80244,20.13383 C29.11914,20.04373 29.44104,19.96753 29.76624,19.90303" id="Fill-11" fill="#EDEDED"></path>
                        <path d="M41.07349,16.88394 C40.87729,16.88774 40.68869,16.76874 40.59209,16.60024 C40.44169,16.33874 40.63719,16.12034 40.64229,15.85774 C40.64499,15.71524 40.60999,15.57264 40.56189,15.43944 C40.35739,14.87484 39.89369,14.41064 39.45449,14.02174 C39.17239,13.77234 38.87329,13.54244 38.56659,13.32474 C38.76929,13.46854 39.06249,13.54664 39.28489,13.66024 C39.78149,13.91414 40.26709,14.20094 40.70429,14.54844 C41.07429,14.84274 41.45359,15.20244 41.62199,15.65584 C41.78529,16.09534 41.67529,16.87274 41.07349,16.88394 M41.82359,15.02354 C41.25139,14.02654 40.04189,13.35114 38.97459,13.00154 C35.88629,11.98974 36.36899,9.67164 36.36899,9.67164 C31.68709,11.93254 33.96889,16.08894 33.96939,16.09004 C35.24679,18.41664 38.16519,20.26714 40.66819,18.49234 C41.71959,17.74714 42.53539,16.26394 41.82359,15.02354" id="Fill-13" fill="#003093"></path>
                        <path d="M27.83936,48.96206 C27.91176,48.01036 28.23806,43.07666 27.39486,41.06596 L29.48106,41.42566 C29.48106,41.42566 28.59286,43.13706 28.88166,48.68906 C29.67436,48.40906 31.62296,47.83386 32.25986,48.68306 C32.25986,48.68306 30.87036,48.50386 29.79476,49.17616 C29.79476,49.17616 33.51486,48.90726 33.51486,50.34136 C33.51486,50.34136 31.63246,49.71416 29.66026,49.93826 C29.66026,49.93826 32.72346,51.24366 31.99096,52.44786 C31.99096,52.44786 31.58766,51.50696 28.89826,50.43086 C26.20916,49.35556 26.20916,50.65526 26.20916,50.65526 C26.20916,50.65526 25.45416,49.55706 27.83936,48.96206" id="Fill-15" fill="#EDEDED"></path>
                    </g>
                    <g id="Group-7" transform="translate(57.500000, 30.500000) rotate(20.000000) translate(-57.500000, -30.500000) translate(36.000000, 6.000000)">
                        <g id="Group-6" transform="translate(14.000000, 8.960000)">
                            <path d="M19.672184,6.51168 C19.552904,6.57328 19.433064,6.63544 19.314344,6.69816 C14.613704,9.1364 10.213224,12.15088 6.243384,15.65424" id="Fill-1" fill="#003093" transform="translate(12.957784, 11.082960) rotate(4.000000) translate(-12.957784, -11.082960) "></path>
                            <g id="Group-5" transform="translate(12.500000, 11.645488) rotate(-12.000000) translate(-12.500000, -11.645488) translate(2.000000, 2.145488)">
                                <mask id="mask-2" fill="white">
                                    <use xlink:href="#path-1"></use>
                                </mask>
                                <g id="Clip-4" transform="translate(10.417986, 9.127339) rotate(-6.000000) translate(-10.417986, -9.127339) "></g>
                                <path d="M7.54640703,1.455103 C6.84614629,1.36137382 6.28853971,1.28050516 5.60060428,1.5019676 C4.88208381,1.73280295 4.23683051,2.09202549 3.60641324,2.48677793 C2.49599325,3.18211767 1.52252126,4.340218 0.946198453,5.48916339 C0.422372376,6.53326288 1.38169307,7.82955926 2.62358314,7.45355266 C4.80014326,6.79461472 7.50646387,5.56610851 8.49317417,3.50711816 C8.85174966,2.75881053 8.56005044,1.59111931 7.54640703,1.455103" id="Fill-3" fill="#003093" mask="url(#mask-2)"></path>
                            </g>
                        </g>
                        <g id="Group-6-Copy-2" transform="translate(13.759544, 13.641362) rotate(-53.000000) translate(-13.759544, -13.641362) translate(3.759544, 4.641362)">
                            <path d="M16.872184,3.71168 C16.752904,3.77328 16.633064,3.83544 16.514344,3.89816 C11.813704,6.3364 7.413224,9.35088 3.443384,12.85424" id="Fill-1" fill="#003093"></path>
                            <g id="Group-5" transform="translate(0.000000, 0.145488)">
                                <mask id="mask-4" fill="white">
                                    <use xlink:href="#path-3"></use>
                                </mask>
                                <g id="Clip-4"></g>
                                <path d="M6.74640703,0.655103005 C6.04614629,0.561373823 5.48853971,0.480505157 4.80060428,0.701967596 C4.08208381,0.932802953 3.43683051,1.29202549 2.80641324,1.68677793 C1.69599325,2.38211767 0.722521262,3.540218 0.146198453,4.68916339 C-0.377627624,5.73326288 0.581693075,7.02955926 1.82358314,6.65355266 C4.00014326,5.99461472 6.70646387,4.76610851 7.69317417,2.70711816 C8.05174966,1.95881053 7.76005044,0.791119306 6.74640703,0.655103005" id="Fill-3" fill="#003093" mask="url(#mask-4)"></path>
                            </g>
                        </g>
                        <g id="Group-6-Copy" transform="translate(27.966562, 34.099509) rotate(47.000000) translate(-27.966562, -34.099509) translate(17.466562, 23.599509)">
                            <path d="M17.232184,11.19168 C17.112904,11.25328 16.993064,11.31544 16.874344,11.37816 C12.173704,13.8164 7.773224,16.83088 3.803384,20.33424" id="Fill-1" fill="#003093"></path>
                            <g id="Group-5" transform="translate(0.018838, 0.521252)">
                                <mask id="mask-6" fill="white">
                                    <use xlink:href="#path-5"></use>
                                </mask>
                                <g id="Clip-4"></g>
                                <path d="M8.71109819,5.64524158 C8.01083745,5.55151239 7.45323086,5.47064373 6.76529544,5.69210617 C6.04677496,5.92294152 5.40152166,6.28216406 4.7711044,6.6769165 C3.66068441,7.37225624 2.68721242,8.53035658 2.11088961,9.67930196 C1.58706353,10.7234015 2.54638423,12.0196978 3.78827429,11.6436912 C5.96483441,10.9847533 8.67115503,9.75624708 9.65786532,7.69725673 C10.0164408,6.9489491 9.72474159,5.78125788 8.71109819,5.64524158" id="Fill-3" fill="#003093" mask="url(#mask-6)"></path>
                            </g>
                        </g>
                    </g>
                </g>
            </g>
        </g>
    </g>
</svg>