<?xml version="1.0" encoding="UTF-8"?>
<svg width="281px" height="206px" viewBox="0 0 281 206" version="1.1" xmlns="http://www.w3.org/2000/svg" xmlns:xlink="http://www.w3.org/1999/xlink">
    <title>Group 161</title>
    <defs>
        <polygon id="path-1" points="0.269550011 0.283320011 0.543300022 0.283320011 0.543300022 2.16342009 0.269550011 2.16342009"></polygon>
        <polygon id="path-3" points="0.122100005 0.231000009 0.422100017 0.231000009 0.422100017 0.464190018 0.122100005 0.464190018"></polygon>
        <polygon id="path-5" points="0.0428100017 0.231000009 3.67461015 0.231000009 3.67461015 0.415652021 0.0428100017 0.415652021"></polygon>
        <polygon id="path-7" points="0 0.156524515 132.317938 0.156524515 132.317938 126.250863 0 126.250863"></polygon>
    </defs>
    <g id="Page-1" stroke="none" stroke-width="1" fill="none" fill-rule="evenodd">
        <g id="semestre-francia---1920" transform="translate(-1009.000000, -4028.000000)">
            <g id="Group-161" transform="translate(1009.000000, 4028.000000)">
                <path d="M120.875375,1.59333006 C120.531575,1.65663007 119.352275,1.70493007 118.834475,1.85013007 C120.117275,1.83663007 121.731575,1.70763007 123.409175,1.47123006 C123.773675,1.47483006 123.425675,1.54443006 123.345575,1.57863006 C124.489475,1.40193006 125.810975,1.19223005 125.053175,1.09953004 C123.923075,1.32273005 123.642275,1.29633005 122.428775,1.57053006 C121.450775,1.67013007 120.715475,1.66353007 120.875375,1.59333006" id="Fill-1" fill="#F5001F"></path>
                <path d="M136.548185,0.463350018 C136.214585,0.480750019 135.938285,0.50385002 135.685685,0.529650021 C135.958685,0.516150021 136.223585,0.50325002 136.495985,0.489150019 C136.511285,0.480750019 136.522685,0.472650019 136.548185,0.463350018" id="Fill-3" fill="#F5001F"></path>
                <path d="M93.8528137,6.69477027 C93.8420137,6.70917027 93.8657137,6.70677027 93.8645137,6.71547027 C93.9686137,6.65907026 93.9995137,6.63747026 93.8528137,6.69477027" id="Fill-5" fill="#F5001F"></path>
                <path d="M137.069375,0.465390018 C137.341175,0.456690018 137.618375,0.448590018 137.894975,0.439590017 C137.519075,0.446790018 137.266175,0.454290018 137.069375,0.465390018" id="Fill-7" fill="#F5001F"></path>
                <path d="M69.9924028,50.407172 C70.0341028,50.027372 70.0779028,49.791872 70.1199028,49.607972 C70.0239028,49.874972 70.0230028,47.3273719 69.9924028,50.407172" id="Fill-9" fill="#F5001F"></path>
                <path d="M136.558145,0.537150021 C136.659545,0.49995002 136.805345,0.479850019 137.069345,0.465450018 C136.871345,0.473850019 136.682045,0.481950019 136.495745,0.489150019 C136.446845,0.50985002 136.436045,0.529350021 136.558145,0.537150021" id="Fill-11" fill="#F5001F"></path>
                <path d="M278.604341,126.748115 C278.596241,126.710015 278.586041,126.659315 278.576741,126.617615 C278.611541,126.812915 278.642441,127.001615 278.664941,127.177115 C278.664941,127.177115 278.640041,127.005515 278.604341,126.748115" id="Fill-13" fill="#F5001F"></path>
                <path d="M278.576801,126.617735 C278.459501,125.958635 278.286101,125.206835 278.136401,124.458335 C278.136401,124.458335 278.275301,125.136635 278.414201,125.815535 C278.472701,126.103235 278.528801,126.381935 278.576801,126.617735" id="Fill-15" fill="#F5001F"></path>
                <path d="M100.844944,159.829836 C101.071144,159.922836 101.285344,159.991236 101.444644,160.035336 L100.844944,159.829836 Z" id="Fill-17" fill="#F5001F"></path>
                <g id="Group-21" transform="translate(279.300011, 135.069005)">
                    <mask id="mask-2" fill="white">
                        <use xlink:href="#path-1"></use>
                    </mask>
                    <g id="Clip-20"></g>
                    <path d="M0.337050013,1.87002007 C0.352350014,1.69392007 0.543150022,1.45842006 0.543150022,1.22442005 L0.543150022,0.283320011 C0.543150022,0.778020031 0.324150013,1.30182005 0.295950012,1.84212007 C0.303450012,1.95672008 0.306750012,2.08782008 0.319950013,2.16342009 C0.319950013,2.16342009 0.327150013,2.04642008 0.337050013,1.87002007" id="Fill-19" fill="#F5001F" mask="url(#mask-2)"></path>
                </g>
                <path d="M152.474406,0.778560031 C151.792206,0.76296003 151.110006,0.74616003 150.428106,0.735960029 C150.587706,0.707760028 150.957606,0.679560027 151.780806,0.651960026 L152.474406,0.778560031 Z M138.789306,0.792960032 C137.961305,0.813960032 137.133605,0.838560033 136.305605,0.866760034 L138.303005,0.683160027 C138.637206,0.703260028 138.904206,0.74736003 138.789306,0.792960032 L138.789306,0.792960032 Z M203.168408,4.40106017 C203.223608,4.44066018 203.274308,4.48836018 203.219108,4.51896018 C202.647308,4.44396018 202.081508,4.37076017 201.524708,4.30146017 C201.664208,4.27476017 202.119008,4.29456017 203.168408,4.40106017 L203.168408,4.40106017 Z M70.9266028,92.7141637 L70.9239028,92.7141637 C70.9653028,92.1141637 71.0007028,91.7469636 71.0238028,91.4625636 C71.0028028,91.7232636 70.9749028,92.1141637 70.9266028,92.7141637 L70.9266028,92.7141637 Z M70.6860028,95.8482638 C70.6863028,95.5674638 70.5315028,96.7638638 70.4085028,97.5198639 C70.4769028,96.8994639 70.5627028,96.1290638 70.6533028,95.3133638 C70.7172028,95.1393638 70.7427028,95.3379638 70.6860028,95.8482638 L70.6860028,95.8482638 Z M149.788206,0.433860017 C146.406006,0.475260019 145.492806,0.609660024 142.816506,0.719460029 C142.409706,0.722460029 142.003206,0.733860029 141.596406,0.738960029 C141.039006,0.679560027 142.796706,0.574860023 142.796706,0.574860023 C140.894106,0.541260022 139.461606,0.564360022 137.671805,0.678660027 C138.033605,0.628260025 137.658605,0.605760024 137.110805,0.572160023 C135.672305,0.628260025 136.154105,0.75606003 134.256605,0.772560031 C134.579105,0.708660028 134.993405,0.608760024 135.685505,0.529560021 C133.991705,0.649860026 132.322205,0.783060031 130.571105,0.931860037 C130.102805,0.881760035 131.622905,0.74736003 132.239405,0.672360027 C130.269905,0.805560032 127.136405,1.02696004 126.538205,1.20516005 L127.490105,1.17246005 C127.249205,1.16136005 127.539905,1.06716004 127.954805,1.02096004 C129.637505,0.824160033 130.392605,0.926760037 130.490405,0.965160038 L129.244205,1.06476004 C130.540205,1.25016005 134.253605,0.75096003 136.770605,0.694860028 L135.923405,0.877560035 C129.524705,1.10316004 123.135905,1.54206006 116.770805,2.20236009 C116.686505,2.21106009 116.601305,2.22156009 116.516405,2.22936009 C116.634905,2.14656009 116.809205,2.05626008 116.834405,1.98486008 C116.997305,1.98186008 117.237305,1.96536008 117.574205,1.92786008 L118.253405,1.66656007 L116.738105,1.81416007 L116.733305,1.81416007 C116.488505,1.81416007 115.752905,1.79136007 113.954705,1.92486008 C113.954705,1.92486008 113.268305,2.06496008 112.580404,2.18376009 C111.891904,2.29806009 111.206704,2.4480601 111.206704,2.4480601 L110.302204,2.4765601 C110.302204,2.4765601 110.883004,2.3943601 111.464104,2.30976009 C112.046404,2.23026009 112.627804,2.15076009 112.627804,2.15076009 C111.294304,2.22366009 110.468704,2.4387601 109.543804,2.6370601 C109.312804,2.6184601 108.919504,2.64456011 108.369304,2.71296011 C108.369304,2.71296011 107.699104,2.86596011 107.034904,3.04926012 C106.371904,3.22866013 105.708304,3.40866014 105.708304,3.40866014 C105.364504,3.38916013 106.884904,3.01146012 105.065404,3.31356013 C103.829404,3.68676015 106.306804,3.23286013 104.244304,3.75606015 C102.919804,3.95436016 103.274104,3.76746015 101.774104,4.24416017 C101.546404,4.24416017 101.860504,4.12716016 102.459004,3.94776016 C101.790004,4.16196017 100.888804,4.37646017 100.086604,4.63176018 C99.2826039,4.88496019 98.5620039,5.1174602 98.2347039,5.27946021 C97.5597039,5.46006022 96.4302038,5.81676023 95.5104038,6.18726025 C94.5879038,6.55146026 93.8397037,6.83616027 93.8646037,6.71556027 C93.4818037,6.95106028 91.6617036,7.85826031 90.5463036,8.50626034 C91.5372036,7.85826031 90.4485036,8.38266033 89.2104035,9.09636036 C88.5972035,9.46416038 87.9369035,9.85926039 87.4638035,10.1433604 C87.0009035,10.4439604 86.7078034,10.6074604 86.7987034,10.4634604 C86.4753034,10.7694604 85.9734034,11.1261604 85.4181034,11.5944605 C84.8757034,12.0759605 84.2097033,12.5811605 83.5668033,13.1766605 C82.2759033,14.3628606 80.9334032,15.7449606 80.0160032,16.9971607 C80.1105032,16.8516607 80.2965032,16.5633607 80.4768032,16.3563606 C79.3734032,17.7090607 78.9792031,18.0474607 78.3165031,18.9576608 C78.3378031,19.1097608 77.9265031,19.7217608 77.5068031,20.5068608 C77.0880031,21.2925608 76.559703,22.1892609 76.288803,22.8714609 C75.135603,24.670261 76.707003,21.6261609 76.247703,22.1328609 C76.337703,22.1217609 75.932703,22.9611609 75.564003,23.7282609 C75.198603,24.496861 74.934003,25.223461 75.132003,24.916261 C74.348403,26.351161 74.492703,26.167561 74.0445029,26.8920611 C74.1549029,27.2442611 73.4928029,28.3107611 73.2129029,29.6445612 C72.7716029,30.7386612 72.6963029,30.8751612 72.6141029,31.0383612 C72.5346029,31.2030612 72.4680029,31.4037612 72.1398029,32.6577613 C71.9526029,33.2457613 71.9754029,32.9751613 72.0618029,32.5605613 C72.1599029,32.1474613 72.2937029,31.5858613 72.2937029,31.5858613 C71.9133029,32.8542613 71.8962029,33.1701613 71.9361029,33.2316613 C71.9769029,33.2940613 72.0927029,33.1074613 72.0738029,33.3918613 C71.7213028,34.9221614 71.6103028,35.2692614 71.5473028,35.3622614 C71.4798028,35.4537614 71.4450028,35.2881614 71.2965028,35.8050614 C71.1180028,36.7722615 71.0007028,37.6338615 70.9269028,38.4369615 C70.8372028,39.2373616 70.7550028,39.9741616 70.6743028,40.6995616 C70.6317028,40.8039616 70.5864028,41.0853616 70.5927028,40.7505616 C70.5183028,41.7852617 70.3653028,43.3140617 70.2582028,44.8887618 C70.1475028,46.4631618 70.1076028,48.0846619 70.1682028,49.289462 C70.1502028,49.468262 70.1352028,49.557662 70.1214028,49.602062 C70.2120028,49.213862 70.3008028,49.156262 70.3623028,49.236662 C70.3428028,50.409662 70.4586028,51.410762 70.3455028,51.8526621 C70.3476028,51.134162 70.3026028,51.074462 70.2666028,50.738462 L70.3188028,51.9669621 C70.1655028,53.0748621 70.2531028,50.289962 70.1406028,50.289362 C70.1742028,52.6902621 70.3989028,55.4757622 70.4409028,57.3081623 C70.2885028,57.6996623 70.2234028,53.0214621 70.1718028,55.4757622 C70.1718028,55.4757622 70.1646028,54.7641622 70.1589028,54.0531621 C70.1598028,53.3427621 70.1607028,52.6314621 70.1607028,52.6314621 C69.9435028,54.8100622 70.1520028,50.901662 69.9153028,52.9044621 C69.9555028,56.6526623 70.1199028,57.0906623 70.2834028,60.8148624 C70.4244028,61.6470624 70.3947028,60.5304624 70.5372028,61.3614624 C71.0412028,66.6309626 70.4283028,65.5455626 70.8957028,69.4062628 C71.0634028,70.4022628 71.2998028,70.7799628 71.3415028,73.5444629 L71.1135028,72.6141629 C71.2017028,74.410563 71.2785028,74.919063 71.3484028,75.452763 C71.4165028,75.985263 71.4801028,76.540263 71.4417028,78.4263631 C71.3718028,77.7564631 71.3274028,75.600063 71.3196028,76.145463 C71.2320028,78.5856631 71.4600028,77.8692631 71.4681028,79.7463632 L71.3103028,80.1345632 C71.3235028,83.9604633 71.2350028,88.1850635 70.8834028,92.4195637 C70.8573028,92.1819637 70.8732028,91.4526636 70.7367028,92.4378637 C70.5465028,95.1066638 70.1919028,97.9467639 69.8703028,100.775464 C69.5454028,103.603264 69.2358028,106.414264 69.0282027,109.010164 L69.0666027,111.004564 C69.0432027,111.465964 68.9643027,111.859564 68.9613027,111.357664 C68.8434027,113.386865 69.0384027,111.465964 69.0678027,112.442164 C69.0540027,113.596565 68.9589027,113.967365 68.9319027,113.233564 C68.9361027,115.026665 69.0468027,117.582965 69.2712028,120.151565 C69.4803028,122.724665 69.9408028,125.290865 70.2618028,127.161065 L70.0770028,126.445565 C70.6659028,129.349565 71.1201028,129.614765 71.8641029,132.243365 L71.6763028,131.754965 C72.7017029,134.791865 74.273103,137.808365 76.006203,140.465166 C77.7375031,143.130666 79.6185032,145.468266 81.2682032,147.276666 C81.6411032,147.564366 82.7718033,148.672266 83.8875033,149.707566 C84.4629034,150.203166 85.0284034,150.687066 85.4796034,151.050066 C85.9383034,151.405566 86.2977034,151.619466 86.4183034,151.631166 C87.8160035,152.806866 88.3512035,153.182166 89.0163035,153.695766 C89.3496036,153.952266 89.7237036,154.233666 90.2994036,154.600866 C90.8754036,154.968966 91.6143036,155.490966 92.7408037,156.119466 C93.9318037,156.813666 94.6272038,156.939666 96.1554038,157.672266 L96.1308038,157.819566 C96.1308038,157.819566 96.2637038,157.877466 96.4674038,157.952166 C96.6702038,158.027166 96.9405039,158.129466 97.2120039,158.230566 C97.7517039,158.433066 98.2926039,158.634066 98.2926039,158.634066 C98.2926039,158.634066 98.5509039,158.805966 98.8200039,158.956566 C99.0876039,159.110466 99.3552039,159.266166 99.3552039,159.266166 L100.845004,159.829866 C100.260304,159.584166 99.619504,159.263766 99.725104,159.261666 C100.882804,159.710466 102.292804,160.256466 103.422304,160.694166 C104.559004,161.111166 105.404404,161.449566 105.422404,161.495166 C105.422404,161.495166 105.774004,161.606166 106.306804,161.744766 C106.839304,161.889666 107.548504,162.081666 108.257404,162.272466 C108.971404,162.443466 109.684504,162.615366 110.220004,162.743766 C110.754304,162.876666 111.114304,162.948666 111.114304,162.948666 C111.021004,162.972066 110.570404,162.877266 110.056504,162.764766 C111.823804,163.168866 110.073604,162.948666 112.593904,163.428666 C112.225804,163.309266 112.815304,163.392066 112.884904,163.378266 C113.571905,163.585867 114.717605,163.835467 115.984505,164.101567 C117.256205,164.342467 118.649405,164.594767 119.843105,164.756467 L119.370305,164.781367 C123.662705,165.519367 128.462105,165.990967 133.320605,166.359667 C131.581505,166.173067 131.997005,166.035967 133.421405,166.132267 L133.978805,166.327267 C134.905205,166.299667 132.495905,166.162567 134.391305,166.184467 C136.204505,166.323667 135.600305,166.437967 134.553605,166.415767 L136.765205,166.510867 C136.891505,166.563367 136.372205,166.557967 136.233905,166.605067 C137.144405,166.571767 140.039106,166.976167 141.354906,166.870567 L141.477006,166.921267 C146.340006,167.125567 148.545606,167.132467 152.508006,167.220367 C152.587206,167.091967 154.136106,167.150167 155.318106,167.066767 C158.226306,167.154967 161.456406,167.289967 164.964607,167.278452 C167.429407,167.204467 165.684307,167.164867 166.792507,167.082967 C166.973707,167.206567 170.476507,167.164867 168.660307,167.265667 C172.869907,167.206567 174.037807,167.187667 179.356507,166.959067 C178.777507,166.924567 178.127707,166.919767 178.463707,166.871167 C179.428507,166.827067 180.660907,166.863067 180.525007,166.922467 L180.269707,166.942567 C186.234907,166.598767 194.067008,166.752067 198.806408,166.181467 L198.540308,166.211467 C198.540308,166.211467 199.770308,166.094467 200.999408,165.976267 C202.228508,165.846667 203.456408,165.717067 203.456408,165.717067 C205.722608,165.531367 202.106408,165.929167 203.788208,165.850567 C209.078108,165.168967 212.181008,165.002467 216.499209,164.124667 C218.201109,163.980967 221.184309,163.421766 224.247909,162.561366 C227.318409,161.722266 230.451309,160.587666 232.636809,159.828666 L232.359009,159.854766 C233.430009,159.319566 233.709009,159.342366 234.530709,159.020766 C234.388209,159.009366 233.305509,159.450366 233.971509,159.124266 C236.287209,158.094066 238.560909,156.937866 240.85351,155.778666 C243.14971,154.614966 245.46121,153.421866 247.74271,152.142966 C250.02271,150.863766 252.27751,149.498766 254.41861,147.959466 C256.55281,146.412666 258.56731,144.679866 260.33641,142.734366 C260.93761,142.045866 260.92531,142.017666 260.91361,142.022166 C260.91691,142.020366 260.92291,142.016166 260.93581,142.005666 C260.94181,142.007766 260.93281,141.999966 260.95291,142.008366 L261.02521,142.037166 C261.07231,142.054566 261.11761,142.072566 261.16201,142.089366 C261.24991,142.122366 261.33331,142.152666 261.41191,142.181766 C261.57211,142.237866 261.71791,142.287966 261.86311,142.353066 C262.43611,142.619766 263.20531,142.866966 264.935411,144.407466 C264.935411,144.407466 264.867311,144.362166 264.764711,144.292866 C264.658211,144.230766 264.516611,144.145866 264.375611,144.061266 C264.09511,143.892366 263.81311,143.724966 263.81311,143.724966 C266.815511,145.809966 269.310311,148.891566 270.396011,152.450166 C270.940211,154.222266 271.139711,156.084966 270.982811,157.905966 L270.961211,158.247666 C270.957611,158.419866 270.940211,158.607366 270.990911,158.788266 C271.064411,159.150966 271.272611,159.489066 271.534811,159.704166 C272.057411,160.143066 272.706311,160.301466 273.361511,160.170966 C273.687011,160.109166 274.020011,159.928266 274.261211,159.661566 C274.391111,159.534966 274.471511,159.368766 274.551011,159.223866 L274.685411,158.895066 C274.861211,158.456166 275.036411,158.019366 275.211911,157.584066 C275.070311,158.009766 275.107811,158.040366 274.821611,158.715066 C275.000711,158.361366 275.235311,157.846866 275.482511,157.271466 C275.733911,156.697866 275.998211,156.066666 276.180311,155.455566 C276.378311,154.851066 276.554111,154.290666 276.675311,153.877866 C276.796511,153.465666 276.864311,153.201666 276.843911,153.188166 C277.187411,152.072766 277.001111,152.952666 277.243511,152.275266 C277.483211,151.515966 277.735811,150.547266 277.924511,149.662566 C278.084111,148.771266 278.229011,147.973266 278.371211,147.570366 C278.418911,147.433866 278.314511,148.015266 278.261711,148.302366 C278.496311,147.289866 279.093911,143.544666 278.820311,144.508266 C279.098111,143.125266 279.135611,141.773766 279.255311,140.506866 C279.340511,139.235166 279.322211,138.032165 279.406211,136.911065 C279.340511,136.180265 279.302711,134.979065 279.286211,133.899365 C279.264611,132.822065 279.137111,131.872265 279.029411,131.649665 C279.294611,131.833265 278.696111,126.714065 278.098211,125.019965 C278.283011,125.588765 277.842611,123.492965 278.072711,124.155365 C277.977911,123.655565 277.845311,123.175265 277.714211,122.738165 C277.584011,122.302865 277.465811,121.906565 277.368311,121.583765 C277.165811,120.937865 277.030511,120.585365 277.025411,120.772265 C276.180911,117.095765 274.218011,113.811065 273.522911,111.813964 C273.195311,111.132064 272.771411,110.509264 272.396111,109.869964 C272.204411,109.552264 272.012411,109.236364 271.823411,108.921964 C271.733711,108.775264 271.602611,108.556864 271.614011,108.584464 C271.601111,108.563764 271.610711,108.538564 271.608011,108.518164 L271.619411,108.247564 C271.674911,106.804864 271.729211,105.384364 271.784411,103.983664 C271.873211,101.180764 271.926611,98.4546639 271.958411,95.7663638 C272.177711,95.9649638 271.816211,101.707864 272.032811,101.485264 C272.125811,96.3804638 271.996811,93.4371637 272.078711,88.3812635 C272.112611,87.0714635 272.165111,89.1240635 272.199911,89.5674636 C272.145611,84.4752634 272.206511,79.7193632 271.979411,75.191763 C271.876211,75.985263 271.631411,71.9358629 271.537211,71.4027628 C271.842311,72.6717629 271.434011,66.9060627 271.861811,69.2640628 C271.823411,68.6769627 271.747211,67.9413627 271.687811,68.0790627 C271.666811,67.2063627 271.692311,66.9276627 271.805411,67.8081627 C271.608911,64.6125626 271.557911,65.7549626 271.407011,62.8584625 C271.454411,62.8656625 271.505111,63.4497625 271.573811,63.7467625 C271.403111,62.2842625 271.227311,60.8169624 271.092311,58.3701623 C271.124111,58.4895623 271.141211,58.3239623 271.173311,58.6689623 C270.852911,54.6240622 270.383411,51.7185621 269.877011,47.2347619 C270.065111,47.8971619 270.031211,47.5053619 269.965511,46.9143619 C269.891111,46.3236618 269.782511,45.5346618 269.850311,45.3996618 C269.850311,45.3996618 269.745011,44.7855618 269.622611,44.1735618 C269.506811,43.5606617 269.379611,42.9492617 269.379611,42.9492617 C269.379611,42.9492617 269.404211,43.1997617 269.429711,43.4490617 C269.450711,43.6989617 269.472311,43.9494617 269.472311,43.9494617 C269.095811,41.7972617 268.570511,39.9357616 268.052411,38.1213615 C268.052411,38.1213615 268.206011,38.5014615 268.327811,38.8905615 C268.450511,39.2799616 268.575011,39.6687616 268.575011,39.6687616 C268.575011,39.6687616 268.319711,38.6736615 267.971711,37.6968615 C267.808211,37.2072615 267.588311,36.7290615 267.445211,36.3681614 C267.268811,36.0252614 267.150911,35.7969614 267.150911,35.7969614 C267.150911,35.7969614 267.212411,35.9283614 267.305711,36.1251614 C267.406211,36.3174614 267.508511,36.5937615 267.608111,36.8715615 C267.825911,37.4202615 267.977411,37.9818615 267.977411,37.9818615 C267.589511,36.9387615 267.511811,37.0311615 267.481511,37.0146615 C267.417011,37.0113615 267.427211,36.8778615 266.776511,35.5836614 C267.039611,36.1113614 265.855211,33.6072613 265.262711,32.6310613 L265.267511,32.6364613 C264.959111,32.1918613 264.647411,31.7424613 264.298511,31.2372612 C263.91661,30.7557612 263.50471,30.2145612 263.03791,29.5575612 C262.82971,29.1873612 263.39221,29.7093612 263.25691,29.4687612 C262.90621,29.0613612 262.04401,28.1145611 261.16051,27.1395611 C260.73451,26.6358611 260.23861,26.189161 259.81051,25.788661 C259.38031,25.389061 259.00171,25.052161 258.73441,24.846361 C259.08061,25.133161 259.16101,25.083661 259.06681,24.966361 C259.06681,24.966361 258.34801,24.424861 258.33691,24.438361 C257.59201,23.7564609 257.49031,23.6466609 257.66251,23.6979609 C256.50781,22.7043609 256.65721,22.9038609 256.75801,23.0493609 C256.80871,23.1222609 256.84711,23.1816609 256.70521,23.0724609 C256.55851,22.9683609 256.25401,22.6680609 255.53671,22.1223609 C255.76921,22.2840609 255.67171,22.1889609 256.15531,22.5285609 C253.32901,20.2449608 250.38331,18.5649607 247.49671,16.9245607 C247.10341,16.6188607 247.75081,16.9485607 248.38291,17.2734607 C248.99881,17.6265607 249.59731,17.9754607 249.14911,17.6256607 C244.96591,15.2349606 240.17041,13.3446605 235.824309,11.7456605 C235.824309,11.7456605 236.025909,11.8215605 236.228709,11.8974605 C236.431809,11.9715605 236.631309,12.0549605 236.631309,12.0549605 C235.942509,12.0738605 233.426409,10.7622604 231.144009,10.1895604 C231.695709,10.3455604 231.902709,10.2867604 231.746709,10.2660604 C228.729609,9.26736037 225.509409,8.43936034 220.809609,7.4349603 L221.403309,7.5114603 C219.597009,7.02096028 216.599409,6.42216026 214.620909,6.01206024 C214.020909,5.96346024 212.885408,5.75136023 213.558608,5.96556024 C207.490808,4.48386018 201.806108,4.29276017 196.351508,3.43206014 C197.008808,3.49836014 197.923508,3.53676014 197.400908,3.48306014 C197.400908,3.48306014 196.229408,3.37806013 195.057908,3.27396013 C193.884908,3.18006013 192.712508,3.08496012 192.712508,3.08496012 C193.073408,3.22326013 193.321208,3.20616013 194.297108,3.38166013 C193.697408,3.38586013 192.372908,3.31536013 191.212208,3.21936013 C193.324508,3.33156013 191.208608,3.04206012 190.302608,2.91096012 C190.452008,2.95596012 190.137308,2.96766012 190.211708,3.00666012 C187.778407,2.6220601 189.784808,3.18636013 186.452407,2.80686011 L186.633307,2.76336011 C185.380507,2.69556011 184.219207,2.73336011 182.869207,2.6397601 C182.315707,2.4864601 184.206907,2.65206011 184.299307,2.5539601 C182.399107,2.4630601 180.540607,2.5959601 178.828207,2.38296009 C179.636707,2.4039601 180.795907,2.4345601 181.604707,2.4567601 C179.739307,2.21376009 179.519407,2.23986009 178.129807,2.14476009 L178.266907,2.15466009 C178.266907,2.15466009 178.065307,2.14086009 177.764407,2.11896008 C177.613207,2.10756008 177.437407,2.09556008 177.249007,2.08176008 C177.069607,2.05986008 176.877007,2.03586008 176.685007,2.01366008 C175.885207,1.91616008 175.086007,1.81836007 175.086007,1.81836007 L175.898107,1.94046008 C173.499307,2.02026008 171.070207,1.52196006 167.856607,1.49616006 C170.978407,1.52916006 168.379507,1.41936006 168.629107,1.29636005 C167.814607,1.19616005 166.576807,1.05906004 166.932307,1.04586004 C165.415207,1.03896004 164.412907,0.792660031 162.268206,0.819660033 C162.175506,0.76686003 160.649406,0.735060029 160.996806,0.636660025 C159.025206,0.576360023 161.458506,0.738960029 161.289906,0.787860031 C158.251806,0.775860031 154.162506,0.282660011 149.788206,0.433860017 L149.788206,0.433860017 Z" id="Fill-22" fill="#F5001F"></path>
                <path d="M271.946321,74.1704729 L271.993421,75.041073 C271.989521,75.101973 271.984121,75.147273 271.979321,75.186573 C271.999721,75.213573 272.032121,75.690873 272.059721,76.145373 C272.030921,75.252273 272.038121,74.0669729 271.946321,74.1704729" id="Fill-24" fill="#F5001F"></path>
                <path d="M271.173191,58.6689023 C271.181891,58.7661023 271.189091,58.8603023 271.196291,58.9584023 C271.188491,58.8306023 271.180091,58.7433023 271.173191,58.6689023" id="Fill-26" fill="#F5001F"></path>
                <path d="M271.978691,75.183843 C271.979291,75.186543 271.979291,75.188943 271.979291,75.191643 L271.979291,75.186543 L271.978691,75.183843 Z" id="Fill-28" fill="#F5001F"></path>
                <path d="M110.056624,162.764826 C109.842124,162.716226 109.586824,162.658926 109.255024,162.589626 C109.512724,162.644226 109.793224,162.706626 110.056624,162.764826" id="Fill-30" fill="#F5001F"></path>
                <path d="M127.803635,1.16148005 L127.490135,1.17258005 C127.555835,1.17558005 127.651235,1.17318005 127.803635,1.16148005" id="Fill-32" fill="#F5001F"></path>
                <polygon id="Fill-34" fill="#F5001F" points="96.1237538 157.852896 96.1309538 157.819596 95.7145538 157.644096"></polygon>
                <path d="M190.302518,2.91108012 C190.250318,2.89518012 190.145318,2.87568011 189.935618,2.84808011 C189.951518,2.85828011 190.109918,2.88198011 190.302518,2.91108012" id="Fill-36" fill="#F5001F"></path>
                <path d="M176.436157,1.97154008 C176.796157,2.01804008 177.148357,2.07444008 177.385657,2.09004008 C177.668257,2.11134008 177.912757,2.12844008 178.129657,2.14464009 C178.129657,2.14464009 177.699157,2.11134008 177.268357,2.07654008 C176.852557,2.02464008 176.436157,1.97154008 176.436157,1.97154008" id="Fill-38" fill="#F5001F"></path>
                <path d="M168.815617,1.25436005 C168.695617,1.26876005 168.659917,1.28346005 168.629017,1.29636005 C168.635317,1.29786005 168.640717,1.29846005 168.646417,1.29846005 L168.815617,1.25436005 Z" id="Fill-40" fill="#F5001F"></path>
                <path d="M272.059721,76.145373 C272.064821,76.271973 272.069021,76.395273 272.073221,76.507173 C272.114021,77.3552731 272.096021,76.7786731 272.059721,76.145373" id="Fill-42" fill="#F5001F"></path>
                <path d="M265.267361,32.6365813 C265.535261,33.0262813 265.812461,33.4057813 266.074361,33.8254813 C265.674161,33.1393813 265.339661,32.6191813 265.267361,32.6365813" id="Fill-44" fill="#F5001F"></path>
                <path d="M278.075681,124.160015 C278.074181,124.155215 278.074181,124.160015 278.072681,124.155215 C278.094281,124.260215 278.114681,124.352615 278.136281,124.458215 L278.075681,124.160015 Z" id="Fill-46" fill="#F5001F"></path>
                <path d="M266.074361,33.8254513 C266.361461,34.4125514 266.695361,35.1031514 267.010661,35.6803514 C266.675261,34.9594514 266.368661,34.3672514 266.074361,33.8254513" id="Fill-48" fill="#F5001F"></path>
                <path d="M127.739195,0.870570035 C127.748195,0.878370035 127.721195,0.887670035 127.687595,0.894570036 L128.191595,0.846270034 L127.739195,0.870570035 Z" id="Fill-50" fill="#F5001F"></path>
                <path d="M127.187105,0.944970038 C127.417805,0.929670037 127.617005,0.914370036 127.687505,0.894570036 L127.187105,0.944970038 Z" id="Fill-52" fill="#F5001F"></path>
                <path d="M126.135485,1.05102004 L127.186985,0.944820038 C126.822485,0.970920039 126.372785,0.99732004 126.135485,1.05102004" id="Fill-54" fill="#F5001F"></path>
                <g id="Group-58" transform="translate(140.400006, 0.069000)">
                    <mask id="mask-4" fill="white">
                        <use xlink:href="#path-3"></use>
                    </mask>
                    <g id="Clip-57"></g>
                    <path d="M0.342900014,0.289440012 C0.265500011,0.300240012 0.216300009,0.317040013 0.201300008,0.338940013 L0.342900014,0.289440012 Z" id="Fill-56" fill="#F5001F" mask="url(#mask-4)"></path>
                </g>
                <g id="Group-61" transform="translate(140.700006, 0.069000)">
                    <mask id="mask-6" fill="white">
                        <use xlink:href="#path-5"></use>
                    </mask>
                    <g id="Clip-60"></g>
                    <path d="M0.159510006,0.25050001 L0.0428100017,0.289500012 C0.633210025,0.209700008 2.82081011,0.351600014 3.67461015,0.278700011 C2.77491011,0.264600011 1.41561006,0.198900008 0.159510006,0.25050001" id="Fill-59" fill="#F5001F" mask="url(#mask-6)"></path>
                </g>
                <path d="M251.57152,19.1940008 C251.57152,19.1940008 251.31772,18.9969008 251.05432,18.8154007 C250.78852,18.6369007 250.52212,18.4587007 250.52212,18.4587007 L249.94162,18.2427007 C249.94162,18.2427007 250.35232,18.4746007 250.76392,18.7065007 C251.17942,18.9303008 251.57152,19.1940008 251.57152,19.1940008" id="Fill-62" fill="#F5001F"></path>
                <path d="M235.492509,46.9290619 C236.642409,45.4353618 237.935709,44.3853618 239.90341,44.6553618 C241.01221,44.8074618 242.21911,45.2850618 243.06901,45.9729618 C246.74941,48.9534619 245.76361,54.3342622 244.60111,58.2468623 C243.14251,63.1566625 241.16041,68.0931627 243.42781,73.0599629 C245.19421,76.9284631 249.54331,79.3680632 253.44331,79.1844631 L253.44331,76.079163 C249.54331,76.283163 246.08581,77.9751631 243.81991,81.3732632 C241.29031,85.1655634 241.20001,89.9049636 242.40421,94.1616637 C243.72451,98.8260639 246.89821,104.041564 243.97561,108.716164 C242.86741,110.488564 240.88741,111.408664 238.852209,111.442264 C237.269409,111.468664 235.098909,110.795164 234.108009,109.469164 C233.356509,108.464164 231.734709,109.024264 232.036509,110.343964 C233.011509,114.607565 238.671309,115.265165 242.14201,113.985665 C246.71881,112.297864 248.74201,107.402164 248.18911,102.819364 C247.50361,97.1415639 243.61891,92.1513637 245.07241,86.2740634 C246.12391,82.0209633 249.25441,79.3491632 253.65451,79.1844631 C255.64951,79.1100631 255.66001,76.017963 253.65451,76.079163 C248.84821,76.225863 245.68681,71.8812629 245.82931,67.3857627 C246.00301,61.9092625 249.10831,57.0018623 248.55271,51.413162 C248.17981,47.6610619 246.14581,44.2767618 242.51011,43.0176617 C239.28421,41.9007617 235.771809,43.2009617 234.833409,46.6512619 C234.717909,47.0751619 235.257309,47.2350619 235.492509,46.9290619" id="Fill-64" fill="#EDEDED"></path>
                <path d="M156.804786,110.267734 C155.654886,111.761434 154.361586,112.811434 152.393586,112.541434 C151.285086,112.389634 150.078186,111.911734 149.228286,111.223834 C145.547886,108.243634 146.533686,102.862534 147.695886,98.9499339 C149.154786,94.0401337 151.131186,89.1042335 148.864086,84.1368333 C147.097686,80.2683332 142.443186,77.8287331 138.843186,78.0123331 L138.843186,81.1176332 C142.443186,80.9136332 146.205786,79.2216331 148.471986,75.823233 C151.001286,72.0315329 151.094286,67.2918327 149.890386,63.0351325 C148.570086,58.3707323 145.397586,53.1552321 148.320186,48.4806319 C149.428686,46.7082319 151.408986,45.7881318 153.444186,45.7545318 C155.026986,45.7281318 157.197786,46.4016318 158.189286,47.7273319 C158.940486,48.7326319 160.561986,48.1725319 160.260486,46.8528319 C159.285486,42.5892317 153.625986,41.9316317 150.154986,43.2111317 C145.578486,44.8989318 143.555286,49.794932 144.108186,54.3774322 C144.793386,60.0552324 148.678386,65.0454326 147.225186,70.9230328 C146.173086,75.176133 143.042886,77.8476331 138.642786,78.0123331 C136.647485,78.0870331 136.637285,81.1788332 138.642486,81.1176332 C143.449086,80.9709332 146.610486,85.3155334 146.467986,89.8110336 C146.294286,95.2875338 143.188986,100.194934 143.744586,105.783634 C144.117186,109.535734 146.151486,112.920034 149.787186,114.179135 C153.013086,115.296035 156.525486,113.995835 157.463886,110.545534 C157.579386,110.121934 157.039986,109.961734 156.804786,110.267734" id="Fill-66" fill="#EDEDED"></path>
                <path d="M165.902197,67.9569027 C166.174597,67.5996027 166.438297,67.1289027 166.693597,66.5448026 C166.948597,65.9607026 167.192497,65.3112026 167.424997,64.5966026 C167.657497,63.8817025 167.867497,63.1476025 168.054697,62.3928025 C168.241897,61.6386024 168.400597,60.9186024 168.531097,60.2322024 C168.661297,59.5458024 168.757897,58.9419023 168.820297,58.4199023 C168.882697,57.8985023 168.908197,57.5010023 168.896797,57.2289023 C168.851497,56.7525023 168.718297,56.3187022 168.496897,55.9272022 C168.275797,55.5360022 168.006397,55.2243022 167.688997,54.9915022 C167.370997,54.7590022 167.042197,54.6426022 166.701997,54.6426022 C166.531897,54.6540022 166.364497,54.7164022 166.200097,54.8298022 C166.035397,54.9432022 165.885097,55.0794022 165.749197,55.2381022 C165.612997,55.3971022 165.488197,55.5504022 165.374797,55.6977022 C165.340597,55.7430022 165.306697,55.7883022 165.272797,55.8336022 C164.943697,56.2533022 164.640097,56.7924023 164.362297,57.4503023 C164.084197,58.1082023 163.843297,58.8396023 163.639297,59.6451024 C163.434996,60.4506024 163.278996,61.2729024 163.171296,62.1123025 C163.063296,62.9517025 163.009596,63.7602025 163.009596,64.5369026 C163.009596,65.3139026 163.083396,66.0087026 163.230996,66.6213026 C163.377996,67.2339027 163.602097,67.7133027 163.902997,68.0589027 C164.203297,68.4051027 164.597497,68.5611027 165.085597,68.5269027 C165.357697,68.5041027 165.630097,68.3142027 165.902197,67.9569027 M165.595897,53.0262021 C165.856897,52.5954021 166.227997,52.3230021 166.710397,52.2096021 C167.192497,52.0962021 167.722897,52.1187021 168.301297,52.2774021 C168.879997,52.4367021 169.441297,52.7028021 169.985797,53.0772021 C170.530297,53.4513021 171.000997,53.8998021 171.398197,54.4215022 C171.772297,54.9432022 172.038997,55.6152022 172.197697,56.4378022 C172.356697,57.2604023 172.424497,58.1676023 172.401997,59.1603024 C172.379197,60.1527024 172.282897,61.1679024 172.112797,62.2059025 C171.942697,63.2436025 171.715597,64.2390026 171.432097,65.1918026 C171.148597,66.1449026 170.825197,66.9843027 170.462197,67.7103027 C170.064997,68.4927027 169.602997,69.1167027 169.075597,69.5817028 C168.548197,70.0473028 167.977897,70.3845028 167.365597,70.5942028 C166.752997,70.8042028 166.123297,70.9320028 165.476797,70.9770028 C164.478397,71.0337028 163.633597,70.8663028 162.941496,70.4754028 C162.249696,70.0839028 161.696496,69.5253028 161.282796,68.7993027 C160.868496,68.0733027 160.582296,67.2339027 160.423296,66.2808026 C160.264596,65.3280026 160.219296,64.3185026 160.287396,63.2520025 C160.355196,62.1861025 160.527996,61.1256024 160.806396,60.0705024 C161.083896,59.0154023 161.452896,58.0173023 161.912196,57.0756023 C162.371496,56.1345022 162.910296,55.3122022 163.528596,54.6087022 C164.146597,53.9055021 164.835997,53.3778021 165.595897,53.0262021" id="Fill-68" fill="#EDEDED"></path>
                <path d="M175.960687,50.201822 C176.085487,50.269922 176.272687,50.408522 176.522287,50.618522 C176.771587,50.828522 177.046687,51.078122 177.347287,51.367322 C177.647887,51.6565221 177.940087,51.9574221 178.223587,52.2691221 C178.507087,52.5811221 178.748287,52.8706221 178.946887,53.1367221 C179.145187,53.4034221 179.272687,53.6215221 179.329687,53.7919221 C179.386087,53.9620221 179.335387,54.0556221 179.176387,54.0724221 C179.017387,54.0895221 178.717087,53.9959221 178.274587,53.7919221 C177.877387,53.5990221 177.446587,53.3326221 176.981587,52.9921221 C176.516287,52.6519221 176.119387,52.3456221 175.790587,52.0732221 C175.620487,51.9487221 175.489987,51.8464221 175.399087,51.7672221 C175.104187,51.540422 174.928387,51.316322 174.871687,51.095222 C174.814687,50.873822 174.840487,50.681222 174.948187,50.516522 C175.055887,50.352122 175.203487,50.238722 175.390687,50.176022 C175.577887,50.113922 175.767487,50.122322 175.960687,50.201822 M178.359787,70.1944228 C178.438987,69.9790228 178.456087,69.8287228 178.410787,69.7435228 C178.365487,69.6583228 178.271887,69.6244228 178.129987,69.6415228 C177.988087,69.6583228 177.815287,69.7123228 177.610987,69.8029228 C177.327487,69.9280228 176.984287,70.0072228 176.581687,70.0414228 C176.179087,70.0753228 175.762087,70.0354228 175.330987,69.9220228 C174.899887,69.8086228 174.488887,69.5989228 174.097687,69.2926228 C173.706187,68.9863227 173.368387,68.5525227 173.085187,67.9909227 C172.801387,67.4296227 172.614187,66.7177227 172.523587,65.8555226 C172.455487,65.1184226 172.478287,64.3981226 172.591687,63.6946225 C172.704787,62.9914225 172.880887,62.3449225 173.119087,61.7551225 C173.357287,61.1653224 173.623687,60.6775224 173.918887,60.2917224 C174.134287,60.0196224 174.378187,59.8492224 174.650587,59.7811224 C174.922687,59.7130224 175.180687,59.7274224 175.424587,59.8237224 C175.668487,59.9203224 175.852687,60.0790224 175.977787,60.3001224 C176.102287,60.5212224 176.124787,60.7963224 176.045887,61.1254224 C175.852687,61.7833225 175.708087,62.5066225 175.611787,63.2950225 C175.515487,64.0834225 175.492687,64.8715226 175.543687,65.6596226 C175.594687,66.4483226 175.750687,67.1713227 176.011687,67.8292227 C176.147887,68.1925227 176.323387,68.4646227 176.539087,68.6458227 C176.754487,68.8276227 176.995687,68.8756227 177.262387,68.7907227 C177.528787,68.7055227 177.820987,68.4475227 178.138687,68.0164227 C178.433587,67.5739227 178.674487,67.0807227 178.861687,66.5359226 C179.048887,65.9917226 179.193487,65.4358226 179.295487,64.8688226 C179.397787,64.3015226 179.471287,63.7573225 179.516887,63.2350225 C179.539387,63.0085225 179.567887,62.7841225 179.601787,62.5630225 C179.635687,62.3419225 179.683987,62.1349225 179.746687,61.9420225 C179.808787,61.7491225 179.896687,61.5793224 180.010387,61.4317224 C180.123487,61.2841224 180.271087,61.1710224 180.452587,61.0915224 C180.634087,61.0120224 180.860887,60.9721224 181.133287,60.9721224 C181.360087,60.9721224 181.552687,61.0546224 181.711687,61.2190224 C181.870387,61.3834224 181.998187,61.6132224 182.094487,61.9081225 C182.190787,62.2033225 182.261887,62.5435225 182.307187,62.9290225 C182.363887,63.3712225 182.386387,63.9301225 182.375287,64.6051226 C182.363887,65.2801226 182.318287,66.0085226 182.239087,66.7915227 C182.159887,67.5739227 182.043487,68.3482227 181.890487,69.1138227 C181.737187,69.8797228 181.541587,70.5661228 181.303387,71.1727228 C181.065187,71.7796229 180.787087,72.2473229 180.469687,72.5764229 C180.049687,72.9619229 179.664187,73.1635229 179.312587,73.1806229 C178.960687,73.1974229 178.677187,73.0699229 178.461787,72.7975229 C178.246387,72.5254229 178.121587,72.1594229 178.087387,71.7001228 C178.053487,71.2408228 178.144087,70.73892 178.359787,70.1944228" id="Fill-70" fill="#EDEDED"></path>
                <path d="M195.651848,63.7287625 C195.890048,63.7401625 196.125548,63.7230625 196.358048,63.6774625 C196.590248,63.6324625 196.757948,63.5754625 196.859948,63.5076625 C197.086748,63.3486625 197.253848,63.1587625 197.361848,62.9373625 C197.469548,62.7162625 197.523548,62.4864625 197.523548,62.2482625 C197.523548,62.0100625 197.466548,61.7889625 197.353448,61.5849624 C197.194448,61.3353624 197.015648,61.1850624 196.817348,61.1340624 C196.618748,61.0827624 196.409048,61.1169624 196.187948,61.2357624 C195.966548,61.3551624 195.753848,61.5453624 195.549848,61.8060625 C195.390848,62.0100625 195.254648,62.2287625 195.141548,62.4609625 C195.027848,62.6937625 194.959748,62.9094625 194.937248,63.1077625 C194.914448,63.3063625 194.965448,63.4620625 195.090248,63.5754625 C195.226448,63.6663625 195.413648,63.7173625 195.651848,63.7287625 M197.489348,64.0008625 C197.171648,64.0917625 196.882748,64.1541625 196.621748,64.1880626 C196.360748,64.2222626 196.100048,64.2450626 195.839048,64.2561626 C195.600848,64.2675626 195.339848,64.2900626 195.056348,64.3239626 C194.976848,64.3239626 194.903048,64.3524626 194.835248,64.4094626 C194.767148,64.4661626 194.716148,64.5621626 194.681948,64.6983626 C194.636648,64.9026626 194.614148,65.1153626 194.614148,65.3364626 C194.614148,65.5578626 194.619548,65.7138626 194.630948,65.8044626 C194.687648,66.2241626 194.786948,66.6468626 194.928848,67.0722627 C195.070448,67.4976627 195.260648,67.8975627 195.498848,68.2716627 C195.759548,68.6688627 196.020548,68.9922627 196.281548,69.2415628 C196.542248,69.4911628 196.856948,69.6840628 197.225948,69.8202628 C197.594348,69.9561628 198.073748,70.0584628 198.663548,70.1262628 C198.958448,70.1490628 199.145648,70.1973628 199.225148,70.2711628 C199.304348,70.3449628 199.301648,70.4238628 199.216448,70.5093628 C199.131548,70.5942628 198.986948,70.6707628 198.782648,70.7388628 C198.362948,70.8861628 197.906348,70.9716628 197.412848,70.9941628 C196.919648,71.0166628 196.474148,71.0055628 196.077248,70.9599628 C195.317048,70.8579628 194.664848,70.6425628 194.120648,70.3134628 C193.576148,69.9846628 193.133648,69.5760628 192.793448,69.0882627 C192.452948,68.6007627 192.206348,68.0616627 192.053048,67.4721627 C191.900048,66.8823627 191.831948,66.2697626 191.849048,65.6343626 C191.866148,64.9989626 191.959448,64.3752626 192.129848,63.7626625 C192.356648,62.9118625 192.688448,62.1945625 193.125248,61.6101624 C193.561748,61.0260624 194.049548,60.5637624 194.588648,60.2235624 C195.127148,59.8833624 195.674648,59.6679624 196.230548,59.5770624 C196.786148,59.4861624 197.305148,59.5089624 197.787248,59.6451624 C198.269348,59.7810624 198.663548,60.0279624 198.969848,60.3849624 C199.276148,60.7425624 199.451948,61.2048624 199.497248,61.7721625 C199.520048,62.1801625 199.446248,62.5320625 199.276148,62.8266625 C199.106048,63.1221625 198.864848,63.3627625 198.552848,63.5499625 C198.240848,63.7371625 197.886548,63.8874625 197.489348,64.0008625" id="Fill-72" fill="#EDEDED"></path>
                <path d="M202.375328,60.0110124 C202.273328,60.4703124 202.250228,60.8588124 202.307228,61.1765124 C202.363928,61.4939124 202.477328,61.7720125 202.647728,62.0102125 C202.783628,62.2145125 202.936928,62.4185125 203.107028,62.6228125 C203.277128,62.8268125 203.458328,63.0368125 203.651528,63.2522125 C203.866928,63.4907125 204.082328,63.7373125 204.298028,63.9923125 C204.513428,64.2476126 204.712028,64.5113126 204.893528,64.7834126 C205.143128,65.2034126 205.290428,65.6570126 205.336028,66.1448126 C205.381328,66.6326126 205.347128,67.1429127 205.233728,67.6763127 C205.120328,68.2094127 204.950228,68.7482127 204.723428,69.2924128 C204.621428,69.5306128 204.417128,69.9449128 204.110828,70.5347128 C203.804528,71.1245128 203.458328,71.7653129 203.072828,72.4574129 C202.687328,73.1492129 202.321328,73.7675129 201.975428,74.312013 C201.629228,74.856513 201.365528,75.207813 201.184328,75.367113 C200.866628,75.593613 200.523428,75.701613 200.155028,75.690213 C199.786328,75.678813 199.451528,75.573813 199.150928,75.375513 C198.850628,75.176913 198.637928,74.913213 198.512828,74.584113 C198.388028,74.255013 198.410828,73.8977129 198.580928,73.5122129 C198.785228,73.0697129 199.051928,72.6020129 199.380728,72.1085129 C199.709828,71.6153128 200.061428,71.1131128 200.435528,70.6028128 C200.855228,70.0130128 201.255128,69.4289128 201.635228,68.8502127 C202.015028,68.2715127 202.321328,67.7102127 202.554128,67.1657127 C202.786328,66.6212126 202.894328,66.1166126 202.877228,65.6513126 C202.860428,65.1863126 202.658828,64.7723126 202.273328,64.4093126 C201.808028,64.0010125 201.405428,63.5501125 201.065228,63.0566125 C200.725028,62.5631125 200.492228,62.0186125 200.367728,61.4231124 C200.242628,60.8276124 200.271128,60.1784124 200.452628,59.4749124 C200.633828,58.7717123 201.019628,58.0115123 201.609728,57.1949123 C201.972428,56.6957123 202.381028,56.2478122 202.834628,55.8506122 C203.288228,55.4540122 203.815628,55.1588122 204.417128,54.9659122 C204.643928,54.8978122 204.828128,54.8783122 204.970028,54.9062122 C205.111928,54.9347122 205.177028,55.0313122 205.165928,55.1954122 C205.154528,55.3601122 205.035428,55.6067122 204.808328,55.9358122 C204.581528,56.2535122 204.331928,56.5598122 204.059828,56.8547123 C203.866928,57.0815123 203.677028,57.3140123 203.489828,57.5522123 C203.302628,57.7904123 203.135228,58.0514123 202.987928,58.3349123 C202.681628,58.9928123 202.477328,59.5514124 202.375328,60.0110124" id="Fill-74" fill="#EDEDED"></path>
                <path d="M209.864198,48.2790619 C210.057098,48.1317619 210.249698,48.1062619 210.442898,48.2022619 C210.635498,48.2988619 210.808598,48.4776619 210.961598,48.7383619 C211.114898,48.9993619 211.236698,49.291262 211.327598,49.614662 C211.418198,49.937762 211.452098,50.252762 211.429598,50.559062 C211.372598,51.7161621 211.321598,52.9185621 211.276598,54.1662622 C211.253498,54.6879622 211.225598,55.3461622 211.191398,56.1399622 C212.972198,55.7430622 214.747599,55.3230622 216.516999,54.8808622 C216.811899,54.8016622 217.140699,54.7530622 217.503999,54.7359622 C217.866999,54.7191622 218.218599,54.7305622 218.558799,54.7704622 C218.899299,54.8103622 219.174099,54.8724622 219.384099,54.9573622 C219.594099,55.0425622 219.690399,55.1502622 219.673299,55.2807622 C219.656499,55.4109622 219.471999,55.5642622 219.120399,55.7400622 C218.768799,55.9161622 218.201799,56.1060622 217.419099,56.3103622 C215.376999,56.8545623 213.278498,57.3480623 211.123298,57.7902623 C211.111898,58.0857623 211.095098,58.3803623 211.072298,58.6749623 C211.038398,59.6850624 210.981398,60.8418624 210.902198,62.1462625 C210.822698,63.4506625 210.708998,64.7493626 210.561998,66.0426626 C210.414098,67.3356627 210.210098,68.5950627 209.949398,69.8202628 C209.858198,70.2510628 209.702498,70.6764628 209.481398,71.0961628 C209.260298,71.5155628 209.004998,71.9070629 208.715798,72.2703629 C208.426598,72.6330629 208.128698,72.9309629 207.822398,73.1634629 C207.516098,73.3959629 207.226898,73.5378629 206.954798,73.5888629 C206.682398,73.6398629 206.455298,73.5690629 206.274098,73.3761629 C206.092598,73.1832629 205.984898,72.8316629 205.950698,72.3213629 C205.905398,71.3343628 205.964798,70.0299628 206.129498,68.4078627 C206.293898,66.7857627 206.512298,65.0643626 206.784398,63.2436625 C207.056798,61.4232624 207.317498,59.8437624 207.567098,58.5051623 C207.113498,58.5846623 206.103998,58.7604623 204.538598,59.0325623 C204.186998,59.0325623 203.877698,58.9929623 203.611298,58.9134623 C203.344898,58.8342623 203.163398,58.7322623 203.066798,58.6071623 C202.970498,58.4826623 202.989998,58.3548623 203.126498,58.2240623 C203.262398,58.0941623 203.557598,57.9834623 204.011198,57.8925623 L207.839498,56.8716623 C208.179698,54.7614622 208.485998,53.0490621 208.758098,51.7332621 C209.030498,50.417462 209.223398,49.583762 209.336798,49.231862 C209.495498,48.7443619 209.671298,48.4263619 209.864198,48.2790619" id="Fill-76" fill="#EDEDED"></path>
                <path d="M161.580456,80.1895232 C161.591556,80.0761232 161.620056,79.9060232 161.665656,79.6789232 C161.710656,79.4521232 161.770356,79.2055231 161.844156,78.9388231 C161.917956,78.6724231 162.008556,78.4258231 162.116556,78.1987231 C162.224256,77.9719231 162.348756,77.7988231 162.490656,77.6797231 C162.632256,77.5606231 162.799656,77.5297231 162.992856,77.5861231 C163.151256,77.6542231 163.299156,77.8018231 163.435056,78.0286231 C163.571256,78.2557231 163.690357,78.5164231 163.792357,78.8110231 C163.894357,79.1065231 163.976557,79.3927232 164.038957,79.6705232 C164.101357,79.9486232 164.143657,80.1838232 164.166757,80.3767232 C164.291557,81.8059233 164.336857,83.7229233 164.302957,86.1277234 C164.268757,88.5328235 164.186557,90.8608236 164.056057,93.1123237 C163.925557,95.3641238 163.792357,96.9892239 163.656157,97.9870239 C163.588057,98.3728239 163.440756,98.6680239 163.213956,98.8717239 C162.998256,99.0535239 162.745956,99.1699239 162.456756,99.2209239 C162.167556,99.2716239 161.880756,99.2632239 161.597556,99.1954239 C161.313756,99.1273239 161.064156,99.0196239 160.848756,98.8717239 C160.644456,98.7247239 160.497156,98.4952239 160.406256,98.1829239 C160.315356,97.8709239 160.264356,97.5334239 160.253256,97.1707239 C160.185156,95.6164238 160.196256,94.0171237 160.287156,92.3722237 C160.378056,90.7276236 160.516956,89.0740235 160.704156,87.4123235 C160.891356,85.7506234 161.086956,84.1144233 161.291256,82.5034233 C161.393256,81.7207232 161.489556,80.9494232 161.580456,80.1895232" id="Fill-78" fill="#EDEDED"></path>
                <path d="M167.189347,91.5980136 C167.104147,92.0009137 167.036347,92.4233137 166.985047,92.8658137 C166.934047,93.3080137 166.919947,93.7250137 166.942747,94.1165137 C166.965247,94.5074138 167.044747,94.8224138 167.180947,95.0606138 C167.282947,95.2307138 167.416147,95.3582138 167.580847,95.4434138 C167.744947,95.5286138 167.906647,95.5541138 168.065647,95.5199138 C168.224347,95.4860138 168.360547,95.3726138 168.473947,95.1797138 C168.542047,95.0210138 168.635647,94.6946138 168.754747,94.2014137 C168.873847,93.7079137 168.987247,93.1577137 169.095247,92.5508137 C169.202647,91.9442137 169.284847,91.3853136 169.341847,90.8750136 C169.375747,90.5234136 169.321747,90.2483136 169.180147,90.0497136 C169.038247,89.8514136 168.854047,89.7350136 168.626947,89.7008136 C168.400147,89.6669136 168.176347,89.7236136 167.954947,89.8709136 C167.733847,90.0185136 167.560747,90.2681136 167.435947,90.6197136 C167.356747,90.8693136 167.274547,91.1954136 167.189347,91.5980136 M166.636447,97.2044139 C166.160047,97.1594139 165.782647,96.9917139 165.504847,96.7025138 C165.226747,96.4133138 165.025447,96.0473138 164.900947,95.6048138 C164.775847,95.1626138 164.710747,94.6778138 164.705047,94.1504137 C164.699347,93.6227137 164.739247,93.0926137 164.824147,92.5592137 C164.909347,92.0264137 165.020047,91.5329136 165.156247,91.0793136 C165.292147,90.6257136 165.433747,90.2453136 165.581347,89.9390136 C165.876247,89.3834136 166.270447,88.9268135 166.763947,88.5692135 C167.257447,88.2122135 167.816047,87.9938135 168.440047,87.9143135 C168.859447,87.8576135 169.245247,87.9086135 169.596847,88.0673135 C169.948447,88.2266135 170.243647,88.5098135 170.481847,88.9181135 C170.549947,89.0885135 170.606647,89.2925135 170.651947,89.5307136 C170.685847,89.7236136 170.728447,89.8937136 170.779447,90.0413136 C170.830747,90.1889136 170.918347,90.2792136 171.043447,90.3134136 C171.156547,90.3248136 171.272947,90.3107136 171.392047,90.2708136 C171.511147,90.2312136 171.627247,90.1889136 171.740947,90.1430136 C171.876847,90.0752136 171.998647,90.0299136 172.106647,90.0071136 C172.214347,89.9846136 172.299547,90.0158136 172.361947,90.1007136 C172.424047,90.1859136 172.455547,90.3587136 172.455547,90.6197136 L172.455547,91.3004136 C172.466647,91.7768136 172.469647,92.3612137 172.464247,93.0530137 C172.458247,93.7448137 172.435447,94.4792138 172.395847,95.2562138 C172.356247,96.0332138 172.279447,96.7961138 172.166347,97.5446139 C172.052647,98.2934139 171.888247,98.9684139 171.672847,99.569614 C171.457147,100.170514 171.179347,100.635814 170.839147,100.964914 C170.498947,101.293714 170.073547,101.429614 169.562947,101.373214 C169.335847,101.327914 169.180147,101.168914 169.095247,100.896814 C169.010047,100.624414 168.967447,100.292614 168.967447,99.901414 C168.967447,99.509914 168.978547,99.1160139 169.001647,98.7188139 C169.012747,98.4353139 169.018447,98.1716139 169.018447,97.9277139 C169.018447,97.6838139 169.007047,97.4825139 168.984547,97.3235139 C168.950347,97.2104139 168.896347,97.1279139 168.822847,97.0769139 C168.749047,97.0259139 168.655447,96.9947139 168.542047,96.9833139 C168.326647,96.9608139 168.130747,96.9638139 167.954947,96.9917139 C167.779147,97.0202139 167.611747,97.0571139 167.453047,97.1024139 C167.305447,97.1363139 167.166547,97.1651139 167.036347,97.1876139 C166.905847,97.2104139 166.772347,97.2161139 166.636447,97.2044139" id="Fill-80" fill="#EDEDED"></path>
                <path d="M184.796317,110.935714 C184.160917,110.935714 183.701617,110.419114 183.418117,109.387414 C183.100417,108.275614 182.941717,106.131514 182.941717,102.955414 C182.941717,99.881314 183.140017,97.0742139 183.537217,94.5332138 C182.618317,94.6919138 181.965817,94.7714138 181.580317,94.7714138 C181.240117,94.7714138 181.070017,94.6751138 181.070017,94.4819138 C181.070017,94.1987137 181.359217,93.9434137 181.937917,93.7166137 C182.777017,93.3989137 183.395317,93.2171137 183.792517,93.1718137 C184.677217,88.6574135 186.344617,85.0163134 188.795018,82.2482133 C190.042418,80.8532132 190.921718,80.1554132 191.432318,80.1554132 C191.658818,80.1554132 191.772518,80.3084132 191.772518,80.6150132 C191.772518,80.8985132 191.653418,81.3182132 191.415218,81.8738133 C191.188118,82.3733133 190.870718,82.9289133 190.462418,83.5415133 C188.352517,86.6837134 187.059217,89.7689136 186.582817,92.7977137 C188.295517,92.6165137 189.214418,92.5253137 189.339518,92.5253137 C189.656918,92.5253137 189.892418,92.5679137 190.045418,92.6531137 C190.198418,92.7380137 190.275218,92.8316137 190.275218,92.9336137 C190.275218,93.2057137 189.849818,93.4556137 188.999018,93.6824137 C188.102617,93.9320137 187.257817,94.1024137 186.463717,94.1927137 C186.134617,97.7774139 186.004417,100.493914 186.072517,102.342814 C186.140317,104.192014 186.214117,105.399814 186.293617,105.967114 C186.418417,106.908514 186.480817,107.498614 186.480817,107.736814 C186.480817,108.201814 186.426817,108.672514 186.319117,109.149214 C186.211117,109.625614 186.041017,110.019514 185.808817,110.331514 C185.576017,110.643214 185.369017,110.822014 185.187517,110.867314 C185.006017,110.912914 184.875517,110.935714 184.796317,110.935714" id="Fill-82" fill="#EDEDED"></path>
                <path d="M193.433918,91.5980136 C193.348718,92.0009137 193.280918,92.4233137 193.229618,92.8658137 C193.178618,93.3080137 193.164518,93.7250137 193.187318,94.1165137 C193.209818,94.5074138 193.289318,94.8224138 193.425518,95.0606138 C193.527518,95.2307138 193.660718,95.3582138 193.825418,95.4434138 C193.989518,95.5286138 194.151218,95.5541138 194.310218,95.5199138 C194.468918,95.4860138 194.605118,95.3726138 194.718518,95.1797138 C194.786618,95.0210138 194.880218,94.6946138 194.999318,94.2014137 C195.118418,93.7079137 195.231818,93.1577137 195.339818,92.5508137 C195.447218,91.9442137 195.529418,91.3853136 195.586418,90.8750136 C195.620318,90.5234136 195.566318,90.2483136 195.424718,90.0497136 C195.282818,89.8514136 195.098618,89.7350136 194.871518,89.7008136 C194.644718,89.6669136 194.420918,89.7236136 194.199518,89.8709136 C193.978418,90.0185136 193.805318,90.2681136 193.680518,90.6197136 C193.601318,90.8693136 193.519118,91.1954136 193.433918,91.5980136 M192.881018,97.2044139 C192.404618,97.1594139 192.027218,96.9917139 191.749418,96.7025138 C191.471318,96.4133138 191.270018,96.0473138 191.145518,95.6048138 C191.020418,95.1626138 190.955318,94.6778138 190.949618,94.1504137 C190.943918,93.6227137 190.983818,93.0926137 191.068718,92.5592137 C191.153918,92.0264137 191.264618,91.5329136 191.400818,91.0793136 C191.536718,90.6257136 191.678318,90.2453136 191.825918,89.9390136 C192.120818,89.3834136 192.515018,88.9268135 193.008518,88.5692135 C193.502018,88.2122135 194.060618,87.9938135 194.684618,87.9143135 C195.104018,87.8576135 195.489818,87.9086135 195.841418,88.0673135 C196.193018,88.2266135 196.488218,88.5098135 196.726418,88.9181135 C196.794518,89.0885135 196.851218,89.2925135 196.896518,89.5307136 C196.930418,89.7236136 196.973018,89.8937136 197.024018,90.0413136 C197.075318,90.1889136 197.162918,90.2792136 197.288018,90.3134136 C197.401118,90.3248136 197.517518,90.3107136 197.636618,90.2708136 C197.755718,90.2312136 197.871818,90.1889136 197.985518,90.1430136 C198.121418,90.0752136 198.243218,90.0299136 198.351218,90.0071136 C198.458918,89.9846136 198.544118,90.0158136 198.606518,90.1007136 C198.668618,90.1859136 198.700118,90.3587136 198.700118,90.6197136 L198.700118,91.3004136 C198.711218,91.7768136 198.714218,92.3612137 198.708818,93.0530137 C198.702818,93.7448137 198.680018,94.4792138 198.640418,95.2562138 C198.600818,96.0332138 198.524018,96.7961138 198.410918,97.5446139 C198.297218,98.2934139 198.132818,98.9684139 197.917418,99.569614 C197.701718,100.170514 197.423918,100.635814 197.083718,100.964914 C196.743518,101.293714 196.318118,101.429614 195.807518,101.373214 C195.580418,101.327914 195.424718,101.168914 195.339818,100.896814 C195.254618,100.624414 195.212018,100.292614 195.212018,99.901414 C195.212018,99.509914 195.223118,99.1160139 195.246218,98.7188139 C195.257318,98.4353139 195.263018,98.1716139 195.263018,97.9277139 C195.263018,97.6838139 195.251618,97.4825139 195.229118,97.3235139 C195.194918,97.2104139 195.140918,97.1279139 195.067418,97.0769139 C194.993618,97.0259139 194.900018,96.9947139 194.786618,96.9833139 C194.571218,96.9608139 194.375318,96.9638139 194.199518,96.9917139 C194.023718,97.0202139 193.856318,97.0571139 193.697618,97.1024139 C193.550018,97.1363139 193.411118,97.1651139 193.280918,97.1876139 C193.150418,97.2104139 193.016918,97.2161139 192.881018,97.2044139" id="Fill-84" fill="#EDEDED"></path>
                <path d="M205.627568,87.7525235 C205.774868,87.8377235 205.823168,87.9880235 205.772168,88.2037235 C205.721168,88.4191235 205.593668,88.5553235 205.389368,88.6117235 C204.742868,88.7935235 204.150068,89.0146235 203.611268,89.2753235 C203.072468,89.5366236 202.618568,89.8939236 202.250168,90.3472236 C201.881468,90.8011236 201.634568,91.3912236 201.510068,92.1169237 C201.384968,92.8432237 201.467468,93.5578237 201.756668,94.2607237 C202.046168,94.9642238 202.527968,95.5879238 203.202968,96.1327238 C203.877668,96.6769238 204.748268,96.9835239 205.814768,97.0513239 C206.030168,97.0513239 206.251268,97.0573239 206.478368,97.0684239 C206.886668,97.1023239 207.119168,97.2784239 207.176168,97.5961239 C207.232568,97.9135239 207.173168,98.2456239 206.997368,98.5912239 C206.821268,98.9374239 206.435768,99.1444239 205.840268,99.2122239 C205.244768,99.2803239 204.674768,99.2743239 204.130268,99.1954239 C203.506268,99.1045239 202.902368,98.8717239 202.318268,98.4976239 C201.733868,98.1232239 201.217868,97.6384239 200.769968,97.0429239 C200.321468,96.4471238 200.001368,95.7811238 199.808468,95.0437238 C199.604168,94.2043237 199.555868,93.3676237 199.663868,92.5339237 C199.771568,91.7002236 200.038268,90.9319236 200.463668,90.2284236 C200.889068,89.5252236 201.472868,88.9438235 202.215968,88.4842235 C202.958768,88.0249235 203.863568,87.7498235 204.930068,87.6589235 C205.247468,87.6364235 205.479968,87.6676235 205.627568,87.7525235" id="Fill-86" fill="#EDEDED"></path>
                <path d="M212.742458,98.3954739 C212.821658,98.1800739 212.838758,98.0297739 212.793458,97.9445739 C212.748158,97.8596739 212.654558,97.8257739 212.512658,97.8425739 C212.370758,97.8596739 212.197958,97.9136739 211.993658,98.0039739 C211.710158,98.1290739 211.366958,98.2082739 210.964358,98.2424739 C210.561458,98.2766739 210.144758,98.2367739 209.713658,98.1233739 C209.282558,98.0099739 208.871558,97.8002739 208.480058,97.4936739 C208.088858,97.1876739 207.751058,96.7535738 207.467558,96.1919738 C207.184058,95.6306738 206.996858,94.9187738 206.906258,94.0565737 C206.838158,93.3194737 206.860958,92.5994737 206.974358,91.8956737 C207.087458,91.1924736 207.263558,90.5459736 207.501758,89.9561736 C207.739958,89.3663736 208.006358,88.8785735 208.301558,88.4927735 C208.516958,88.2206735 208.760858,88.0505735 209.033258,87.9821735 C209.305358,87.9140735 209.563358,87.9284735 209.807258,88.0250735 C210.051158,88.1213735 210.235358,88.2800735 210.360458,88.5014735 C210.484958,88.7225735 210.507458,88.9976735 210.428558,89.3267735 C210.235358,89.9846736 210.090758,90.7076736 209.994458,91.4960736 C209.898158,92.2844737 209.875358,93.0728737 209.926358,93.8609737 C209.977358,94.6496738 210.133358,95.3726738 210.394358,96.0302738 C210.530258,96.3935738 210.706058,96.6656738 210.921758,96.8471738 C211.137158,97.0286739 211.378358,97.0766739 211.645058,96.9917739 C211.911158,96.9065739 212.203658,96.6488738 212.521358,96.2174738 C212.816258,95.7752738 213.057158,95.2817738 213.244358,94.7372738 C213.431558,94.1927737 213.576158,93.6371737 213.678158,93.0698737 C213.780158,92.5025737 213.853958,91.9583737 213.899258,91.4363736 C213.922059,91.2095736 213.950559,90.9854736 213.984459,90.7643736 C214.018359,90.5429736 214.066659,90.3362736 214.129359,90.1430736 C214.191459,89.9504736 214.279359,89.7803736 214.392759,89.6327736 C214.506159,89.4854736 214.653759,89.3720736 214.835259,89.2925735 C215.016759,89.2133735 215.243559,89.1734735 215.515959,89.1734735 C215.742459,89.1734735 215.935359,89.2556735 216.094359,89.4200736 C216.253059,89.5847736 216.380559,89.8142736 216.477159,90.1091736 C216.573459,90.4043736 216.644559,90.7445736 216.689859,91.1300736 C216.746559,91.5725736 216.769059,92.1311737 216.757959,92.8061737 C216.746559,93.4811737 216.700959,94.2098737 216.621759,94.9925738 C216.542559,95.7752738 216.426159,96.5495738 216.273159,97.3148739 C216.119859,98.0807739 215.924259,98.7671739 215.686059,99.3740739 C215.447859,99.980674 215.169759,100.448674 214.852359,100.777474 C214.432359,101.163274 214.046859,101.364574 213.695258,101.381674 C213.343358,101.398774 213.059858,101.270974 212.844458,100.998874 C212.629058,100.726774 212.504258,100.360774 212.470058,99.901474 C212.436158,99.441874 212.526758,98.9399739 212.742458,98.3954739" id="Fill-88" fill="#EDEDED"></path>
                <path d="M219.040569,80.1895232 C219.051669,80.0761232 219.080169,79.9060232 219.125769,79.6789232 C219.170769,79.4521232 219.230469,79.2055231 219.304269,78.9388231 C219.378069,78.6724231 219.468669,78.4258231 219.576669,78.1987231 C219.684369,77.9719231 219.808869,77.7988231 219.950769,77.6797231 C220.092369,77.5606231 220.259769,77.5297231 220.452969,77.5861231 C220.611369,77.6542231 220.759269,77.8018231 220.895169,78.0286231 C221.031369,78.2557231 221.150469,78.5164231 221.252469,78.8110231 C221.354469,79.1065231 221.436669,79.3927232 221.499069,79.6705232 C221.561469,79.9486232 221.603769,80.1838232 221.626869,80.3767232 C221.751669,81.8059233 221.796969,83.7229233 221.763069,86.1277234 C221.728869,88.5328235 221.646669,90.8608236 221.516169,93.1123237 C221.385669,95.3641238 221.252469,96.9892239 221.116269,97.9870239 C221.048169,98.3728239 220.900869,98.6680239 220.674069,98.8717239 C220.458369,99.0535239 220.206069,99.1699239 219.916869,99.2209239 C219.627669,99.2716239 219.340869,99.2632239 219.057669,99.1954239 C218.773869,99.1273239 218.524269,99.0196239 218.308869,98.8717239 C218.104569,98.7247239 217.957269,98.4952239 217.866369,98.1829239 C217.775469,97.8709239 217.724469,97.5334239 217.713369,97.1707239 C217.645269,95.6164238 217.656369,94.0171237 217.747269,92.3722237 C217.838169,90.7276236 217.977069,89.0740235 218.164269,87.4123235 C218.351469,85.7506234 218.547069,84.1144233 218.751369,82.5034233 C218.853369,81.7207232 218.949669,80.9494232 219.040569,80.1895232" id="Fill-90" fill="#EDEDED"></path>
                <path d="M226.087059,76.480233 C226.279959,76.332933 226.472559,76.307433 226.665759,76.403433 C226.858359,76.500033 227.031459,76.678833 227.184459,76.9395331 C227.337759,77.2005331 227.459559,77.4924331 227.550459,77.8158331 C227.641059,78.1389331 227.674959,78.4539331 227.652459,78.7602331 C227.595459,79.9173332 227.544459,81.1197332 227.499459,82.3674333 C227.476359,82.8891333 227.448459,83.5473333 227.414259,84.3411334 C229.195059,83.9442333 230.970459,83.5242333 232.739859,83.0820333 C233.034759,83.0028333 233.363559,82.9542333 233.726859,82.9371333 C234.089859,82.9203333 234.441459,82.9317333 234.781659,82.9716333 C235.122159,83.0115333 235.396959,83.0736333 235.606959,83.1585333 C235.816959,83.2437333 235.913259,83.3514333 235.896159,83.4819333 C235.879359,83.6121333 235.694859,83.7654333 235.343259,83.9412333 C234.991659,84.1173333 234.424659,84.3072334 233.641959,84.5115334 C231.599859,85.0557334 229.501359,85.5489334 227.346159,85.9914334 C227.334759,86.2866334 227.317959,86.5815334 227.295159,86.8761335 C227.261259,87.8862335 227.204259,89.0430335 227.125059,90.3474336 C227.045559,91.6518336 226.931859,92.9505337 226.784859,94.2438337 C226.636959,95.5368338 226.432959,96.7962338 226.172259,98.0214339 C226.081059,98.4522339 225.925359,98.8776339 225.704259,99.2973339 C225.483159,99.716734 225.227859,100.108234 224.938659,100.471534 C224.649459,100.834234 224.351559,101.132134 224.045259,101.364634 C223.738959,101.597134 223.449759,101.739034 223.177659,101.790034 C222.905259,101.841034 222.678159,101.770234 222.496959,101.577334 C222.315459,101.384434 222.207759,101.032834 222.173559,100.522534 C222.128259,99.535534 222.187659,98.2311339 222.352359,96.6090338 C222.516759,94.9869338 222.735159,93.2655337 223.007259,91.4448336 C223.279659,89.6241336 223.540359,88.0449335 223.789959,86.7063334 C223.336359,86.7858334 222.326859,86.9616335 220.761459,87.2337335 C220.409859,87.2337335 220.100559,87.1941335 219.834159,87.1146335 C219.567759,87.0354335 219.386259,86.9334335 219.289659,86.8083334 C219.193359,86.6838334 219.212859,86.5560334 219.349359,86.4252334 C219.485259,86.2953334 219.780459,86.1846334 220.234059,86.0937334 L224.062359,85.0728334 C224.402559,82.9626333 224.708859,81.2502332 224.980959,79.9344332 C225.253359,78.6186331 225.446259,77.7849331 225.559659,77.4330331 C225.718359,76.9455331 225.894159,76.627533 226.087059,76.480233" id="Fill-92" fill="#EDEDED"></path>
                <path d="M231.840669,91.9299637 C232.078869,91.9413637 232.314369,91.9242637 232.546869,91.8786637 C232.779069,91.8336636 232.946769,91.7766636 233.048769,91.7088636 C233.275569,91.5498636 233.442669,91.3599636 233.550669,91.1385636 C233.658369,90.9174636 233.712369,90.6876636 233.712369,90.4494636 C233.712369,90.2112636 233.655369,89.9901636 233.542269,89.7861636 C233.383269,89.5365636 233.204469,89.3862636 233.006169,89.3352635 C232.807569,89.2839635 232.597869,89.3181635 232.376769,89.4369636 C232.155369,89.5563636 231.942669,89.7465636 231.738669,90.0072636 C231.579669,90.2112636 231.443469,90.4299636 231.330369,90.6621636 C231.216669,90.8949636 231.148569,91.1106636 231.126069,91.3089636 C231.103269,91.5075636 231.154269,91.6632636 231.279069,91.7766636 C231.415269,91.8675637 231.602469,91.9185637 231.840669,91.9299637 M233.805969,78.3771631 C233.993169,78.4398631 234.140469,78.5532631 234.248169,78.7176631 C234.355869,78.8823631 234.384369,79.0749631 234.333369,79.2963632 C234.282369,79.5174632 234.109269,79.7415632 233.814369,79.9683632 C233.712369,80.0478632 233.581869,80.1498632 233.423169,80.2743632 C233.082969,80.5467632 232.683069,80.8530632 232.223469,81.1932632 C231.764169,81.5337632 231.330369,81.8001633 230.921769,81.9930633 C230.490669,82.1973633 230.195769,82.2906633 230.037069,82.2735633 C229.878069,82.2567633 229.824369,82.1631633 229.875369,81.9930633 C229.926669,81.8229633 230.054169,81.6045632 230.258469,81.3378632 C230.462469,81.0717632 230.706369,80.7822632 230.990169,80.4702632 C231.273369,80.1585632 231.562569,79.8576632 231.857769,79.5684632 C232.152669,79.2792632 232.424769,79.0296631 232.674369,78.8196631 C232.923669,78.6099631 233.116869,78.4710631 233.253069,78.4029631 C233.434269,78.3237631 233.618769,78.3150631 233.805969,78.3771631 M233.678169,92.2020637 C233.360469,92.2929637 233.071569,92.3553637 232.810569,92.3892637 C232.549569,92.4234637 232.288869,92.4462637 232.027869,92.4573637 C231.789669,92.4687637 231.528669,92.4912637 231.245169,92.5251637 C231.165669,92.5251637 231.091869,92.5536637 231.024069,92.6106637 C230.955969,92.6673637 230.904969,92.7633637 230.870769,92.8995637 C230.825469,93.1038637 230.802969,93.3165637 230.802969,93.5376637 C230.802969,93.7590637 230.808369,93.9150637 230.819769,94.0056637 C230.876469,94.4253638 230.975769,94.8480638 231.117669,95.2734638 C231.259269,95.6988638 231.449469,96.0987638 231.687669,96.4728638 C231.948369,96.8700638 232.209369,97.1934639 232.470369,97.4427639 C232.731069,97.6923639 233.045769,97.8852639 233.414769,98.0214639 C233.783169,98.1573639 234.262569,98.2596639 234.852369,98.3274639 C235.147269,98.3502639 235.334469,98.3985639 235.413969,98.4723639 C235.493169,98.5461639 235.490469,98.6250639 235.405269,98.7105639 C235.320369,98.7954639 235.175769,98.8719639 234.971469,98.9400639 C234.551769,99.0873639 234.095169,99.1728639 233.601669,99.1953639 C233.108469,99.2178639 232.662969,99.2067639 232.266069,99.1611639 C231.505869,99.0591639 230.853669,98.8437639 230.309469,98.5146639 C229.764969,98.1858639 229.322469,97.7772639 228.982269,97.2894639 C228.641769,96.8019638 228.395169,96.2628638 228.241869,95.6733638 C228.088869,95.0835638 228.020769,94.4709638 228.037869,93.8355637 C228.054969,93.2001637 228.148269,92.5764637 228.318669,91.9638637 C228.545469,91.1130636 228.877269,90.3957636 229.314069,89.8113636 C229.750569,89.2272635 230.238369,88.7649635 230.777469,88.4247635 C231.315969,88.0845635 231.863469,87.8691635 232.419369,87.7782635 C232.974969,87.6873635 233.493969,87.7101635 233.976069,87.8463635 C234.458169,87.9822635 234.852369,88.2291635 235.158669,88.5861635 C235.464969,88.9437635 235.640769,89.4060636 235.686069,89.9733636 C235.708869,90.3813636 235.635069,90.7332636 235.464969,91.0278636 C235.294869,91.3233636 235.053669,91.5639636 234.741669,91.7511636 C234.429669,91.9383637 234.075369,92.0886637 233.678169,92.2020637" id="Fill-94" fill="#EDEDED"></path>
                <path d="M167.872267,122.901425 L167.872267,126.717425 L169.096867,126.717425 C170.199667,126.717425 170.916967,125.824025 170.916967,124.809125 C170.916967,123.787625 170.199667,122.901425 169.096867,122.901425 L167.872267,122.901425 Z M169.103767,122.441225 C170.436367,122.441225 171.458167,123.463025 171.458167,124.809125 C171.458167,126.155825 170.436367,127.177325 169.103767,127.177325 L167.446267,127.177325 C167.371867,127.177325 167.337967,127.150325 167.337967,127.069025 L167.337967,122.549525 C167.337967,122.468525 167.364967,122.441225 167.446267,122.441225 L169.103767,122.441225 Z" id="Fill-96" fill="#FFFFFF"></path>
                <path d="M174.001297,123.205835 C173.953897,123.246635 173.892997,123.273635 173.825497,123.273635 L173.554897,123.273635 C173.487097,123.273635 173.460097,123.232835 173.534497,123.158435 L174.380197,122.265335 C174.427597,122.211335 174.474997,122.231435 174.515497,122.292335 L174.644197,122.495435 C174.677797,122.549435 174.677797,122.583335 174.623797,122.630735 L174.001297,123.205835 Z M175.212397,125.458835 C175.212397,124.714535 174.644197,124.119335 173.933497,124.119335 C173.229997,124.119335 172.661797,124.714535 172.661797,125.458835 C172.661797,126.202835 173.229997,126.798635 173.933497,126.798635 C174.644197,126.798635 175.212397,126.202835 175.212397,125.458835 L175.212397,125.458835 Z M173.933497,123.659135 C174.921397,123.659135 175.713097,124.470935 175.713097,125.458835 C175.713097,126.446735 174.921397,127.251635 173.933497,127.251635 C172.945897,127.251635 172.154197,126.446735 172.154197,125.458835 C172.154197,124.470935 172.945897,123.659135 173.933497,123.659135 L173.933497,123.659135 Z" id="Fill-98" fill="#FFFFFF"></path>
                <path d="M177.180757,124.450655 C177.322957,124.180055 177.674557,123.658955 178.337557,123.658955 C179.061757,123.658955 179.677357,124.098755 179.677357,125.181455 L179.677357,127.069055 C179.677357,127.150355 179.650057,127.177355 179.575657,127.177355 L179.271457,127.177355 C179.197057,127.177355 179.169757,127.150355 179.169757,127.069055 L179.169757,125.316755 C179.169757,124.511555 178.763857,124.119455 178.215757,124.119455 C177.627157,124.119455 177.248557,124.687655 177.248557,125.364155 L177.248557,127.069055 C177.248557,127.150355 177.221257,127.177355 177.146857,127.177355 L176.842357,127.177355 C176.767957,127.177355 176.740957,127.150355 176.740957,127.069055 L176.740957,125.391155 L176.740957,123.841955 C176.740957,123.760655 176.767957,123.733355 176.842357,123.733355 L177.011557,123.733355 C177.065857,123.733355 177.092857,123.760655 177.126457,123.841955 L177.180757,124.450655 Z" id="Fill-100" fill="#FFFFFF"></path>
                <path d="M183.343777,125.458775 C183.343777,124.782275 182.890477,124.119275 182.186977,124.119275 C181.476277,124.119275 181.029877,124.754975 181.029877,125.452175 C181.029877,126.202775 181.476277,126.798575 182.186977,126.798575 C182.890477,126.798575 183.343777,126.128375 183.343777,125.458775 L183.343777,125.458775 Z M183.337177,122.292275 C183.337177,122.211275 183.364177,122.184275 183.438577,122.184275 L183.743077,122.184275 C183.817477,122.184275 183.844477,122.211275 183.844477,122.292275 L183.844477,127.068875 C183.844477,127.150475 183.817477,127.177475 183.743077,127.177475 L183.587377,127.177475 C183.526477,127.177475 183.499477,127.150475 183.472477,127.068875 L183.418177,126.440075 C183.249277,126.696875 182.883577,127.251875 182.085277,127.251875 C181.138177,127.251875 180.522577,126.433175 180.522577,125.452175 C180.522577,124.464275 181.138177,123.659075 182.085277,123.659075 C182.883577,123.659075 183.255877,124.261475 183.337177,124.450775 L183.337177,122.292275 Z" id="Fill-102" fill="#FFFFFF"></path>
                <path d="M187.761307,125.282975 C187.734307,124.673975 187.294507,124.085375 186.604507,124.085375 C185.907607,124.085375 185.393107,124.673975 185.373007,125.282975 L187.761307,125.282975 Z M188.011507,126.629075 C188.058907,126.689975 188.058907,126.730775 188.011507,126.777875 C187.693507,127.089275 187.145707,127.251575 186.645007,127.251575 C185.623507,127.251575 184.838407,126.446675 184.838407,125.458775 C184.838407,124.470875 185.623507,123.659075 186.611107,123.659075 C187.666507,123.659075 188.282107,124.511675 188.282107,125.526575 C188.282107,125.607575 188.268607,125.634875 188.180707,125.634875 L185.359507,125.634875 C185.406907,126.263975 185.982007,126.805175 186.665407,126.805175 C186.996907,126.805175 187.402807,126.703475 187.727407,126.466775 C187.801807,126.426575 187.829107,126.412775 187.883107,126.473675 L188.011507,126.629075 Z" id="Fill-104" fill="#FFFFFF"></path>
                <path d="M193.599008,125.282975 C193.572008,124.673975 193.132208,124.085375 192.442208,124.085375 C191.745308,124.085375 191.230808,124.673975 191.210708,125.282975 L193.599008,125.282975 Z M193.849208,126.629075 C193.896608,126.689975 193.896608,126.730775 193.849208,126.777875 C193.531208,127.089275 192.983408,127.251575 192.482708,127.251575 C191.461208,127.251575 190.676108,126.446675 190.676108,125.458775 C190.676108,124.470875 191.461208,123.659075 192.448808,123.659075 C193.504208,123.659075 194.119808,124.511675 194.119808,125.526575 C194.119808,125.607575 194.106308,125.634875 194.018408,125.634875 L191.197208,125.634875 C191.244608,126.263975 191.819708,126.805175 192.503108,126.805175 C192.834608,126.805175 193.240508,126.703475 193.565108,126.466775 C193.639508,126.426575 193.666808,126.412775 193.720808,126.473675 L193.849208,126.629075 Z" id="Fill-106" fill="#FFFFFF"></path>
                <path d="M195.553688,124.450655 C195.695888,124.180055 196.047488,123.658955 196.710488,123.658955 C197.434688,123.658955 198.050288,124.098755 198.050288,125.181455 L198.050288,127.069055 C198.050288,127.150355 198.022988,127.177355 197.948588,127.177355 L197.644388,127.177355 C197.569988,127.177355 197.542688,127.150355 197.542688,127.069055 L197.542688,125.316755 C197.542688,124.511555 197.136788,124.119455 196.588688,124.119455 C196.000088,124.119455 195.621488,124.687655 195.621488,125.364155 L195.621488,127.069055 C195.621488,127.150355 195.594188,127.177355 195.519788,127.177355 L195.215288,127.177355 C195.140888,127.177355 195.113888,127.150355 195.113888,127.069055 L195.113888,125.391155 L195.113888,123.841955 C195.113888,123.760655 195.140888,123.733355 195.215288,123.733355 L195.384488,123.733355 C195.438788,123.733355 195.465788,123.760655 195.499388,123.841955 L195.553688,124.450655 Z" id="Fill-108" fill="#FFFFFF"></path>
                <path d="M201.615218,126.412655 C201.669518,126.358655 201.710018,126.372155 201.757418,126.433055 L201.919718,126.602255 C201.973718,126.663155 201.973718,126.696755 201.919718,126.744155 C201.574718,127.089455 201.134918,127.251755 200.668118,127.251755 C199.680218,127.251755 198.895418,126.446555 198.895418,125.458655 C198.895418,124.470755 199.680218,123.658955 200.668118,123.658955 C201.134918,123.658955 201.574718,123.821555 201.919718,124.166555 C201.973718,124.213955 201.973718,124.247555 201.919718,124.308455 L201.757418,124.477955 C201.710018,124.538555 201.669518,124.552355 201.615218,124.498055 C201.385118,124.268255 201.047018,124.119155 200.674718,124.119155 C199.964618,124.119155 199.396118,124.714655 199.396118,125.458655 C199.396118,126.209855 199.964618,126.791855 200.674718,126.791855 C201.047018,126.791855 201.385118,126.643055 201.615218,126.412655" id="Fill-110" fill="#FFFFFF"></path>
                <path d="M205.247888,126.460115 C205.105688,126.730715 204.754088,127.251815 204.091088,127.251815 C203.366888,127.251815 202.751288,126.812015 202.751288,125.729315 L202.751288,123.841715 C202.751288,123.760715 202.778288,123.733415 202.852688,123.733415 L203.157188,123.733415 C203.231588,123.733415 203.258888,123.760715 203.258888,123.841715 L203.258888,125.594015 C203.258888,126.399215 203.664788,126.791615 204.212588,126.791615 C204.801188,126.791615 205.180088,126.223415 205.180088,125.546615 L205.180088,123.841715 C205.180088,123.760715 205.207388,123.733415 205.281788,123.733415 L205.585988,123.733415 C205.660388,123.733415 205.687688,123.760715 205.687688,123.841715 L205.687688,125.519615 L205.687688,127.068815 C205.687688,127.150415 205.660388,127.177415 205.585988,127.177415 L205.416788,127.177415 C205.362788,127.177415 205.335788,127.150415 205.301888,127.068815 L205.247888,126.460115 Z" id="Fill-112" fill="#FFFFFF"></path>
                <path d="M209.638328,125.282975 C209.611328,124.673975 209.171528,124.085375 208.481528,124.085375 C207.784628,124.085375 207.270128,124.673975 207.250028,125.282975 L209.638328,125.282975 Z M209.888528,126.629075 C209.935928,126.689975 209.935928,126.730775 209.888528,126.777875 C209.570528,127.089275 209.022728,127.251575 208.522028,127.251575 C207.500528,127.251575 206.715428,126.446675 206.715428,125.458775 C206.715428,124.470875 207.500528,123.659075 208.488128,123.659075 C209.543528,123.659075 210.159128,124.511675 210.159128,125.526575 C210.159128,125.607575 210.145628,125.634875 210.057728,125.634875 L207.236528,125.634875 C207.283928,126.263975 207.859028,126.805175 208.542428,126.805175 C208.873928,126.805175 209.279828,126.703475 209.604428,126.466775 C209.678828,126.426575 209.706128,126.412775 209.760128,126.473675 L209.888528,126.629075 Z" id="Fill-114" fill="#FFFFFF"></path>
                <path d="M211.593008,124.450655 C211.735208,124.180055 212.086808,123.658955 212.749808,123.658955 C213.474008,123.658955 214.089609,124.098755 214.089609,125.181455 L214.089609,127.069055 C214.089609,127.150355 214.062309,127.177355 213.987909,127.177355 L213.683708,127.177355 C213.609308,127.177355 213.582008,127.150355 213.582008,127.069055 L213.582008,125.316755 C213.582008,124.511555 213.176108,124.119455 212.628008,124.119455 C212.039408,124.119455 211.660808,124.687655 211.660808,125.364155 L211.660808,127.069055 C211.660808,127.150355 211.633508,127.177355 211.559108,127.177355 L211.254608,127.177355 C211.180208,127.177355 211.153208,127.150355 211.153208,127.069055 L211.153208,125.391155 L211.153208,123.841955 C211.153208,123.760655 211.180208,123.733355 211.254608,123.733355 L211.423808,123.733355 C211.478108,123.733355 211.505108,123.760655 211.538708,123.841955 L211.593008,124.450655 Z" id="Fill-116" fill="#FFFFFF"></path>
                <path d="M216.585639,127.251725 C215.692539,127.251725 215.361039,126.690125 215.361039,125.749625 L215.361039,124.153025 L215.029539,124.153025 C214.948239,124.153025 214.921239,124.126025 214.921239,124.045025 L214.921239,123.841925 C214.921239,123.754025 214.948239,123.733325 215.029539,123.733325 L215.361039,123.733325 L215.361039,123.036725 C215.361039,122.955725 215.381139,122.928425 215.462439,122.928425 L215.760339,122.928425 C215.841339,122.928425 215.861739,122.955725 215.861739,123.036725 L215.861739,123.733325 L217.086339,123.733325 C217.160739,123.733325 217.187739,123.754025 217.187739,123.841925 L217.187739,124.045025 C217.187739,124.126025 217.167339,124.153025 217.086339,124.153025 L215.861739,124.153025 L215.861739,125.709125 C215.861739,126.500825 216.098439,126.791825 216.639639,126.791825 C216.829239,126.791825 216.937239,126.778025 217.106439,126.690125 C217.194639,126.643025 217.214739,126.649625 217.242039,126.744425 L217.282539,126.960725 C217.302939,127.028525 217.296039,127.055525 217.235139,127.089425 C216.964539,127.251725 216.673539,127.251725 216.585639,127.251725" id="Fill-118" fill="#FFFFFF"></path>
                <path d="M218.784069,125.404565 L218.784069,127.068965 C218.784069,127.150265 218.757069,127.177265 218.682669,127.177265 L218.377869,127.177265 C218.303469,127.177265 218.276769,127.150265 218.276769,127.068965 L218.276769,123.841865 C218.276769,123.760865 218.303469,123.733565 218.377869,123.733565 L218.547069,123.733565 C218.601369,123.733565 218.628369,123.760865 218.662269,123.841865 L218.743569,124.518365 C218.878569,124.234265 219.189969,123.659165 220.150569,123.659165 C220.245369,123.659165 220.259169,123.686165 220.245369,123.753965 L220.204869,124.058465 C220.184469,124.139465 220.164369,124.159865 220.083069,124.159865 C219.203469,124.159865 218.784069,124.775465 218.784069,125.404565" id="Fill-120" fill="#FFFFFF"></path>
                <path d="M223.729389,125.458775 C223.729389,124.714775 223.160889,124.119275 222.450489,124.119275 C221.746989,124.119275 221.178789,124.714775 221.178789,125.458775 C221.178789,126.202775 221.746989,126.798575 222.450489,126.798575 C223.160889,126.798575 223.729389,126.202775 223.729389,125.458775 M222.450489,123.659075 C223.438389,123.659075 224.230089,124.470875 224.230089,125.458775 C224.230089,126.446675 223.438389,127.251875 222.450489,127.251875 C221.462889,127.251875 220.671189,126.446675 220.671189,125.458775 C220.671189,124.470875 221.462889,123.659075 222.450489,123.659075" id="Fill-122" fill="#FFFFFF"></path>
                <path d="M179.700427,128.447615 C179.700427,128.366315 179.727427,128.339615 179.808727,128.339615 L180.106627,128.339615 C180.187627,128.339615 180.207727,128.366315 180.207727,128.447615 L180.207727,133.224215 C180.207727,133.305515 180.187627,133.332515 180.106627,133.332515 L179.808727,133.332515 C179.727427,133.332515 179.700427,133.305515 179.700427,133.224215 L179.700427,128.447615 Z" id="Fill-124" fill="#FFFFFF"></path>
                <path d="M181.811107,132.283745 C181.811107,132.703145 182.115607,133.007945 182.663707,133.007945 C183.130507,133.007945 183.570307,132.689945 183.786607,132.371945 L183.786607,131.810345 C183.441607,131.668145 183.177907,131.566745 182.792107,131.566745 C182.149507,131.566745 181.811107,131.823845 181.811107,132.283745 M181.655407,130.274645 L181.601407,130.071545 C181.581007,129.997145 181.601407,129.963245 181.682707,129.936245 C181.763707,129.915845 182.325307,129.814445 182.846407,129.814445 C183.982807,129.814445 184.294207,130.321745 184.294207,131.438345 L184.294207,133.224245 C184.294207,133.305545 184.267207,133.332545 184.192507,133.332545 L183.996607,133.332545 C183.942307,133.332545 183.915307,133.305545 183.894907,133.224245 L183.867907,132.764345 C183.685207,133.014845 183.238807,133.406945 182.508007,133.406945 C181.858507,133.406945 181.303807,133.007945 181.303807,132.283745 C181.303807,131.546345 181.858507,131.187845 182.690707,131.187845 C183.049207,131.187845 183.441607,131.282645 183.786607,131.424845 C183.786607,130.572245 183.536407,130.260845 182.826007,130.260845 C182.392807,130.260845 182.041207,130.321745 181.784107,130.369145 C181.696207,130.389545 181.675807,130.355645 181.655407,130.274645" id="Fill-126" fill="#FFFFFF"></path>
                <path d="M187.364797,129.692735 C187.364797,128.745335 187.696297,128.184035 188.589397,128.184035 C188.677297,128.184035 188.941298,128.190635 189.177998,128.312135 C189.238898,128.352935 189.245798,128.373335 189.225398,128.447735 L189.184898,128.664035 C189.157898,128.752235 189.137498,128.759135 189.049598,128.718335 C188.914298,128.664035 188.819498,128.643935 188.643697,128.643935 C188.102197,128.643935 187.865497,128.934935 187.865497,129.726335 L187.865497,129.902135 L189.090098,129.902135 C189.171398,129.902135 189.191498,129.929435 189.191498,130.010735 L189.191498,130.213535 C189.191498,130.301435 189.164498,130.321835 189.090098,130.321835 L187.865497,130.321835 L187.865497,133.224035 C187.865497,133.305635 187.845397,133.332635 187.764097,133.332635 L187.466197,133.332635 C187.385197,133.332635 187.364797,133.305635 187.364797,133.224035 L187.364797,130.321835 L186.864397,130.321835 C186.783097,130.321835 186.756097,130.301435 186.756097,130.213535 L186.756097,130.010735 C186.756097,129.929435 186.783097,129.902135 186.864397,129.902135 L187.364797,129.902135 L187.364797,129.692735 Z" id="Fill-128" fill="#FFFFFF"></path>
                <path d="M190.145348,132.283745 C190.145348,132.703145 190.449848,133.007945 190.997948,133.007945 C191.464748,133.007945 191.904548,132.689945 192.120848,132.371945 L192.120848,131.810345 C191.775848,131.668145 191.512148,131.566745 191.126348,131.566745 C190.483748,131.566745 190.145348,131.823845 190.145348,132.283745 M189.989648,130.274645 L189.935648,130.071545 C189.915248,129.997145 189.935648,129.963245 190.016948,129.936245 C190.097948,129.915845 190.659548,129.814445 191.180648,129.814445 C192.317048,129.814445 192.628448,130.321745 192.628448,131.438345 L192.628448,133.224245 C192.628448,133.305545 192.601448,133.332545 192.526748,133.332545 L192.330848,133.332545 C192.276548,133.332545 192.249548,133.305545 192.229148,133.224245 L192.202148,132.764345 C192.019448,133.014845 191.573048,133.406945 190.842248,133.406945 C190.192748,133.406945 189.638048,133.007945 189.638048,132.283745 C189.638048,131.546345 190.192748,131.187845 191.024948,131.187845 C191.383448,131.187845 191.775848,131.282645 192.120848,131.424845 C192.120848,130.572245 191.870648,130.260845 191.160248,130.260845 C190.727048,130.260845 190.375448,130.321745 190.118348,130.369145 C190.030448,130.389545 190.010048,130.355645 189.989648,130.274645" id="Fill-130" fill="#FFFFFF"></path>
                <path d="M196.186358,132.567935 C196.240658,132.513935 196.281158,132.527435 196.328558,132.588335 L196.490858,132.757535 C196.544858,132.818435 196.544858,132.852035 196.490858,132.899435 C196.145858,133.244735 195.706058,133.407035 195.239258,133.407035 C194.251358,133.407035 193.466558,132.601835 193.466558,131.613935 C193.466558,130.626035 194.251358,129.814235 195.239258,129.814235 C195.706058,129.814235 196.145858,129.976835 196.490858,130.321835 C196.544858,130.369235 196.544858,130.402835 196.490858,130.463735 L196.328558,130.633235 C196.281158,130.693835 196.240658,130.707635 196.186358,130.653335 C195.956258,130.423535 195.618158,130.274435 195.245858,130.274435 C194.535758,130.274435 193.967258,130.869935 193.967258,131.613935 C193.967258,132.365135 194.535758,132.947135 195.245858,132.947135 C195.618158,132.947135 195.956258,132.798335 196.186358,132.567935" id="Fill-132" fill="#FFFFFF"></path>
                <path d="M199.819028,132.615395 C199.676828,132.885995 199.325228,133.407095 198.662228,133.407095 C197.938028,133.407095 197.322428,132.967295 197.322428,131.884595 L197.322428,129.996995 C197.322428,129.915995 197.349428,129.888695 197.423828,129.888695 L197.728328,129.888695 C197.802728,129.888695 197.830028,129.915995 197.830028,129.996995 L197.830028,131.749295 C197.830028,132.554495 198.235928,132.946895 198.783728,132.946895 C199.372328,132.946895 199.751228,132.378695 199.751228,131.701895 L199.751228,129.996995 C199.751228,129.915995 199.778528,129.888695 199.852928,129.888695 L200.157128,129.888695 C200.231528,129.888695 200.258828,129.915995 200.258828,129.996995 L200.258828,131.674895 L200.258828,133.224095 C200.258828,133.305695 200.231528,133.332695 200.157128,133.332695 L199.987928,133.332695 C199.933928,133.332695 199.906928,133.305695 199.873028,133.224095 L199.819028,132.615395 Z" id="Fill-134" fill="#FFFFFF"></path>
                <path d="M201.658718,128.447615 C201.658718,128.366315 201.685718,128.339615 201.767018,128.339615 L202.064918,128.339615 C202.145918,128.339615 202.166018,128.366315 202.166018,128.447615 L202.166018,133.224215 C202.166018,133.305515 202.145918,133.332515 202.064918,133.332515 L201.767018,133.332515 C201.685718,133.332515 201.658718,133.305515 201.658718,133.224215 L201.658718,128.447615 Z" id="Fill-136" fill="#FFFFFF"></path>
                <path d="M204.831728,133.407005 C203.938628,133.407005 203.607128,132.845405 203.607128,131.904905 L203.607128,130.308305 L203.275628,130.308305 C203.194328,130.308305 203.167328,130.281305 203.167328,130.200305 L203.167328,129.997205 C203.167328,129.909305 203.194328,129.888605 203.275628,129.888605 L203.607128,129.888605 L203.607128,129.192005 C203.607128,129.111005 203.627228,129.083705 203.708528,129.083705 L204.006428,129.083705 C204.087428,129.083705 204.107828,129.111005 204.107828,129.192005 L204.107828,129.888605 L205.332428,129.888605 C205.406828,129.888605 205.433828,129.909305 205.433828,129.997205 L205.433828,130.200305 C205.433828,130.281305 205.413428,130.308305 205.332428,130.308305 L204.107828,130.308305 L204.107828,131.864405 C204.107828,132.656105 204.344528,132.947105 204.885728,132.947105 C205.075328,132.947105 205.183328,132.933305 205.352528,132.845405 C205.440728,132.798305 205.460828,132.804905 205.488128,132.899705 L205.528628,133.116005 C205.549028,133.183805 205.542128,133.210805 205.481228,133.244705 C205.210628,133.407005 204.919628,133.407005 204.831728,133.407005" id="Fill-138" fill="#FFFFFF"></path>
                <path d="M206.685038,132.283745 C206.685038,132.703145 206.989538,133.007945 207.537638,133.007945 C208.004438,133.007945 208.444238,132.689945 208.660538,132.371945 L208.660538,131.810345 C208.315538,131.668145 208.051838,131.566745 207.666038,131.566745 C207.023438,131.566745 206.685038,131.823845 206.685038,132.283745 M206.529338,130.274645 L206.475338,130.071545 C206.454938,129.997145 206.475338,129.963245 206.556638,129.936245 C206.637638,129.915845 207.199238,129.814445 207.720338,129.814445 C208.856738,129.814445 209.168138,130.321745 209.168138,131.438345 L209.168138,133.224245 C209.168138,133.305545 209.141138,133.332545 209.066438,133.332545 L208.870538,133.332545 C208.816238,133.332545 208.789238,133.305545 208.768838,133.224245 L208.741838,132.764345 C208.559138,133.014845 208.112738,133.406945 207.381938,133.406945 C206.732438,133.406945 206.177738,133.007945 206.177738,132.283745 C206.177738,131.546345 206.732438,131.187845 207.564638,131.187845 C207.923138,131.187845 208.315538,131.282645 208.660538,131.424845 C208.660538,130.572245 208.410338,130.260845 207.699938,130.260845 C207.266738,130.260845 206.915138,130.321745 206.658038,130.369145 C206.570138,130.389545 206.549738,130.355645 206.529338,130.274645" id="Fill-140" fill="#FFFFFF"></path>
                <path d="M212.827718,131.614025 C212.827718,130.937525 212.374418,130.274525 211.670918,130.274525 C210.960218,130.274525 210.513818,130.910225 210.513818,131.607425 C210.513818,132.358025 210.960218,132.953825 211.670918,132.953825 C212.374418,132.953825 212.827718,132.283625 212.827718,131.614025 L212.827718,131.614025 Z M212.821118,128.447525 C212.821118,128.366525 212.848118,128.339525 212.922518,128.339525 L213.227018,128.339525 C213.301418,128.339525 213.328418,128.366525 213.328418,128.447525 L213.328418,133.224125 C213.328418,133.305725 213.301418,133.332725 213.227018,133.332725 L213.071318,133.332725 C213.010418,133.332725 212.983418,133.305725 212.956418,133.224125 L212.902118,132.595325 C212.733218,132.852125 212.367518,133.407125 211.569218,133.407125 C210.622118,133.407125 210.006518,132.588425 210.006518,131.607425 C210.006518,130.619525 210.622118,129.814325 211.569218,129.814325 C212.367518,129.814325 212.739818,130.416725 212.821118,130.606025 L212.821118,128.447525 Z" id="Fill-142" fill="#FFFFFF"></path>
                <g id="Group-146" transform="translate(0.000000, 48.069002)">
                    <mask id="mask-8" fill="white">
                        <use xlink:href="#path-7"></use>
                    </mask>
                    <g id="Clip-145"></g>
                    <path d="M70.2774628,105.562504 C93.3780637,121.395605 107.924764,71.8524029 107.924764,71.8524029 C91.1931636,131.890805 70.2774628,105.562504 70.2774628,105.562504 M102.662164,41.9157017 L88.5183635,41.9157017 L82.9266633,59.0016023 C82.9266633,59.0016023 79.8972632,65.8929026 70.0641628,65.8929026 C60.2310624,65.8929026 56.7288623,59.9664024 56.7288623,59.9664024 C56.7288623,59.9664024 53.2617621,55.5150022 54.7809622,43.4316017 C56.0604622,33.2499013 55.9476622,21.9441009 50.580362,12.6867005 C45.4680618,3.87090015 34.9362614,-0.790800031 24.863761,0.317700013 C16.1511606,1.27680005 9.68856038,6.28020025 5.72526023,13.8963006 C0.724260029,23.5053009 -0.178740007,34.9626014 0.0264600011,45.6042018 C0.0264600011,45.6042018 2.4171601,28.0050011 18.4956607,21.0516008 C18.4956607,21.0516008 0.895860036,39.5205016 5.24166021,65.1591026 C5.24166021,65.1591026 11.3253605,39.5205016 25.665361,35.1747014 C25.665361,35.1747014 9.36996037,48.2112019 13.7154605,77.3265031 C13.7154605,77.3265031 15.6705606,63.6384025 27.4035611,57.7719023 C27.4035611,57.7719023 18.4956607,74.936703 25.013461,90.3636036 C25.013461,90.3636036 27.4035611,73.6329029 33.0528613,67.9836027 C33.0528613,67.9836027 30.3369612,84.4290034 35.6601614,96.8817038 C35.6601614,96.8817038 36.9768615,82.5558033 42.3672617,75.846903 C44.4882618,102.207904 68.1363627,112.520104 77.1999631,115.522205 C77.7630631,119.744405 79.6578632,125.288105 85.6554634,126.177905 C90.7128636,126.928805 95.2863638,121.718405 97.7895639,118.131305 C124.294865,116.670905 131.084765,94.9890038 131.084765,94.9890038 C139.432866,67.6407027 102.662164,41.9157017 102.662164,41.9157017" id="Fill-144" fill="#EDEDED" mask="url(#mask-8)"></path>
                </g>
                <path d="M85.0356334,87.9382535 C85.0347334,87.9451535 85.0401334,87.9241535 85.0425334,87.9184535 C85.7982334,85.7932534 84.3027333,83.2798533 82.6587333,81.7327532 C81.0102332,80.1811532 78.8805331,79.2685531 76.8951331,78.1792531 C74.910333,77.0896531 72.9408329,75.690153 72.0342329,73.6147529 C71.1276328,71.5396528 71.7258329,68.6725527 73.7976329,67.7590527 C76.195533,66.7012527 79.3275332,68.5744527 81.4785332,67.0771527 C83.0082333,66.0130526 83.1480333,63.8317525 83.0343333,61.9717525 C82.9209333,60.1114524 82.7835333,58.0093523 84.0453333,56.6377523 C85.2309334,55.3489522 87.2592335,55.2268522 88.9461335,55.6975522 C90.6330336,56.1691522 92.1465337,57.1192523 93.7989337,57.7015523 C95.4504338,58.2835523 97.4217339,58.4425523 98.8392339,57.4138523 C100.071034,56.5201522 100.600534,54.9505522 101.626234,53.8270521 C103.453234,51.8263521 106.946134,51.518552 108.851734,53.5717521 C110.132134,54.9517522 110.023234,57.0286523 109.675534,58.7446523 C109.084234,61.6573525 107.687734,64.4845526 106.118134,66.9931527 C106.118134,66.9931527 86.9745335,62.4211525 85.0356334,87.9382535" id="Fill-147" fill="#003093"></path>
                <path d="M106.118104,66.9930327 C106.118104,66.9930327 111.864004,59.8104324 121.714805,58.5789323 C121.714805,58.5789323 111.043204,67.1988327 108.991204,70.6872328 L106.118104,66.9930327 Z" id="Fill-149" fill="#003093"></path>
                <path d="M109.709314,71.0975128 C109.709314,71.0975128 118.328615,70.2770128 123.767315,73.3550129 C123.767315,73.3550129 114.224615,73.2527129 108.170314,76.639113 L109.709314,71.0975128 Z" id="Fill-151" fill="#003093"></path>
                <path d="M101.309614,71.1148228 C101.309614,71.7775229 101.846614,72.3148229 102.509314,72.3148229 C103.172014,72.3148229 103.709014,71.7775229 103.709014,71.1148228 C103.709014,70.4521228 103.172014,69.9151228 102.509314,69.9151228 C101.846614,69.9151228 101.309614,70.4521228 101.309614,71.1148228" id="Fill-153" fill="#EDEDED"></path>
                <path d="M99.926794,71.1148228 C99.926794,69.6883228 101.083294,68.5324227 102.509194,68.5324227 C103.935694,68.5324227 105.092194,69.6883228 105.092194,71.1148228 C105.092194,72.5410229 103.935694,73.6972229 102.509194,73.6972229 C101.083294,73.6972229 99.926794,72.5410229 99.926794,71.1148228 M92.9007937,74.438523 C95.3898938,79.5175232 101.464594,79.4170232 101.464594,79.4170232 C93.3984937,81.3094232 92.9007937,74.438523 92.9007937,74.438523 M89.2986935,107.934424 C91.2111936,107.554924 93.1584937,107.310724 95.0850938,107.159524 C98.8962939,106.858924 102.741994,106.996924 106.521094,107.572324 C110.294194,108.147424 113.744495,109.690024 117.493895,110.247724 C119.679995,110.572924 122.370695,110.706124 124.527095,110.130124 C127.536995,109.326124 129.073595,106.054024 129.146195,103.419424 C126.720095,104.702524 124.564595,104.974624 122.260295,104.852524 C119.848595,104.724124 117.485795,103.981624 115.455095,102.669724 C113.289395,101.269924 111.071794,100.333024 109.180594,98.4541239 C107.364994,96.6502238 105.906394,94.5022238 104.809294,92.1946237 C103.008994,88.4059235 102.874594,84.1882233 105.943594,81.1201232 C113.813495,73.2526229 109.793494,68.7544227 109.793494,68.7544227 C105.731494,62.8870225 96.5748938,67.5061227 96.5748938,67.5061227 C83.0916933,72.9910229 84.7317934,90.3676236 84.7320934,90.3727236 C85.0281934,93.5704237 85.4988934,97.2565239 84.3201934,100.328824 C82.7091933,104.526724 78.7161931,104.884624 74.819793,103.475524 C74.819793,103.475524 76.382193,107.166124 79.1058931,108.454924 C81.6438932,109.655524 83.8230933,109.361824 86.4072934,108.626824 C87.3573935,108.356524 88.3230935,108.127924 89.2986935,107.934424" id="Fill-155" fill="#EDEDED"></path>
                <path d="M123.220445,98.8771239 C122.631845,98.8885239 122.066045,98.5315239 121.776245,98.0260239 C121.325045,97.2415239 121.911545,96.5863238 121.926845,95.7985238 C121.934945,95.3710238 121.829945,94.9432238 121.685645,94.5436238 C121.072145,92.8498237 119.681045,91.4572236 118.363445,90.2905236 C117.517145,89.5423236 116.619845,88.8526235 115.699745,88.1995235 C116.307845,88.6309235 117.187445,88.8652235 117.854645,89.2060235 C119.344445,89.9677236 120.801245,90.8281236 122.112845,91.8706237 C123.222845,92.7535237 124.360745,93.8326237 124.865945,95.1928238 C125.355845,96.5113238 125.025845,98.8435239 123.220445,98.8771239 M125.470745,93.2959237 C123.754145,90.3049236 120.125645,88.2787235 116.923745,87.2299235 C107.658844,84.1945233 109.106944,77.2402231 109.106944,77.2402231 C95.0612438,84.0229233 101.906644,96.4921238 101.908144,96.4954238 C105.740344,103.475224 114.495545,109.026724 122.004545,103.702324 C125.158745,101.466724 127.606145,97.0171239 125.470745,93.2959237" id="Fill-157" fill="#003093"></path>
                <path d="M83.5180533,195.111488 C83.7352533,192.256388 84.7141534,177.455287 82.1845533,171.423187 L88.4431535,172.502287 C88.4431535,172.502287 85.7785534,177.636487 86.6449534,194.292488 C89.0230535,193.452488 94.8688538,191.726888 96.7795538,194.274488 C96.7795538,194.274488 92.6110537,193.736888 89.3842536,195.753788 C89.3842536,195.753788 100.544554,194.947088 100.544554,199.249388 C100.544554,199.249388 94.8973538,197.367788 88.9807535,198.040088 C88.9807535,198.040088 98.1703539,201.956288 95.9728538,205.568888 C95.9728538,205.568888 94.7629538,202.746188 86.6947534,199.517888 C78.6274531,196.291988 78.6274531,200.191088 78.6274531,200.191088 C78.6274531,200.191088 76.362453,196.896488 83.5180533,195.111488" id="Fill-159" fill="#EDEDED"></path>
            </g>
        </g>
    </g>
</svg>