<?xml version="1.0" encoding="UTF-8"?>
<svg width="120px" height="120px" viewBox="0 0 120 120" version="1.1" xmlns="http://www.w3.org/2000/svg" xmlns:xlink="http://www.w3.org/1999/xlink">
    <title>rooster</title>
    <defs>
        <polygon id="path-1" points="0.800320127 1.21467851 20.0356511 1.21467851 20.0356511 17.04 0.800320127 17.04"></polygon>
        <polygon id="path-3" points="0.000320126736 0.414678505 19.2356511 0.414678505 19.2356511 16.24 0.000320126736 16.24"></polygon>
        <polygon id="path-5" points="0.139380808 0.366449807 19.3747118 0.366449807 19.3747118 16.1917713 0.139380808 16.1917713"></polygon>
        <polygon id="path-7" points="6.24374409e-05 0.1518 83.2945854 0.1518 83.2945854 79.5283919 6.24374409e-05 79.5283919"></polygon>
    </defs>
    <g id="Page-1" stroke="none" stroke-width="1" fill="none" fill-rule="evenodd">
        <g id="semestre-francia---1920" transform="translate(-1509.000000, -1883.000000)">
            <g id="block-explora" transform="translate(260.000000, 1883.000000)">
                <g id="rooster" transform="translate(1249.000000, 0.000000)">
                    <g id="Group-7" transform="translate(92.500000, 29.500000) rotate(16.000000) translate(-92.500000, -29.500000) translate(71.000000, 5.000000)">
                        <g id="Group-6" transform="translate(14.000000, 8.960000)">
                            <path d="M19.672184,6.51168 C19.552904,6.57328 19.433064,6.63544 19.314344,6.69816 C14.613704,9.1364 10.213224,12.15088 6.243384,15.65424" id="Fill-1" fill="#FFFFFF" transform="translate(12.957784, 11.082960) rotate(4.000000) translate(-12.957784, -11.082960) "></path>
                            <g id="Group-5" transform="translate(12.500000, 11.645488) rotate(-12.000000) translate(-12.500000, -11.645488) translate(2.000000, 2.145488)">
                                <mask id="mask-2" fill="white">
                                    <use xlink:href="#path-1"></use>
                                </mask>
                                <g id="Clip-4" transform="translate(10.417986, 9.127339) rotate(-6.000000) translate(-10.417986, -9.127339) "></g>
                                <path d="M7.54640703,1.455103 C6.84614629,1.36137382 6.28853971,1.28050516 5.60060428,1.5019676 C4.88208381,1.73280295 4.23683051,2.09202549 3.60641324,2.48677793 C2.49599325,3.18211767 1.52252126,4.340218 0.946198453,5.48916339 C0.422372376,6.53326288 1.38169307,7.82955926 2.62358314,7.45355266 C4.80014326,6.79461472 7.50646387,5.56610851 8.49317417,3.50711816 C8.85174966,2.75881053 8.56005044,1.59111931 7.54640703,1.455103" id="Fill-3" fill="#FFFFFF" mask="url(#mask-2)"></path>
                            </g>
                        </g>
                        <g id="Group-6-Copy-2" transform="translate(13.759544, 13.641362) rotate(-53.000000) translate(-13.759544, -13.641362) translate(3.759544, 4.641362)">
                            <path d="M16.872184,3.71168 C16.752904,3.77328 16.633064,3.83544 16.514344,3.89816 C11.813704,6.3364 7.413224,9.35088 3.443384,12.85424" id="Fill-1" fill="#FFFFFF"></path>
                            <g id="Group-5" transform="translate(0.000000, 0.145488)">
                                <mask id="mask-4" fill="white">
                                    <use xlink:href="#path-3"></use>
                                </mask>
                                <g id="Clip-4"></g>
                                <path d="M6.74640703,0.655103005 C6.04614629,0.561373823 5.48853971,0.480505157 4.80060428,0.701967596 C4.08208381,0.932802953 3.43683051,1.29202549 2.80641324,1.68677793 C1.69599325,2.38211767 0.722521262,3.540218 0.146198453,4.68916339 C-0.377627624,5.73326288 0.581693075,7.02955926 1.82358314,6.65355266 C4.00014326,5.99461472 6.70646387,4.76610851 7.69317417,2.70711816 C8.05174966,1.95881053 7.76005044,0.791119306 6.74640703,0.655103005" id="Fill-3" fill="#FFFFFF" mask="url(#mask-4)"></path>
                            </g>
                        </g>
                        <g id="Group-6-Copy" transform="translate(27.966562, 34.099509) rotate(47.000000) translate(-27.966562, -34.099509) translate(17.466562, 23.599509)">
                            <path d="M17.232184,11.19168 C17.112904,11.25328 16.993064,11.31544 16.874344,11.37816 C12.173704,13.8164 7.773224,16.83088 3.803384,20.33424" id="Fill-1" fill="#FFFFFF"></path>
                            <g id="Group-5" transform="translate(0.018838, 0.521252)">
                                <mask id="mask-6" fill="white">
                                    <use xlink:href="#path-5"></use>
                                </mask>
                                <g id="Clip-4"></g>
                                <path d="M8.71109819,5.64524158 C8.01083745,5.55151239 7.45323086,5.47064373 6.76529544,5.69210617 C6.04677496,5.92294152 5.40152166,6.28216406 4.7711044,6.6769165 C3.66068441,7.37225624 2.68721242,8.53035658 2.11088961,9.67930196 C1.58706353,10.7234015 2.54638423,12.0196978 3.78827429,11.6436912 C5.96483441,10.9847533 8.67115503,9.75624708 9.65786532,7.69725673 C10.0164408,6.9489491 9.72474159,5.78125788 8.71109819,5.64524158" id="Fill-3" fill="#FFFFFF" mask="url(#mask-6)"></path>
                            </g>
                        </g>
                    </g>
                    <g id="Group-18" transform="translate(0.000000, 20.000000)">
                        <g id="Group-3" transform="translate(0.000000, 0.048200)">
                            <mask id="mask-8" fill="white">
                                <use xlink:href="#path-7"></use>
                            </mask>
                            <g id="Clip-2"></g>
                            <path d="M44.23994,66.50508 C58.78174,76.47228 67.93894,45.28448 67.93894,45.28448 C57.40634,83.07888 44.23994,66.50508 44.23994,66.50508 M64.62614,26.43928 L55.72254,26.43928 L52.20254,37.19468 C52.20254,37.19468 50.29574,41.53308 44.10554,41.53308 C37.91554,41.53308 35.71094,37.80208 35.71094,37.80208 C35.71094,37.80208 33.52834,34.99988 34.48474,27.39348 C35.29034,20.98408 35.21914,13.86708 31.84054,8.03968 C28.62234,2.48988 21.99254,-0.44452 15.65174,0.25308 C10.16734,0.85688 6.09894,4.00648 3.60394,8.80088 C0.45594,14.84988 -0.11246,22.06228 0.01674,28.76108 C0.01674,28.76108 1.52174,17.68248 11.64294,13.30528 C11.64294,13.30528 0.56394,24.93148 3.29974,41.07108 C3.29974,41.07108 7.12934,24.93148 16.15654,22.19588 C16.15654,22.19588 5.89834,30.40228 8.63394,48.73048 C8.63394,48.73048 9.86474,40.11388 17.25074,36.42068 C17.25074,36.42068 11.64294,47.22588 15.74614,56.93708 C15.74614,56.93708 17.25074,46.40548 20.80674,42.84928 C20.80674,42.84928 19.09714,53.20148 22.44834,61.04048 C22.44834,61.04048 23.27714,52.02208 26.67034,47.79928 C28.00554,64.39348 42.89214,70.88508 48.59754,72.77488 C48.95214,75.43268 50.14494,78.92228 53.92034,79.48248 C57.10414,79.95508 59.98314,76.67528 61.55874,74.41748 C78.24394,73.49808 82.51834,59.84908 82.51834,59.84908 C87.77334,42.63308 64.62614,26.43928 64.62614,26.43928" id="Fill-1" fill="#003093" mask="url(#mask-8)"></path>
                        </g>
                        <path d="M53.53018,25.19918 C53.52958,25.20358 53.53318,25.19038 53.53438,25.18658 C54.01018,23.84898 53.06878,22.26678 52.03398,21.29298 C50.99618,20.31578 49.65558,19.74138 48.40578,19.05578 C47.15618,18.36998 45.91638,17.48878 45.34578,16.18258 C44.77498,14.87638 45.15158,13.07138 46.45578,12.49618 C47.96538,11.83018 49.93698,13.00958 51.29098,12.06718 C52.25398,11.39698 52.34198,10.02398 52.27038,8.85318 C52.19898,7.68218 52.11238,6.35898 52.90678,5.49538 C53.65318,4.68418 54.92998,4.60718 55.99178,4.90338 C57.05378,5.20018 58.00658,5.79858 59.04678,6.16518 C60.08638,6.53158 61.32718,6.63138 62.21958,5.98398 C62.99498,5.42138 63.32838,4.43338 63.97418,3.72618 C65.12418,2.46678 67.32298,2.27278 68.52238,3.56518 C69.32858,4.43418 69.25998,5.74158 69.04098,6.82178 C68.66878,8.65518 67.78978,10.43498 66.80158,12.01418 C66.80158,12.01418 54.75078,9.13618 53.53018,25.19918" id="Fill-4" fill="#FFFFFF"></path>
                        <path d="M66.80166,12.01422 C66.80166,12.01422 70.41886,7.49262 76.61986,6.71742 C76.61986,6.71742 69.90206,12.14342 68.61026,14.33982 L66.80166,12.01422 Z" id="Fill-6" fill="#FFFFFF"></path>
                        <path d="M69.0624,14.598 C69.0624,14.598 74.4882,14.0812 77.912,16.019 C77.912,16.019 71.9046,15.9544 68.0934,18.0862 L69.0624,14.598 Z" id="Fill-8" fill="#FFFFFF"></path>
                        <path d="M63.7747,14.60874 C63.7747,15.02594 64.1127,15.36414 64.5299,15.36414 C64.9471,15.36414 65.2851,15.02594 65.2851,14.60874 C65.2851,14.19154 64.9471,13.85374 64.5299,13.85374 C64.1127,13.85374 63.7747,14.19154 63.7747,14.60874" id="Fill-10" fill="#003093"></path>
                        <path d="M62.9042,14.60874 C62.9042,13.71094 63.6324,12.98314 64.53,12.98314 C65.4278,12.98314 66.1558,13.71094 66.1558,14.60874 C66.1558,15.50654 65.4278,16.23454 64.53,16.23454 C63.6324,16.23454 62.9042,15.50654 62.9042,14.60874 M58.4812,16.70114 C60.0484,19.89834 63.8724,19.83514 63.8724,19.83514 C58.7948,21.02654 58.4812,16.70114 58.4812,16.70114 M56.2138,37.78674 C57.4178,37.54774 58.6436,37.39434 59.8564,37.29894 C62.2556,37.10994 64.6764,37.19674 67.0554,37.55894 C69.4304,37.92114 71.6024,38.89214 73.9628,39.24294 C75.339,39.44754 77.0328,39.53134 78.3902,39.16914 C80.285,38.66294 81.2522,36.60314 81.298,34.94454 C79.7706,35.75234 78.4138,35.92354 76.9634,35.84674 C75.445,35.76594 73.9576,35.29834 72.6794,34.47234 C71.3162,33.59134 69.92,33.00174 68.7294,31.81894 C67.5866,30.68354 66.6684,29.33114 65.9778,27.87854 C64.8444,25.49354 64.7598,22.83854 66.6918,20.90714 C71.646,15.95454 69.1152,13.12294 69.1152,13.12294 C66.5582,9.42954 60.7942,12.33714 60.7942,12.33714 C52.3064,15.78974 53.339,26.72854 53.3392,26.73174 C53.5256,28.74454 53.822,31.06474 53.0798,32.99914 C52.0658,35.64174 49.552,35.86714 47.0994,34.97994 C47.0994,34.97994 48.0828,37.30334 49.7974,38.11434 C51.3952,38.87034 52.767,38.68554 54.3936,38.22274 C54.9916,38.05234 55.5998,37.90854 56.2138,37.78674" id="Fill-12" fill="#003093"></path>
                        <path d="M77.56768,32.0853 C77.19708,32.0925 76.84088,31.8675 76.65848,31.5495 C76.37448,31.0557 76.74368,30.6431 76.75348,30.1475 C76.75848,29.8783 76.69228,29.6087 76.60148,29.3571 C76.21528,28.2911 75.33968,27.4145 74.51008,26.6799 C73.97748,26.2089 73.41268,25.7747 72.83328,25.3637 C73.21608,25.6351 73.76988,25.7825 74.18988,25.9973 C75.12768,26.4765 76.04468,27.0183 76.87028,27.6745 C77.56928,28.2305 78.28548,28.9097 78.60368,29.7657 C78.91188,30.5959 78.70428,32.0639 77.56768,32.0853 M78.98428,28.5719 C77.90368,26.6889 75.61948,25.4135 73.60388,24.7533 C67.77168,22.8425 68.68308,18.4645 68.68308,18.4645 C59.84148,22.7345 64.15048,30.5837 64.15148,30.5857 C66.56388,34.9799 72.07528,38.4745 76.80248,35.1227 C78.78788,33.7151 80.32848,30.9143 78.98428,28.5719" id="Fill-14" fill="#FFFFFF"></path>
                        <path d="M52.5749,92.665 C52.7117,90.8678 53.3277,81.5504 51.7355,77.7532 L55.6753,78.4326 C55.6753,78.4326 53.9977,81.6644 54.5433,92.1494 C56.0403,91.6206 59.7203,90.5346 60.9231,92.1382 C60.9231,92.1382 58.2989,91.7998 56.2675,93.0692 C56.2675,93.0692 63.2931,92.5614 63.2931,95.2698 C63.2931,95.2698 59.7381,94.0852 56.0137,94.5086 C56.0137,94.5086 61.7985,96.974 60.4153,99.2482 C60.4153,99.2482 59.6535,97.471 54.5747,95.439 C49.4963,93.408 49.4963,95.8626 49.4963,95.8626 C49.4963,95.8626 48.0705,93.7888 52.5749,92.665" id="Fill-16" fill="#003093"></path>
                    </g>
                </g>
            </g>
        </g>
    </g>
</svg>