<?xml version="1.0" encoding="UTF-8"?>
<svg width="316px" height="272px" viewBox="0 0 316 272" version="1.1" xmlns="http://www.w3.org/2000/svg" xmlns:xlink="http://www.w3.org/1999/xlink">
    <title>globe</title>
    <g id="Page-1" stroke="none" stroke-width="1" fill="none" fill-rule="evenodd">
        <g id="semestre-francia---1920" transform="translate(-626.000000, -1617.000000)">
            <g id="block-tabs" transform="translate(595.000000, 1292.000000)">
                <g id="globe" transform="translate(32.000000, 326.000000)">
                    <g id="Group-17" transform="translate(291.500000, 243.500000) scale(-1, 1) translate(-291.500000, -243.500000) translate(269.000000, 217.000000)">
                        <path d="M23.42583,35.1354 C31.12603,40.4131 35.97493,23.8987 35.97493,23.8987 C30.39773,43.9115 23.42583,35.1354 23.42583,35.1354 M34.22073,13.9198 L29.50613,13.9198 L27.64223,19.6151 C27.64223,19.6151 26.63243,21.9122 23.35473,21.9122 C20.07703,21.9122 18.90963,19.9367 18.90963,19.9367 C18.90963,19.9367 17.75393,18.4529 18.26033,14.4251 C18.68683,11.0312 18.64923,7.2626 16.86013,4.1768 C15.15603,1.2382 11.64543,-0.3157 8.28793,0.0538 C5.38373,0.3735 3.22953,2.0413 1.90843,4.58 C0.24143,7.783 -0.05957,11.6021 0.00883,15.1493 C0.00883,15.1493 0.80573,9.2829 6.16523,6.9651 C6.16523,6.9651 0.29863,13.1214 1.74723,21.6676 C1.74723,21.6676 3.77513,13.1214 8.55513,11.6728 C8.55513,11.6728 3.12333,16.0183 4.57183,25.7234 C4.57183,25.7234 5.22353,21.1607 9.13453,19.2052 C9.13453,19.2052 6.16523,24.9268 8.33783,30.0691 C8.33783,30.0691 9.13453,24.4922 11.01763,22.6091 C11.01763,22.6091 10.11233,28.0909 11.88673,32.2418 C11.88673,32.2418 12.32563,27.4665 14.12243,25.2302 C14.82943,34.0172 22.71213,37.4546 25.73333,38.4553 C25.92103,39.8627 26.55263,41.7106 28.55183,42.0072 C30.23763,42.2575 31.76213,40.5207 32.59653,39.325 C41.43163,38.8382 43.69493,31.6109 43.69493,31.6109 C46.47763,22.4948 34.22073,13.9198 34.22073,13.9198" id="Fill-1" fill="#FFFFFF"></path>
                        <path d="M28.34521,13.23765 C28.34491,13.23995 28.34671,13.23295 28.34751,13.23105 C28.59941,12.52265 28.10091,11.68485 27.55291,11.16915 C27.00341,10.65195 26.29351,10.34775 25.63171,9.98465 C24.97011,9.62145 24.31361,9.15495 24.01141,8.46315 C23.70921,7.77145 23.90861,6.81575 24.59921,6.51125 C25.39851,6.15865 26.44251,6.78305 27.15951,6.28395 C27.66941,5.92925 27.71601,5.20215 27.67811,4.58215 C27.64031,3.96205 27.59451,3.26135 28.01511,2.80415 C28.41031,2.37455 29.08641,2.33385 29.64871,2.49075 C30.21101,2.64795 30.71551,2.96465 31.26631,3.15875 C31.81681,3.35275 32.47391,3.40575 32.94641,3.06285 C33.35701,2.76495 33.53351,2.24175 33.87541,1.86725 C34.48441,1.20035 35.64871,1.09775 36.28391,1.78215 C36.71071,2.24215 36.67441,2.93445 36.55851,3.50645 C36.36141,4.47735 35.89591,5.41975 35.37271,6.25595 C35.37271,6.25595 28.99151,4.73195 28.34521,13.23765" id="Fill-3" fill="#003093"></path>
                        <path d="M35.37271,6.25591 C35.37271,6.25591 37.28801,3.86171 40.57161,3.45121 C40.57161,3.45121 37.01441,6.32451 36.33041,7.48731 L35.37271,6.25591 Z" id="Fill-5" fill="#003093"></path>
                        <path d="M36.56978,7.62407 C36.56978,7.62407 39.44288,7.35057 41.25578,8.37657 C41.25578,8.37657 38.07488,8.34247 36.05678,9.47127 L36.56978,7.62407 Z" id="Fill-7" fill="#003093"></path>
                        <path d="M33.76987,7.62983 C33.76987,7.85073 33.94887,8.02983 34.16977,8.02983 C34.39067,8.02983 34.56967,7.85073 34.56967,7.62983 C34.56967,7.40893 34.39067,7.22993 34.16977,7.22993 C33.94887,7.22993 33.76987,7.40893 33.76987,7.62983" id="Fill-9" fill="#EDEDED"></path>
                        <path d="M33.30894,7.62983 C33.30894,7.15433 33.69444,6.76903 34.16974,6.76903 C34.64524,6.76903 35.03074,7.15433 35.03074,7.62983 C35.03074,8.10523 34.64524,8.49063 34.16974,8.49063 C33.69444,8.49063 33.30894,8.10523 33.30894,7.62983 M30.96694,8.73773 C31.79664,10.43073 33.82154,10.39723 33.82154,10.39723 C31.13284,11.02803 30.96694,8.73773 30.96694,8.73773 M29.76624,19.90303 C30.40374,19.77653 31.05284,19.69513 31.69504,19.64473 C32.96544,19.54453 34.24734,19.59053 35.50704,19.78233 C36.76474,19.97403 37.91484,20.48823 39.16464,20.67413 C39.89334,20.78253 40.79024,20.82693 41.50904,20.63493 C42.51234,20.36693 43.02454,19.27623 43.04874,18.39803 C42.24004,18.82573 41.52154,18.91643 40.75344,18.87573 C39.94954,18.83293 39.16194,18.58543 38.48504,18.14813 C37.76314,17.68153 37.02394,17.36923 36.39354,16.74293 C35.78834,16.14163 35.30214,15.42563 34.93644,14.65643 C34.33634,13.39353 34.29154,11.98763 35.31454,10.96493 C37.93784,8.34243 36.59784,6.84303 36.59784,6.84303 C35.24384,4.88723 32.19164,6.42693 32.19164,6.42693 C27.69724,8.25523 28.24394,14.04743 28.24404,14.04913 C28.34274,15.11503 28.49964,16.34373 28.10674,17.36783 C27.56974,18.76713 26.23874,18.88643 24.93994,18.41673 C24.93994,18.41673 25.46074,19.64693 26.36864,20.07653 C27.21464,20.47673 27.94104,20.37883 28.80244,20.13383 C29.11914,20.04373 29.44104,19.96753 29.76624,19.90303" id="Fill-11" fill="#EDEDED"></path>
                        <path d="M41.07349,16.88394 C40.87729,16.88774 40.68869,16.76874 40.59209,16.60024 C40.44169,16.33874 40.63719,16.12034 40.64229,15.85774 C40.64499,15.71524 40.60999,15.57264 40.56189,15.43944 C40.35739,14.87484 39.89369,14.41064 39.45449,14.02174 C39.17239,13.77234 38.87329,13.54244 38.56659,13.32474 C38.76929,13.46854 39.06249,13.54664 39.28489,13.66024 C39.78149,13.91414 40.26709,14.20094 40.70429,14.54844 C41.07429,14.84274 41.45359,15.20244 41.62199,15.65584 C41.78529,16.09534 41.67529,16.87274 41.07349,16.88394 M41.82359,15.02354 C41.25139,14.02654 40.04189,13.35114 38.97459,13.00154 C35.88629,11.98974 36.36899,9.67164 36.36899,9.67164 C31.68709,11.93254 33.96889,16.08894 33.96939,16.09004 C35.24679,18.41664 38.16519,20.26714 40.66819,18.49234 C41.71959,17.74714 42.53539,16.26394 41.82359,15.02354" id="Fill-13" fill="#003093"></path>
                        <path d="M27.83936,48.96206 C27.91176,48.01036 28.23806,43.07666 27.39486,41.06596 L29.48106,41.42566 C29.48106,41.42566 28.59286,43.13706 28.88166,48.68906 C29.67436,48.40906 31.62296,47.83386 32.25986,48.68306 C32.25986,48.68306 30.87036,48.50386 29.79476,49.17616 C29.79476,49.17616 33.51486,48.90726 33.51486,50.34136 C33.51486,50.34136 31.63246,49.71416 29.66026,49.93826 C29.66026,49.93826 32.72346,51.24366 31.99096,52.44786 C31.99096,52.44786 31.58766,51.50696 28.89826,50.43086 C26.20916,49.35556 26.20916,50.65526 26.20916,50.65526 C26.20916,50.65526 25.45416,49.55706 27.83936,48.96206" id="Fill-15" fill="#EDEDED"></path>
                    </g>
                    <path d="M173.539231,0.309243209 C174.539118,0.444887111 174.987908,0.584264332 175.181818,0.723641552 C174.353833,0.773419131 173.525847,0.859285455 172.69697,0.935196263 L173.539231,0.309243209 Z M192.095147,0.167377109 L195.060606,1.07706236 C193.831362,0.937685142 192.60321,0.815730073 191.373603,0.712441597 C191.203036,0.487198053 191.599085,0.266932267 192.095147,0.167377109 L192.095147,0.167377109 Z M106.848485,5.0891833 C106.043518,5.43015971 105.225088,5.79478048 104.3978,6.164379 C104.318437,6.01380182 104.391777,5.77735832 104.47114,5.58322577 C105.988956,5.05309455 106.646889,4.95602827 106.848485,5.0891833 L106.848485,5.0891833 Z M283.640485,123.199508 C283.757273,123.48196 283.937424,123.694736 284.147394,124.443947 L284.132485,124.443947 C283.887727,123.694736 283.746091,123.458984 283.640485,123.199508 L283.640485,123.199508 Z M284.773032,128.244984 C285.137313,129.139893 285.480919,129.985727 285.757576,130.666144 C285.263335,129.836576 284.640118,128.523988 284.642087,128.83194 C284.412689,128.271726 284.51705,128.054202 284.773032,128.244984 L284.773032,128.244984 Z M161.055851,0.514477376 C160.826066,0.448381111 164.143259,0.229858765 161.455304,0.311467419 C161.929236,0.443322723 159.847808,0.486150405 159.721894,0.556967832 C156.797474,0.520547441 155.430451,0.851365993 153.362048,0.860471091 C153.847002,0.87834406 152.159015,1.06179492 151.048831,1.19668526 C151.388833,1.36192592 147.844861,1.50895639 152.101903,1.46444257 C147.719614,1.49985129 144.407432,2.16823291 141.137332,2.06166954 L142.24451,1.89744056 C142.24451,1.89744056 141.154699,2.02828418 140.06422,2.15980226 C139.802038,2.18981536 139.539521,2.22185182 139.295374,2.25051601 C139.037868,2.26940066 138.798397,2.2855875 138.591991,2.30143712 C138.18185,2.33077576 137.906642,2.34864873 137.906642,2.34864873 L138.094345,2.3351597 C136.198949,2.46330552 135.89936,2.42857126 133.356023,2.75466865 C134.458525,2.72465555 136.039302,2.68385122 137.14147,2.65586148 C134.806543,2.94115454 132.272558,2.76242484 129.681461,2.88483782 C129.807709,3.01669313 132.386115,2.7944613 131.631631,3.00016906 C129.79101,3.12527985 128.207227,3.0750332 126.4992,3.16608418 L126.746019,3.22442425 C122.20208,3.7339725 124.937795,2.97622603 121.6196,3.49251879 C121.721133,3.43991156 121.29229,3.42439917 121.496024,3.36437297 C120.260927,3.54006764 117.375584,3.92821458 120.255917,3.77781186 C118.673137,3.90730658 116.866917,4.00206704 116.049308,3.99599698 C117.380594,3.76027611 117.717924,3.78354469 118.209892,3.59840771 C118.209892,3.59840771 116.611414,3.72554185 115.011934,3.85166431 C113.414792,3.99161304 111.816982,4.13223622 111.816982,4.13223622 C111.10458,4.20406532 112.3517,4.15246977 113.248465,4.06310492 C105.810498,5.21911511 98.0592491,5.47540675 89.7856387,7.46436477 C90.7037784,7.17704835 89.1553988,7.46166696 88.3371224,7.52675155 C85.6391479,8.07710412 81.5517733,8.88105053 79.088928,9.53998983 L79.8985208,9.43679872 C73.4902469,10.7853649 69.099609,11.8968612 64.9858492,13.237334 C64.7727633,13.2653237 65.0549852,13.3438973 65.8071316,13.1341429 C62.695009,13.9030178 59.2645935,15.6640111 58.3250785,15.6380447 C58.3250785,15.6380447 58.5972807,15.526423 58.8744927,15.4269414 C59.1503688,15.3250992 59.4252429,15.223257 59.4252429,15.223257 C53.4995851,17.3693622 46.961055,19.9069867 41.2568328,23.1160278 C40.6456304,23.5857834 41.4619029,23.1170395 42.3012208,22.6432372 C43.1629161,22.2075414 44.0463207,21.7647638 43.5099321,22.1751677 C39.5735212,24.3769152 35.5576205,26.6319444 31.7033713,29.6973273 C32.3630023,29.241398 32.2297401,29.3692066 32.547365,29.1516959 C31.5691071,29.8848249 31.153957,30.2878098 30.9538968,30.4274213 C30.7605163,30.5737773 30.8126189,30.494192 30.8817549,30.3963965 C31.0186909,30.2011428 31.2227591,29.9333854 29.6483283,31.2671136 C29.8831236,31.1979823 29.7448515,31.3456873 28.7291867,32.2612554 C28.7134892,32.242708 27.7335613,32.9694297 27.7335613,32.9694297 C27.605309,33.1265769 27.7148578,33.1936849 28.1867863,32.808573 C27.8224028,33.0850982 27.3063876,33.5376552 26.7195664,34.0735071 C26.1357512,34.6110451 25.4597546,35.2109699 24.8789453,35.8867705 C23.6739079,37.1958812 22.4985957,38.4665482 22.0203214,39.0131912 C21.8359587,39.3365908 22.6028007,38.6354983 22.3192428,39.1325692 C21.6823231,40.014752 21.1212193,40.7411365 20.6005282,41.3872612 C20.1239239,42.0650851 19.6994221,42.6687194 19.2792622,43.2656091 L19.285274,43.2578529 C18.4773512,44.5686498 16.8625076,47.930117 17.2212133,47.2216055 C16.3341348,48.9586558 16.3478284,49.1383972 16.2599889,49.1424439 C16.2185741,49.1647008 16.1130331,49.0406017 15.5836583,50.4411006 C15.5836583,50.4411006 15.7907324,49.6867264 16.0873159,48.9502252 C16.2235839,48.5772534 16.362524,48.2069794 16.499794,47.9483272 C16.6270444,47.6842793 16.710542,47.5079102 16.710542,47.5079102 C16.710542,47.5079102 16.5498926,47.8144485 16.3090855,48.2747618 C16.1137011,48.7590181 15.8144457,49.4004217 15.5916741,50.0576748 C15.1174077,51.3691461 14.7690557,52.7048977 14.7690557,52.7048977 C14.7690557,52.7048977 14.9387229,52.1835465 15.1060521,51.660172 C15.2720453,51.1381464 15.4821252,50.6279237 15.4821252,50.6279237 C14.7750676,53.0640432 14.0589921,55.5625495 13.5453149,58.4515633 C13.5453149,58.4515633 13.57504,58.1156863 13.6034292,57.7798094 C13.6381642,57.4449441 13.6715633,57.10873 13.6715633,57.10873 C13.6715633,57.10873 13.4982222,57.9292004 13.3405788,58.7523687 C13.1735836,59.5735136 13.0296337,60.3976936 13.0296337,60.3976936 C13.122149,60.5791211 12.9745253,61.6383475 12.8726582,62.4308282 C12.7831488,63.2243206 12.7370581,63.7503929 12.9932287,62.8614656 C12.3028706,68.879598 11.663279,72.7796149 11.2260855,78.2099626 C11.2698383,77.7466143 11.2935516,77.9691834 11.3366363,77.8079894 C11.1522736,81.0925691 10.9128025,83.0623053 10.6800112,85.0249597 C10.7735285,84.6273704 10.8429985,83.8429831 10.9077927,83.8332035 C10.7017206,87.7210803 10.6315826,86.1880516 10.3643903,90.4775643 C10.5183598,89.2955877 10.5527609,89.669234 10.5243717,90.8410938 C10.443212,90.6559568 10.339675,91.6433541 10.2872385,92.4317881 C10.8703857,89.2662491 10.3139577,97.0055822 10.7294418,95.3029289 C10.6011895,96.0181849 10.267867,101.453254 10.1269231,100.388295 C9.81697999,106.466116 9.9001436,112.850138 9.82599773,119.685032 C9.87342437,119.09084 9.9455663,116.33503 9.99165697,118.092989 C10.1032098,124.880333 9.92686283,128.830934 10.0541132,135.683026 C10.3496947,135.981808 9.85672485,128.273162 10.1553123,128.006754 C10.199065,131.614733 10.2718749,135.274308 10.3931134,139.036737 C10.4679273,140.917108 10.5420732,142.823446 10.617889,144.760808 L10.6335865,145.122989 C10.6295786,145.150979 10.6426043,145.185038 10.6249028,145.212691 C10.6406003,145.175596 10.4619155,145.468645 10.339675,145.665585 C10.0815004,146.087792 9.8199859,146.512359 9.55880541,146.937938 C9.0471321,147.796178 8.4693287,148.632161 8.02278353,149.547392 C7.07425078,152.228674 4.39765167,156.637565 3.24638674,161.572528 C3.23970693,161.321969 3.05501024,161.795097 2.77880017,162.66143 C2.645538,163.095103 2.48522261,163.627245 2.3078737,164.211658 C2.12818686,164.798093 1.94749805,165.442532 1.81857776,166.113611 C2.13219475,165.224347 1.53168,168.038159 1.78384276,167.27468 C0.968572176,169.548931 0.151965635,176.420245 0.514011234,176.173733 C0.367055456,176.472852 0.193380445,177.747228 0.163989289,179.19359 C0.140943951,180.642312 0.0901774095,182.255264 0,183.236253 C0.114892699,184.740955 0.0901774095,186.356267 0.206406071,188.06263 C0.369059398,189.76326 0.42015993,191.577535 0.79890505,193.433626 C0.426171757,192.140702 1.24077436,197.167728 1.56107116,198.527085 C1.48892923,198.141636 1.34631532,197.361295 1.41144345,197.544746 C1.60549188,198.085319 1.80288021,199.156011 2.02064195,200.352826 C2.27814856,201.540198 2.62215867,202.840878 2.94946927,203.859637 C3.27978578,204.769472 3.02528509,203.587833 3.49387363,205.08579 C3.46615243,205.103663 3.55900176,205.45775 3.72365903,206.011138 C3.88898428,206.565537 4.12878939,207.317551 4.39898763,208.128916 C4.64747649,208.949387 5.00751815,209.796835 5.3505263,210.566722 C5.68752262,211.338295 6.00748542,212.02927 6.25163241,212.504084 C5.86119763,211.597959 5.91263215,211.557491 5.7192517,210.985894 C5.95872282,211.569969 6.19752596,212.156742 6.43733108,212.745875 L6.62035782,213.187304 C6.7289047,213.381546 6.83845355,213.605127 7.01580246,213.774751 C7.34444902,214.132885 7.79867597,214.375688 8.24254922,214.458308 C9.13597355,214.633666 10.0203801,214.421213 10.7331157,213.831743 C11.0901514,213.543414 11.3743773,213.089171 11.4749084,212.602217 C11.5437104,212.359414 11.5203311,212.107844 11.5153212,211.877182 L11.4855961,211.417543 C11.2715082,208.974341 11.5437104,206.4728 12.2861711,204.094684 C13.7664165,199.317879 17.1681088,195.181805 21.2621632,192.382493 C21.2621632,192.382493 20.8774063,192.60776 20.4953212,192.833701 C20.3026088,192.947346 20.1092283,193.061328 19.9646105,193.144623 C19.8243345,193.237698 19.7318192,193.299073 19.7318192,193.299073 C22.0904594,191.231204 23.1395233,190.899374 23.9203928,190.540902 C24.1184492,190.453561 24.3175074,190.386453 24.5359372,190.310914 C24.6431481,190.271796 24.7563708,190.231329 24.8769414,190.18749 C24.9370596,190.164558 24.9991819,190.140615 25.063308,190.116672 L25.1618352,190.077891 C25.1892224,190.0671 25.1765308,190.077217 25.1855485,190.074856 C25.20325,190.088683 25.2112658,190.094753 25.2149397,190.096776 C25.1992421,190.090706 25.1828766,190.128475 26.002823,191.052811 C28.4149017,193.664625 31.1619728,195.990472 34.0716972,198.066772 C36.9911074,200.133292 40.065823,201.96544 43.1746057,203.682256 C46.2853924,205.398736 49.4369258,207.000221 52.5677519,208.562589 C55.6942361,210.118886 58.794335,211.670125 61.9518803,213.053425 C62.8600002,213.491144 61.3837626,212.899313 61.1893802,212.914488 C62.309584,213.346475 62.6903331,213.31545 64.1505392,214.033741 L63.771794,213.999007 C66.7516564,215.018103 71.0233937,216.541352 75.2106314,217.667012 C79.3878494,218.822348 83.4548506,219.572675 85.7764179,219.765906 C91.6640008,220.944173 95.8949912,221.167079 103.107514,222.082647 C105.401026,222.187862 100.469992,221.654033 103.560405,221.903243 C103.560405,221.903243 105.234365,222.077252 106.909995,222.250923 C108.586627,222.409756 110.263592,222.567241 110.263592,222.567241 L109.900879,222.526436 C116.362925,223.292276 127.042602,223.086569 135.175937,223.548568 L134.827919,223.521253 C134.642554,223.442005 136.323194,223.393107 137.638782,223.452459 C138.096683,223.517543 137.210606,223.524288 136.420719,223.569813 C143.673655,223.8777 145.265787,223.902992 151.005746,223.981566 C148.529207,223.846676 153.305938,223.902992 153.553091,223.737077 C155.06373,223.846676 152.684716,223.900295 156.044993,223.999105 C160.828738,224.014277 165.233403,223.833187 169.198537,223.714483 C170.810041,223.827116 172.921863,223.74888 173.030409,223.921203 C178.432704,223.802836 181.439954,223.794068 188.070999,223.519567 L188.237661,223.451784 C190.031857,223.593419 193.978288,223.050485 195.220732,223.095336 C195.031693,223.032275 194.323634,223.03902 194.495973,222.968877 L197.511906,222.840731 C196.084431,222.871081 195.260143,222.717643 197.733008,222.530146 C200.317426,222.501144 197.032296,222.685607 198.295114,222.722702 L199.055276,222.46034 C200.99743,222.33152 201.564212,222.515645 199.192546,222.76553 C205.81758,222.271156 212.361454,221.637509 218.214301,220.647077 L217.5697,220.614029 C219.197569,220.396518 221.097307,220.057943 222.831385,219.734544 C224.558115,219.377422 226.120856,219.042893 227.057699,218.76367 C227.152219,218.782555 227.9558,218.670933 227.453812,218.831453 C230.890907,218.187352 228.504546,218.482761 230.914287,217.940165 C230.213575,218.091242 229.599032,218.218376 229.471448,218.187352 C229.471448,218.187352 229.96208,218.09023 230.691181,217.911838 C231.42095,217.739853 232.393864,217.508853 233.367112,217.279877 C234.334014,217.022573 235.301251,216.765607 236.027012,216.571028 C236.753775,216.384879 237.232717,216.235488 237.232717,216.235488 C237.257098,216.175462 238.410367,215.720882 239.960417,215.161087 C241.50078,214.573302 243.422561,213.84051 245.001668,213.237888 C245.145284,213.240923 244.271565,213.670886 243.47433,214.000693 L245.505659,213.243621 C245.505659,213.243621 245.870711,213.034878 246.235762,212.828496 C246.60215,212.62616 246.955178,212.395498 246.955178,212.395498 C246.955178,212.395498 247.691961,212.125717 248.428075,211.853576 C248.798137,211.718011 249.166862,211.581097 249.443406,211.480267 C249.72162,211.380111 249.901975,211.302211 249.901975,211.302211 L249.86891,211.105272 C251.952342,210.121247 252.900541,209.952296 254.52507,209.020204 C256.060758,208.176802 257.067739,207.47571 257.853953,206.981674 C258.638496,206.48865 259.148165,206.110957 259.60306,205.766312 C260.510178,205.07736 261.239947,204.573207 263.145363,202.995327 C263.310354,202.979815 263.79965,202.692161 264.425548,202.215661 C265.040758,201.728707 265.811942,201.078873 266.596486,200.412852 C268.117478,199.023819 269.659846,197.536653 270.167845,197.150866 C272.417604,194.72284 274.981983,191.584616 277.342961,188.007325 C279.705943,184.44015 281.848825,180.391416 283.246909,176.314693 L282.990739,176.970597 C284.004733,173.442203 284.624286,173.086093 285.427533,169.187762 L285.175704,170.148519 C285.613565,167.638209 286.241133,164.193447 286.526695,160.73958 C286.83263,157.291446 286.983594,153.86051 286.988938,151.452718 C286.952199,152.438429 286.82261,151.940346 286.803573,150.390794 C286.843986,149.080671 287.109508,151.658763 286.948859,148.93499 C286.944517,149.60843 286.837306,149.080671 286.805577,148.461187 L286.858013,145.783951 C286.574456,142.299397 286.152292,138.526177 285.709086,134.7307 C285.270891,130.9332 284.787941,127.120524 284.528096,123.538849 C284.34173,122.216249 284.363439,123.194878 284.328036,123.514231 C283.84876,117.829952 283.727855,112.158825 283.746225,107.023213 L283.530801,106.501862 C283.542157,103.98211 283.852434,104.94489 283.733199,101.668741 C283.722512,100.936624 283.662059,103.831708 283.566538,104.730415 C283.514436,102.198523 283.600605,101.453254 283.693788,100.739009 C283.78931,100.022405 283.894183,99.3401967 284.014419,96.9286947 L283.703474,98.1771048 C283.759918,94.4662716 284.082553,93.9597584 284.311003,92.6229951 C284.948924,87.4405084 284.112946,88.897324 284.799965,81.8236747 C284.994347,80.7084689 284.953934,82.2071005 285.146313,81.0898713 C285.369084,76.0908354 285.593192,75.5027136 285.647966,70.4716412 C285.325332,67.7839512 285.609557,73.029162 285.313976,70.1044023 C285.313976,70.1044023 285.314644,71.0597631 285.31598,72.013775 C285.30763,72.9681241 285.29761,73.9234849 285.29761,73.9234849 C285.22814,70.6287884 285.139299,76.9082709 284.931223,76.3832102 C284.988335,73.9234849 285.294938,70.1843248 285.340361,66.9614574 C285.187393,66.9624691 285.306962,70.7009548 285.097884,69.2134516 L285.169024,67.5644172 C285.119593,68.0156254 285.058807,68.0952107 285.061479,69.0603511 C284.907176,68.4671708 285.065487,67.1226514 285.038768,65.5484811 C285.122265,65.4402316 285.243838,65.5181308 285.366746,66.039482 C285.348377,65.9791185 285.327669,65.8590661 285.302954,65.6192986 C285.385784,64.0019634 285.331343,61.8255078 285.180714,59.7121135 C285.034426,57.5980447 284.825682,55.5456882 284.724149,54.1569922 C284.732833,54.606177 284.671044,54.2288213 284.61293,54.0892098 C284.502713,53.1153015 284.39116,52.1262181 284.268252,51.0514794 C284.168055,49.9733684 284.008073,48.8170209 283.764594,47.5187015 C283.56253,46.8250279 283.515104,47.0475969 283.422588,46.9245095 C283.337087,46.7990615 283.185121,46.3333526 282.704843,44.2789728 C282.67946,43.8972331 282.836769,44.1484664 282.893213,44.0648344 C282.946986,43.9818768 282.923606,43.5579839 282.404919,41.8556679 C282.404919,41.8556679 282.587612,42.6086932 282.721208,43.1637669 C282.839107,43.7201896 282.870168,44.0830446 282.614999,43.2939361 C282.167118,41.6105047 282.076607,41.3417357 281.96806,41.1205155 C281.855839,40.9013187 281.753638,40.7178679 281.151453,39.2489121 C280.77037,37.4592546 279.866926,36.0273936 280.01789,35.5542658 C279.406688,34.5817065 279.603742,34.8282185 278.534973,32.902659 C278.805171,33.3150862 278.444127,32.3394918 277.94548,31.3075807 C277.443158,30.2780302 276.891072,29.1510215 277.013312,29.1665339 C276.387414,28.4856749 278.529963,32.5721777 276.957536,30.1573034 C276.588476,29.2420725 275.867391,28.0381762 275.296936,26.9833338 C274.72481,25.9291658 274.163706,25.1080209 274.192429,24.9039992 C273.288985,23.6818928 272.751595,23.2279868 271.247302,21.4127001 C271.492451,21.6898997 271.746952,22.0773722 271.875204,22.272626 C270.624744,20.5912179 268.793808,18.7361386 267.033679,17.1440954 C266.157288,16.3441957 265.249168,15.6667089 264.509713,15.0205842 C263.752557,14.3913208 263.067877,13.9127973 262.62701,13.5023935 C262.751254,13.6956239 262.351133,13.4764271 261.719892,13.0720933 C261.074956,12.6906909 260.174852,12.1605719 259.33854,11.666536 C257.650553,10.7088146 256.165631,10.0050243 257.516956,10.8747297 C255.995964,10.0050243 253.514415,8.78763897 252.992388,8.47098391 C253.026121,8.63318954 252.005781,8.25077543 250.748307,7.76213519 C249.494173,7.26472707 247.954143,6.7862036 247.033999,6.54306376 C246.587454,6.3255531 245.604521,6.01463087 244.508698,5.67369554 C243.414211,5.33073686 242.185795,5.04375767 241.273333,4.75610402 C242.08994,4.99688328 242.518115,5.15436774 242.207504,5.15335607 C240.162481,4.51330142 240.645431,4.76520912 238.839211,4.49812625 C236.027012,3.79602205 239.405325,4.40572637 237.720009,3.904946 C235.239128,3.49926331 237.312207,4.00611375 236.843618,4.03241737 C236.843618,4.03241737 235.93817,3.79130089 235.034058,3.55052164 C234.128944,3.30400955 233.214478,3.09897623 233.214478,3.09897623 C232.464336,3.0072508 231.927947,2.97217932 231.613662,2.99713403 C230.352181,2.73106284 229.226299,2.44408365 227.408055,2.34595093 C227.408055,2.34595093 228.200615,2.45352597 228.994844,2.56042656 C229.787403,2.67373445 230.57896,2.78771678 230.57896,2.78771678 L229.345534,2.75635478 C229.345534,2.75635478 228.411696,2.56919444 227.473183,2.41508223 C226.535004,2.25591163 225.598829,2.09539213 225.598829,2.09539213 C223.146672,1.91598798 222.143699,1.91598798 221.810042,2.00130612 C221.80737,2.00130612 221.805032,2.00029444 221.803362,2.00029444 L219.737298,1.74804951 L220.663787,2.0441338 C221.123358,2.09471767 221.450334,2.11697458 221.672104,2.12102129 C221.706839,2.21713066 221.944306,2.33819473 222.105958,2.44880481 C221.990063,2.43835081 221.874168,2.42486177 221.758942,2.41305887 C213.080201,1.52682936 204.368061,0.937358583 195.643898,0.63419255 L194.488291,0.389366588 C197.92071,0.464905177 202.984005,1.13429847 204.750814,0.886100255 L203.051805,0.751884369 C203.185401,0.700626041 204.21476,0.563037897 206.50894,0.826748506 C207.074719,0.888798061 207.4715,1.0159322 207.143187,1.03077014 L208.44074,1.07427227 C207.625136,0.835516378 203.35273,0.537408733 200.667113,0.359016263 C201.507767,0.460184015 203.580512,0.640262615 202.941588,0.707370558 C200.554225,0.507732859 198.277746,0.329003163 195.968202,0.16780921 C196.912059,0.273360899 197.476837,0.407576784 197.916368,0.4939066 C195.329279,0.471649694 195.986238,0.299664514 194.025046,0.224125925 C193.277576,0.269314188 192.76657,0.299664514 193.259874,0.367446909 C190.819072,0.214346376 188.865896,0.183321599 186.272127,0.228847087 C186.272127,0.228847087 188.668842,0.368795812 187.90868,0.448381111 C187.353588,0.441299368 186.799164,0.426798657 186.245074,0.422077495 C182.595895,0.274709802 181.350444,0.0949684278 176.738705,0.0386517121 C170.774304,-0.164358245 165.198334,0.497616084 161.055851,0.514477376 L161.055851,0.514477376 Z" id="Fill-1" fill="#003093" transform="translate(143.500000, 112.000000) scale(-1, 1) translate(-143.500000, -112.000000) "></path>
                    <text id="Inauguración-semestr" font-family="Carista" font-size="45" font-weight="normal" line-spacing="45" letter-spacing="2.25" fill="#FFFFFF">
                        <tspan x="46" y="87">Inauguración </tspan>
                        <tspan x="46" y="132">semestre virtual </tspan>
                        <tspan x="46" y="177">de Francia</tspan>
                    </text>
                </g>
            </g>
        </g>
    </g>
</svg>