<?xml version="1.0" encoding="UTF-8"?>
<svg width="321px" height="208px" viewBox="0 0 321 208" version="1.1" xmlns="http://www.w3.org/2000/svg" xmlns:xlink="http://www.w3.org/1999/xlink">
    <title>globo</title>
    <defs>
        <polygon id="path-1" points="0.053672578 0.009828 309.303973 0.009828 309.303973 197.351225 0.053672578 197.351225"></polygon>
    </defs>
    <g id="Page-1" stroke="none" stroke-width="1" fill="none" fill-rule="evenodd">
        <g id="semestre-francia---1440" transform="translate(-308.000000, -286.000000)">
            <g id="globo" transform="translate(308.000000, 286.000000)">
                <g id="Group-24" transform="translate(0.000000, 0.179550)">
                    <g id="Group-3" transform="translate(10.206000, 0.000000)">
                        <mask id="mask-2" fill="white">
                            <use xlink:href="#path-1"></use>
                        </mask>
                        <g id="Clip-2"></g>
                        <path d="M306.241463,148.286924 C304.783706,162.47213 300.912041,175.965218 290.407421,184.857479 C284.899205,189.520298 276.711725,193.239251 269.667695,194.753519 C248.724983,199.255688 225.359102,196.535411 204.054266,196.549586 C171.127442,196.571699 138.147509,196.037018 105.22919,196.701164 C90.3898548,197.00054 75.4924968,197.173097 60.6522168,196.979561 C44.4649338,196.768259 25.4513448,193.21676 14.0843178,180.763739 C-4.6739322,160.21358 0.5778108,123.830513 1.1873358,98.4574521 C1.8153828,72.3030651 -5.8330692,40.2600051 13.9741308,19.0468341 C31.3645878,0.4222071 61.7310288,-0.0561519 85.3125588,0.0145341 C104.525921,0.0718011 123.698648,2.0436381 142.9139,2.3878071 C162.876269,2.7455841 182.84204,2.3292171 202.797794,1.7941581 C227.626913,1.1283111 258.450356,-3.9943449 281.468477,8.1024111 C287.330312,11.1827331 292.61324,16.0489161 296.278895,21.5820801 C314.139017,48.5431191 308.939249,79.8742161 307.429895,110.229317 C306.872156,121.442498 307.590356,135.160685 306.241463,148.286924" id="Fill-1" fill="#003093"></path>
                        <path d="M227.253286,72.0221952 C227.303749,71.0461992 227.573641,70.0940172 228.062962,69.1690512 C228.551149,68.2433292 229.193182,67.5493212 229.990762,67.0866492 C230.787208,66.6239772 231.725971,66.5735142 232.805161,66.9326142 C233.730694,67.2928482 234.334171,67.9998972 234.617482,69.0531942 C234.899659,70.1076252 234.990379,71.2508862 234.886996,72.4846782 C234.629389,74.5415652 234.089416,76.1609172 233.267833,77.3431122 C232.547176,78.3202422 231.802705,78.8467962 231.031963,78.9239082 C230.260465,79.0010202 229.566646,78.7311282 228.949561,78.1140432 C228.332665,77.4971472 227.856385,76.6489152 227.522989,75.5691582 C227.187892,74.4899682 227.098873,73.3077732 227.253286,72.0221952" id="Fill-20" fill="#F5001F"></path>
                        <path d="M101.866323,78.594652 C106.387624,78.594652 108.805994,75.8871291 108.805994,72.9167399 C108.805994,68.710879 105.520165,67.7119871 102.497203,67.3702609 C100.026259,67.081108 98.7645011,66.8445283 98.7645011,65.4776235 C98.7645011,64.2947252 99.2376604,63.3221198 101.81375,63.3221198 C103.390948,63.3221198 104.442413,63.5849861 106.124758,64.7153112 C106.597917,65.0307508 106.80821,64.8467444 107.071076,64.373585 L108.148828,62.5860942 C108.385408,62.1129348 108.464268,61.8763552 107.991108,61.5872022 C105.967038,60.3517306 104.258407,59.615705 101.550884,59.615705 C96.4512776,59.615705 94.6112135,63.1118268 94.6112135,65.6353433 C94.6112135,69.4469047 97.7918958,70.5772298 100.657138,70.918956 C103.128082,71.2081089 104.652706,71.4972619 104.652706,73.1270329 C104.652706,74.2836447 103.758961,74.8882372 101.603457,74.8882372 C100.026259,74.8882372 98.2387685,74.546511 96.5564241,73.4950458 C96.0832648,73.2058928 95.8729718,73.3636126 95.6101054,73.836772 L94.5323536,75.6242628 C94.2957739,76.0974222 94.216914,76.3077152 94.6900734,76.6231548 C96.5827108,77.9374863 99.0010808,78.594652 101.866323,78.594652 Z M117.817016,78.594652 C119.762227,78.594652 121.944017,77.9374863 123.153202,76.7283013 C123.442355,76.4391484 123.337208,76.2288553 123.021769,75.8345559 L121.99659,74.546511 C121.628577,74.0996383 121.497144,74.257358 120.971412,74.4939377 C119.49936,75.1511035 118.500468,75.1773901 117.895876,75.1773901 C116.502685,75.1773901 115.319786,74.2310714 114.872913,72.8904533 L123.600075,72.8904533 C124.152094,72.8904533 124.25724,72.7064469 124.25724,72.128141 C124.25724,68.2114331 122.180597,64.6364514 117.685583,64.6364514 C113.847735,64.6364514 110.719626,67.790847 110.719626,71.628695 C110.719626,75.466543 113.847735,78.594652 117.817016,78.594652 Z M120.156526,70.3406501 L114.97806,70.3406501 C115.21464,69.2366117 115.819232,67.8959935 117.606723,67.8959935 C119.315354,67.8959935 119.89366,69.2366117 120.156526,70.3406501 Z M130.2453,78.3054991 C130.797319,78.3054991 130.955039,78.1477793 130.955039,77.5957601 L130.955039,71.628695 C130.955039,69.2366117 131.454485,68.2114331 133.084256,68.2114331 C134.714027,68.2114331 135.187187,69.2366117 135.187187,71.628695 L135.187187,77.5957601 C135.187187,78.1477793 135.344906,78.3054991 135.896926,78.3054991 L138.499302,78.3054991 C139.051321,78.3054991 139.209041,78.1477793 139.209041,77.5957601 L139.209041,71.3395421 C139.209041,69.2366117 139.76106,68.2114331 141.311972,68.2114331 C142.941743,68.2114331 143.414902,69.2366117 143.414902,71.628695 L143.414902,77.5957601 C143.414902,78.1477793 143.572622,78.3054991 144.124641,78.3054991 L146.727017,78.3054991 C147.279037,78.3054991 147.436756,78.1477793 147.436756,77.5957601 L147.436756,70.8400961 C147.436756,66.0033561 145.491546,64.6364514 142.284577,64.6364514 C140.418226,64.6364514 139.235328,65.4776235 138.341582,66.581662 C137.42155,65.2410438 136.080932,64.6364514 134.056862,64.6364514 C132.190511,64.6364514 131.296765,65.4776235 130.271587,66.581662 L129.745854,65.6353433 C129.456701,65.1358973 129.325268,64.9256043 128.904682,64.9256043 L127.642924,64.9256043 C127.090905,64.9256043 126.933185,65.0833241 126.933185,65.6353433 L126.933185,77.5957601 C126.933185,78.1477793 127.090905,78.3054991 127.642924,78.3054991 L130.2453,78.3054991 Z M156.842078,78.594652 C158.787289,78.594652 160.969079,77.9374863 162.178264,76.7283013 C162.467417,76.4391484 162.36227,76.2288553 162.046831,75.8345559 L161.021652,74.546511 C160.653639,74.0996383 160.522206,74.257358 159.996474,74.4939377 C158.524422,75.1511035 157.52553,75.1773901 156.920938,75.1773901 C155.527747,75.1773901 154.344848,74.2310714 153.897975,72.8904533 L162.625137,72.8904533 C163.177156,72.8904533 163.282302,72.7064469 163.282302,72.128141 C163.282302,68.2114331 161.205659,64.6364514 156.710645,64.6364514 C152.872797,64.6364514 149.744688,67.790847 149.744688,71.628695 C149.744688,75.466543 152.872797,78.594652 156.842078,78.594652 Z M159.181588,70.3406501 L154.003122,70.3406501 C154.239702,69.2366117 154.844294,67.8959935 156.631785,67.8959935 C158.340416,67.8959935 158.918722,69.2366117 159.181588,70.3406501 Z M170.952706,78.594652 C174.343682,78.594652 176.683192,76.8597344 176.683192,74.1522115 C176.683192,71.1555357 174.396255,70.2880769 171.531012,69.920064 C169.901241,69.709771 168.928636,69.4469047 168.928636,68.8423122 C168.928636,68.1062866 169.428082,67.7119871 170.952706,67.7119871 C172.503618,67.7119871 173.476223,68.2377197 174.291109,68.7897389 C174.790555,69.1314651 174.974561,68.9211721 175.237427,68.4480127 L175.99974,67.1336812 C176.236319,66.6605219 176.341466,66.4239422 175.84202,66.1347893 C173.817949,64.9781775 172.083032,64.6364514 170.68984,64.6364514 C167.430298,64.6364514 165.143361,66.371369 165.143361,69.0788919 C165.143361,71.9441346 167.430298,72.9955998 170.295541,73.3636126 C171.925312,73.5739057 172.897917,73.7841987 172.897917,74.3887912 C172.897917,75.1248168 172.083032,75.5191163 170.68984,75.5191163 C169.138929,75.5191163 167.824597,74.8093773 167.035999,74.2310714 C166.510266,73.836772 166.352546,74.0996383 166.08968,74.5727976 L165.327368,75.8871291 C165.090788,76.3602885 165.011928,76.5705815 165.485087,76.8860211 C167.430298,78.2003526 169.559515,78.594652 170.952706,78.594652 Z M187.981151,77.9111997 C188.401737,77.6483334 188.428024,77.5169002 188.349164,77.0174542 L188.033724,75.1773901 C187.928578,74.4676511 187.797145,74.4413645 187.139979,74.756804 C186.693106,74.9670971 186.219947,75.0196703 185.825647,75.0196703 C184.695322,75.0196703 183.985583,74.2836447 183.985583,72.6013003 L183.985583,68.0799999 L187.323985,68.0799999 C187.876004,68.0799999 188.033724,67.9222801 188.033724,67.3702609 L188.033724,65.6353433 C188.033724,65.0833241 187.876004,64.9256043 187.323985,64.9256043 L183.985583,64.9256043 L183.985583,62.5072343 C183.985583,61.9552151 183.827863,61.7974953 183.275844,61.7974953 L180.699754,61.7974953 C180.147735,61.7974953 179.990015,61.9552151 179.990015,62.5072343 L179.990015,64.9256043 L179.359136,64.9256043 C178.807117,64.9256043 178.649397,65.0833241 178.649397,65.6353433 L178.649397,67.3702609 C178.649397,67.9222801 178.807117,68.0799999 179.359136,68.0799999 L179.990015,68.0799999 L179.990015,72.8115934 C179.990015,76.4128617 181.908939,78.594652 185.378775,78.594652 C185.720501,78.594652 186.903399,78.594652 187.981151,77.9111997 Z M194.60009,78.3054991 C195.152109,78.3054991 195.309829,78.1477793 195.309829,77.5957601 L195.309829,72.0229945 C195.309829,70.1566437 196.387581,68.6057325 199.016244,68.6057325 C199.541976,68.6057325 199.673409,68.500586 199.778556,67.9485668 L200.172855,65.2936171 C200.251715,64.8204578 200.199142,64.6364514 199.541976,64.6364514 C196.808167,64.6364514 195.809275,65.5564834 194.889243,67.081108 L194.100644,65.6353433 C193.811491,65.1096107 193.680058,64.9256043 193.259472,64.9256043 L191.997713,64.9256043 C191.445694,64.9256043 191.287974,65.0833241 191.287974,65.6353433 L191.287974,77.5957601 C191.287974,78.1477793 191.445694,78.3054991 191.997713,78.3054991 L194.60009,78.3054991 Z M208.316419,78.594652 C210.261629,78.594652 212.44342,77.9374863 213.652605,76.7283013 C213.941758,76.4391484 213.836611,76.2288553 213.521172,75.8345559 L212.495993,74.546511 C212.12798,74.0996383 211.996547,74.257358 211.470814,74.4939377 C209.998763,75.1511035 208.999871,75.1773901 208.395279,75.1773901 C207.002087,75.1773901 205.819189,74.2310714 205.372316,72.8904533 L214.099477,72.8904533 C214.651497,72.8904533 214.756643,72.7064469 214.756643,72.128141 C214.756643,68.2114331 212.679999,64.6364514 208.184986,64.6364514 C204.347138,64.6364514 201.219029,67.790847 201.219029,71.628695 C201.219029,75.466543 204.347138,78.594652 208.316419,78.594652 Z M210.655929,70.3406501 L205.477463,70.3406501 C205.714042,69.2366117 206.318635,67.8959935 208.106126,67.8959935 C209.814757,67.8959935 210.393063,69.2366117 210.655929,70.3406501 Z M229.282566,78.594652 C231.28035,78.594652 232.752401,77.884913 233.935299,76.6494414 L234.461032,77.5957601 C234.750185,78.0952061 234.881618,78.3054991 235.302204,78.3054991 L236.511389,78.3054991 C237.063408,78.3054991 237.221128,78.1477793 237.221128,77.5957601 L237.221128,59.615705 C237.221128,59.0636857 237.063408,58.9059659 236.511389,58.9059659 L233.909013,58.9059659 C233.356993,58.9059659 233.199274,59.0636857 233.199274,59.615705 L233.199274,66.4239422 C232.804974,65.7930631 231.28035,64.6364514 229.282566,64.6364514 C225.812731,64.6364514 223.236641,67.790847 223.236641,71.628695 C223.236641,75.3351099 225.812731,78.594652 229.282566,78.594652 Z M230.228884,75.0985302 C228.599113,75.0985302 227.232209,73.6264789 227.232209,71.628695 C227.232209,69.6309111 228.599113,68.2114331 230.228884,68.2114331 C231.858656,68.2114331 233.22556,69.6309111 233.22556,71.628695 C233.22556,73.6264789 231.858656,75.0985302 230.228884,75.0985302 Z M247.152182,78.594652 C249.097393,78.594652 251.279183,77.9374863 252.488368,76.7283013 C252.777521,76.4391484 252.672375,76.2288553 252.356935,75.8345559 L251.331757,74.546511 C250.963744,74.0996383 250.832311,74.257358 250.306578,74.4939377 C248.834527,75.1511035 247.835635,75.1773901 247.231042,75.1773901 C245.837851,75.1773901 244.654952,74.2310714 244.20808,72.8904533 L252.935241,72.8904533 C253.48726,72.8904533 253.592407,72.7064469 253.592407,72.128141 C253.592407,68.2114331 251.515763,64.6364514 247.020749,64.6364514 C243.182901,64.6364514 240.054792,67.790847 240.054792,71.628695 C240.054792,75.466543 243.182901,78.594652 247.152182,78.594652 Z M249.491692,70.3406501 L244.313226,70.3406501 C244.549806,69.2366117 245.154398,67.8959935 246.941889,67.8959935 C248.65052,67.8959935 249.228826,69.2366117 249.491692,70.3406501 Z" id="Semestrede" fill="#FFFFFF" fill-rule="nonzero"></path>
                    </g>
                    <path d="M1.6940826,154.492002 C1.7056116,154.436625 1.7203536,154.362915 1.7339616,154.302435 C1.6834986,154.585557 1.6385166,154.859418 1.6060086,155.114379 C1.6060086,155.114379 1.6417296,154.865655 1.6940826,154.492002" id="Fill-4" fill="#FFFFFF"></path>
                    <path d="M1.7339427,154.302359 C1.9040427,153.34583 2.1556017,152.254544 2.3731407,151.168172 C2.3731407,151.168172 2.1716667,152.152484 1.9701927,153.138308 C1.8849537,153.555809 1.8033057,153.96008 1.7339427,154.302359" id="Fill-6" fill="#FFFFFF"></path>
                    <path d="M259.692558,202.506677 C259.364454,202.641056 259.05336,202.740659 258.822213,202.804541 L259.692558,202.506677 Z" id="Fill-8" fill="#FFFFFF"></path>
                    <path d="M0.2466828,169.282821 C0.2249478,169.027293 3.78e-05,168.685392 3.78e-05,168.345381 L3.78e-05,166.979856 C3.78e-05,167.697867 0.2655828,168.458781 0.3064068,169.242375 C0.2960118,169.408506 0.2909088,169.598451 0.2721978,169.708827 C0.2721978,169.708827 0.2616138,169.538727 0.2466828,169.282821" id="Fill-10" fill="#FFFFFF"></path>
                    <path d="M26.5918842,170.153978 C26.0394372,168.07082 25.4108232,165.988229 24.9744222,163.877855 C24.6259062,162.191219 24.2913762,160.501748 23.9473962,158.814167 C23.1358302,154.833827 22.2804162,150.859346 21.2267412,146.93495 C20.1626712,142.97162 18.9339822,139.012826 17.1995292,135.285746 C15.8646222,132.416915 14.2225902,129.528617 11.8230462,127.412384 C11.8260702,127.48874 11.8289052,127.56434 11.8319292,127.640885 L11.8483722,128.032493 C11.8444032,128.062544 11.8580112,128.099588 11.8393002,128.129072 C11.8561212,128.089004 11.6657982,128.405957 11.5359552,128.61896 C11.2611492,129.075395 10.9827522,129.534476 10.7045442,129.995069 C10.1600352,130.92287 9.5446512,131.826668 9.0693162,132.816461 C8.0598672,135.715154 5.2110702,140.48249 3.9854052,145.818149 C3.9780342,145.547501 3.7818522,146.059124 3.4875792,146.995997 C3.3458292,147.465095 3.1751622,148.040222 2.9861622,148.672049 C2.7952722,149.306144 2.6030592,150.002987 2.4654672,150.728558 C2.7880902,149.799434 2.2021902,152.608352 2.4046092,152.054015 C1.5446592,154.580378 0.6951042,161.870108 1.0768842,161.606075 C0.9203922,161.929454 0.7357392,163.307264 0.7041762,164.871239 C0.6799842,166.438049 0.6257412,168.181574 0.5299182,169.242431 C0.6520122,170.869532 0.6257412,172.615703 0.7495362,174.461288 C0.9228492,176.300069 0.9774702,178.2617 1.3802292,180.268502 C0.9833292,178.870469 1.8506502,184.305731 2.1914172,185.775206 C2.1148722,185.358839 1.9629162,184.514954 2.0320902,184.713215 C2.2386672,185.297981 2.4488352,186.455795 2.6805492,187.749689 C2.9544102,189.033566 3.3210702,190.439915 3.6692082,191.541785 C4.0207482,192.525341 3.7501002,191.247701 4.2488712,192.867242 C4.2195762,192.886331 4.3180452,193.269623 4.4932482,193.867808 C4.6695852,194.466938 4.9247352,195.280205 5.2123932,196.157921 C5.4766152,197.044709 5.8599072,197.960792 6.2250552,198.793337 C6.5839662,199.627961 6.9241662,200.374889 7.1842302,200.888402 C6.7688082,199.909004 6.8232402,199.864778 6.6177972,199.246748 C6.8723802,199.878575 7.1267742,200.512481 7.3815462,201.1496 L7.5769722,201.627014 C7.6922622,201.837182 7.8090642,202.078535 7.9980642,202.262054 C8.3475252,202.649504 8.8311762,202.911836 9.3034872,203.001233 C10.2543462,203.1908 11.1959442,202.960976 11.9545902,202.324046 C12.3348582,202.012196 12.6372582,201.520985 12.7438542,200.994242 C12.8175642,200.73191 12.7922382,200.459939 12.7869462,200.210081 L12.7553832,199.713767 C12.5278272,197.071925 12.8175642,194.367146 13.6077732,191.795801 C15.1832772,186.630809 18.8041392,182.158502 23.1619122,179.131856 C23.1619122,179.131856 22.7527272,179.375288 22.3454322,179.619854 C22.1409342,179.742326 21.9349242,179.865743 21.7807002,179.955707 C21.6317682,180.056633 21.5331102,180.122783 21.5331102,180.122783 C24.0437862,177.886724 25.1603982,177.528002 25.9918092,177.140741 C26.2023552,177.046241 26.4146022,176.973665 26.6466942,176.892017 C26.7608502,176.849681 26.8814322,176.805833 27.0095742,176.758394 C27.0738342,176.733446 27.1397952,176.707364 27.2082132,176.682038 L27.3129192,176.639891 C27.3422142,176.628173 27.3287952,176.639135 27.3380562,176.636867 C27.3569562,176.651609 27.3656502,176.658035 27.3696192,176.660303 C27.3527982,176.653877 27.3354102,176.694512 28.2080232,177.694133 C28.4489982,177.959111 28.6943202,178.220687 28.9415322,178.480373 C28.0868742,175.720595 27.3280392,172.930199 26.5918842,170.153978" id="Fill-12" fill="#003093"></path>
                    <path d="M246.323209,206.766 C246.634303,206.695503 247.005121,206.612721 247.486504,206.511795 C247.112473,206.591553 246.705367,206.681706 246.323209,206.766" id="Fill-14" fill="#FFFFFF"></path>
                    <polygon id="Fill-16" fill="#FFFFFF" points="266.545282 199.637071 266.53432 199.588876 267.13912 199.333915"></polygon>
                    <path d="M2.461158,150.735533 C2.463615,150.72854 2.463615,150.735533 2.465316,150.72854 C2.433942,150.880495 2.404836,151.014875 2.373084,151.168154 L2.461158,150.735533 Z" id="Fill-18" fill="#FFFFFF"></path>
                </g>
                <g id="Group-47" transform="translate(39.879000, 44.405550)">
                    <path d="M232.609992,38.9855025 C232.461816,38.9855025 232.309104,38.9943855 232.156392,39.0121515 C231.23445,39.1212045 230.436681,39.5899245 229.785387,40.4050815 C229.128801,41.2255305 228.795972,42.5375685 228.795972,44.3056635 L228.795972,46.6759125 C228.795972,48.7121985 228.85305,51.1313985 228.965505,53.8666065 C229.075692,56.6082405 229.359759,59.0217705 229.809768,61.0402905 C230.363349,63.2617965 230.894628,64.6679565 231.388107,65.2168125 C231.593172,65.4451245 231.788787,65.5607925 231.969471,65.5607925 C232.186632,65.5607925 232.408896,65.3927715 232.630215,65.0616435 C233.072475,64.3957965 233.522673,63.2680335 233.968146,61.7104845 C234.415509,60.1393275 234.784626,58.3506315 235.065291,56.3939145 C235.344066,54.4277475 235.60035,52.4351205 235.826583,50.4710325 C236.048091,48.5267895 236.190219,46.7356365 236.249187,45.1472805 C236.303619,43.5880305 236.220459,42.4634805 236.001408,41.8055715 L235.996116,41.7815685 C235.887252,40.9210515 235.448961,40.2094665 234.692961,39.6666585 C234.058677,39.2147595 233.357487,38.9855025 232.609992,38.9855025 M231.969471,65.8117845 C231.714321,65.8117845 231.455958,65.6681445 231.201186,65.3846445 C230.672742,64.7970435 230.137494,63.3948525 229.565202,61.0979355 C229.111224,59.0616495 228.825267,56.6333775 228.714513,53.8768125 C228.601869,51.1382025 228.544791,48.7154115 228.544791,46.6759125 L228.544791,44.3056635 C228.544791,42.4789785 228.896142,41.1140205 229.589205,40.2482115 C230.283024,39.3793785 231.137115,38.8798515 232.127286,38.7626715 C233.115,38.6481375 234.027114,38.8840095 234.839058,39.4623495 C235.651002,40.0452255 236.123313,40.8108645 236.243706,41.7379095 C236.472396,42.4347525 236.556123,43.5532545 236.500179,45.1565415 C236.441211,46.7515125 236.298516,48.5492805 236.076252,50.4997605 C235.84983,52.4659275 235.593168,54.4610115 235.314015,56.4292575 C235.031649,58.3973145 234.660453,60.1971615 234.209688,61.7794695 C233.757222,63.3621555 233.296062,64.5131655 232.839438,65.2009365 C232.568223,65.6067195 232.275651,65.8117845 231.969471,65.8117845 M243.615462,38.9855025 C243.467286,38.9855025 243.314763,38.9943855 243.161862,39.0121515 C242.240487,39.1212045 241.472391,39.5884125 240.878364,40.4007345 C240.276399,41.2200495 239.971164,42.5334105 239.971164,44.3056635 L239.971164,46.6759125 C239.971164,48.7806165 239.999892,51.2007615 240.056025,53.8692525 C240.111024,56.6114535 240.365985,59.0242275 240.814671,61.0402905 C241.369008,63.2629305 241.900476,64.6690905 242.394144,65.2168125 C242.599209,65.4451245 242.800494,65.5607925 242.993085,65.5607925 C243.226878,65.5607925 243.472956,65.3910705 243.724137,65.0561625 C244.217994,64.3980645 244.66668,63.2738925 245.057532,61.7142645 C245.450652,60.1374375 245.820336,58.3462845 246.156,56.3903235 C246.492609,54.4268025 246.748326,52.4362545 246.916158,50.4748125 C247.081344,48.5509815 247.195311,46.7586945 247.254846,45.1472805 C247.309467,43.5887865 247.281684,42.4595115 247.172442,41.7915855 C246.953013,40.9267215 246.457077,40.2115455 245.698431,39.6666585 C245.063958,39.2147595 244.362957,38.9855025 243.615462,38.9855025 M242.993085,65.8117845 C242.726217,65.8117845 242.461806,65.6681445 242.207412,65.3846445 C241.678779,64.7983665 241.143153,63.3959865 240.570105,61.0979355 C240.117261,59.0625945 239.860032,56.6333775 239.805033,53.8741665 C239.748522,51.2043525 239.719983,48.7825065 239.719983,46.6759125 L239.719983,44.3056635 C239.719983,42.4789785 240.041472,41.1151545 240.675756,40.2521805 C241.312119,39.3814575 242.138805,38.8802295 243.132567,38.7626715 C244.12047,38.6481375 245.032584,38.8838205 245.844528,39.4623495 C246.654771,40.0442805 247.183593,40.8087855 247.417386,41.7352635 L247.419465,41.7454695 C247.532109,42.4292715 247.561215,43.5766905 247.506027,45.1565415 C247.446492,46.7721135 247.332147,48.5685585 247.166583,50.4961695 C246.997995,52.4647935 246.741333,54.4621455 246.40359,56.4326595 C246.066981,58.3950465 245.695974,60.1924365 245.301342,61.7755005 C244.896504,63.3901275 244.446306,64.5125985 243.925233,65.2069845 C243.623778,65.6082315 243.310227,65.8117845 242.993085,65.8117845" id="Fill-25" fill="#003093"></path>
                    <path d="M232.609992,39.2367024 C232.471644,39.2367024 232.328571,39.2452074 232.185498,39.2616504 C231.331974,39.3625764 230.590338,39.8001114 229.981569,40.5619704 C229.361649,41.3366814 229.047153,42.5961774 229.047153,44.3056824 L229.047153,46.6759314 C229.047153,48.7084374 229.104231,51.1242354 229.216497,53.8564194 C229.326117,56.5831224 229.608105,58.9817214 230.054901,60.9854994 C230.730954,63.6978384 231.254862,64.6929234 231.574839,65.0488104 C231.726039,65.2170204 231.866088,65.3096304 231.969471,65.3096304 C232.092132,65.3096304 232.256751,65.1682584 232.42137,64.9219914 C232.848888,64.2782574 233.288313,63.1743084 233.726604,61.6413294 C234.170754,60.0811344 234.537414,58.3035894 234.816567,56.3580234 C235.094964,54.3952584 235.35087,52.4048994 235.577103,50.4423234 C235.797855,48.5048844 235.939416,46.7201574 235.998195,45.1382274 C236.051493,43.6092174 235.972491,42.5143404 235.763079,41.8849704 L235.746636,41.8129614 C235.647033,41.0246424 235.243329,40.3712694 234.546486,39.8707974 C233.95605,39.4500834 233.304189,39.2367024 232.609992,39.2367024 M231.969471,66.0631734 C231.640044,66.0631734 231.318744,65.8915614 231.014454,65.5526844 C230.449911,64.9250154 229.912017,63.5288724 229.321392,61.1586234 C228.863067,59.1032484 228.574842,56.6587224 228.463521,53.8868484 C228.350688,51.1457814 228.293421,48.7195884 228.293421,46.6759314 L228.293421,44.3056824 C228.293421,42.4207854 228.663483,41.0027184 229.393023,40.0911714 C230.129556,39.1692294 231.039591,38.6381394 232.097802,38.5130214 C233.148264,38.3914944 234.123315,38.6438094 234.984966,39.2576814 C235.849263,39.8785464 236.355216,40.6938924 236.489595,41.6821734 C236.722254,42.4090674 236.807871,43.5487374 236.751171,45.1654434 C236.692014,46.7674074 236.548941,48.5714124 236.325921,50.5283184 C236.099121,52.4958084 235.842459,54.4931604 235.562739,56.4644304 C235.278861,58.4440164 234.905019,60.2550144 234.451419,61.8480954 C233.991771,63.4559184 233.519649,64.6305534 233.048661,65.3398704 C232.72755,65.8203084 232.36467,66.0631734 231.969471,66.0631734 M243.615462,39.2367024 C243.476925,39.2367024 243.334041,39.2452074 243.190779,39.2618394 C242.342169,39.3621984 241.632285,39.7951974 241.08135,40.5491184 C240.511326,41.3247744 240.222534,42.5882394 240.222534,44.3056824 L240.222534,46.6759314 C240.222534,48.7785564 240.251073,51.1970004 240.307395,53.8637904 C240.361827,56.5897374 240.614898,58.9860684 241.059993,60.9856884 C241.736613,63.6993504 242.260521,64.6934904 242.580687,65.0486214 C242.734155,65.2192884 242.876661,65.3096304 242.993085,65.3096304 C243.139371,65.3096304 243.327615,65.1659904 243.52323,64.9051704 C243.996864,64.2742884 244.430997,63.1801674 244.813722,61.6530474 C245.205708,60.0824574 245.57388,58.2975414 245.90841,56.3480064 C246.243696,54.3911004 246.498468,52.4077344 246.665922,50.4534744 C246.83073,48.5332344 246.944508,46.7449164 247.004043,45.1382274 C247.05753,43.6048704 247.031448,42.4961964 246.926175,41.8430124 C246.720354,41.0414634 246.25806,40.3780734 245.551956,39.8707974 C244.961331,39.4500834 244.30947,39.2367024 243.615462,39.2367024 M242.993085,66.0631734 C242.651751,66.0631734 242.324592,65.8913724 242.020491,65.5524954 C241.456137,64.9267164 240.917487,63.5303844 240.326295,61.1588124 C239.868537,59.1019254 239.60904,56.6551314 239.553663,53.8792884 C239.497341,51.2087184 239.468802,48.7853604 239.468802,46.6759314 L239.468802,44.3056824 C239.468802,42.4241874 239.806734,41.0102784 240.473337,40.1034564 C241.152225,39.1745214 242.037123,38.6392734 243.103083,38.5130214 C244.153734,38.3914944 245.128596,38.6438094 245.990247,39.2576814 C246.850575,39.8753334 247.412283,40.6882224 247.661007,41.6736684 L247.667244,41.7046644 C247.782723,42.4049094 247.812963,43.5691494 247.757208,45.1654434 C247.697106,46.7849844 247.58295,48.5855874 247.416819,50.5177344 C247.247664,52.4931624 246.990246,54.4976964 246.651369,56.4752034 C246.313626,58.4438274 245.941296,60.2472654 245.544963,61.8361884 C245.131998,63.4840794 244.667814,64.6362234 244.12614,65.3576364 C243.7746,65.8259784 243.393576,66.0631734 242.993085,66.0631734" id="Fill-27" fill="#FFFFFF"></path>
                    <path d="M4.4193492,0.5858244 C4.2711732,0.5858244 4.1186502,0.5947074 3.9659382,0.6126624 C3.0438072,0.7217154 2.2458492,1.1902464 1.5947442,2.0054034 C0.9383472,2.8256634 0.6055182,4.1378904 0.6055182,5.9056074 L0.6055182,8.2764234 C0.6055182,10.3119534 0.6625962,12.7313424 0.7748622,15.4671174 C0.8852382,18.2091294 1.1691162,20.6224704 1.6191252,22.6408014 C2.1728952,24.8626854 2.7041742,26.2686564 3.1976532,26.8173234 C3.4027182,27.0452574 3.5981442,27.1611144 3.7790172,27.1611144 C3.9958002,27.1611144 4.2182532,26.9929044 4.4399502,26.6617764 C4.8818322,25.9959294 5.3320302,24.8683554 5.7775032,23.3108064 C6.2248662,21.7398384 6.5937942,19.9509534 6.8746482,17.9942364 C7.1532342,16.0299594 7.4095182,14.0371434 7.6361292,12.0715434 C7.8574482,10.1273004 7.9997652,8.3363364 8.0585442,6.7481694 C8.1131652,5.1885414 8.0296272,4.0639914 7.8107652,3.4058934 L7.8052842,3.3817014 C7.6967982,2.5213734 7.2583182,1.8097884 6.5025072,1.2669804 C5.8678452,0.8150814 5.1668442,0.5858244 4.4193492,0.5858244 M3.7790172,27.4122954 C3.5236782,27.4122954 3.2653152,27.2684664 3.0105432,26.9849664 C2.4820992,26.3977434 1.9470402,24.9955524 1.3747482,22.6984464 C0.9205812,20.6625384 0.6346242,18.2342664 0.5238702,15.4775124 C0.4112262,12.7379574 0.3543372,10.3153554 0.3543372,8.2764234 L0.3543372,5.9056074 C0.3543372,4.0794894 0.7053102,2.7143424 1.3983732,1.8483444 C2.0923812,0.9798894 2.9464722,0.4801734 3.9366432,0.3629934 C4.9239792,0.2480814 5.8364712,0.4841424 6.6486042,1.0626714 C7.4603592,1.6455474 7.9328592,2.4108084 8.0530632,3.3382314 C8.2817532,4.0350744 8.3656692,5.1539544 8.3097252,6.7570524 C8.2503792,8.3520234 8.1076842,10.1496024 7.8856092,12.1002714 C7.6588092,14.0679504 7.4023362,16.0630344 7.1233722,18.0297684 C6.8410062,19.9980144 6.4696212,21.7978614 6.0190452,23.3799804 C5.5663902,24.9626664 5.1054192,26.1134874 4.6487952,26.8012584 C4.3775802,27.2066634 4.0850082,27.4122954 3.7790172,27.4122954 M15.4248192,0.5858244 C15.2768322,0.5858244 15.1239312,0.5947074 14.9710302,0.6126624 C14.0500332,0.7217154 13.2815592,1.1889234 12.6879102,2.0008674 C12.0857562,2.8201824 11.7805212,4.1339214 11.7805212,5.9056074 L11.7805212,8.2764234 C11.7805212,10.3784814 11.8092492,12.7984374 11.8655712,15.4695744 C11.9203812,18.2121534 12.1755312,20.6249274 12.6240282,22.6408014 C13.1783652,24.8638194 13.7102112,26.2701684 14.2035012,26.8171344 C14.4085662,27.0452574 14.6100402,27.1611144 14.8026312,27.1611144 C15.0362352,27.1611144 15.2823132,26.9912034 15.5334942,26.6562954 C16.0271622,25.9983864 16.4760372,24.8742144 16.8668892,23.3151534 C17.2603872,21.7373814 17.6298822,19.9460394 17.9655462,17.9908344 C18.3019662,16.0273134 18.5576832,14.0369544 18.7255152,12.0753234 C18.8907012,10.1514924 19.0048572,8.3590164 19.0643922,6.7481694 C19.1190132,5.1887304 19.0910412,4.0596444 18.9816102,3.3917184 C18.7623702,2.5266654 18.2664342,1.8118674 17.5077882,1.2669804 C16.8731262,0.8150814 16.1721252,0.5858244 15.4248192,0.5858244 M14.8026312,27.4122954 C14.5355742,27.4122954 14.2711632,27.2684664 14.0167692,26.9849664 C13.4883252,26.3992554 12.9526992,24.9968754 12.3794622,22.6986354 C11.9266182,20.6632944 11.6693892,18.2338884 11.6143902,15.4746774 C11.5578792,12.8020284 11.5293402,10.3801824 11.5293402,8.2764234 L11.5293402,5.9056074 C11.5293402,4.0791114 11.8510182,2.7154764 12.4851132,1.8523134 C13.1214762,0.9819684 13.9481622,0.4809294 14.9417352,0.3629934 C15.9296382,0.2480814 16.8415632,0.4841424 17.6538852,1.0626714 C18.4639392,1.6444134 18.9929502,2.4089184 19.2265542,3.3355854 L19.2288222,3.3457914 C19.3414662,4.0292154 19.3707612,5.1770124 19.3153842,6.7570524 C19.2558492,8.3724354 19.1416932,10.1688804 18.9759402,12.0968694 C18.8073522,14.0654934 18.5506902,16.0630344 18.2131362,18.0333594 C17.8765272,19.9946124 17.5055202,21.7921914 17.1106992,23.3760114 C16.7058612,24.9902604 16.2556632,26.1127314 15.7344012,26.8071174 C15.4331352,27.2087424 15.1197732,27.4122954 14.8026312,27.4122954" id="Fill-29" fill="#003093"></path>
                    <path d="M4.4193492,0.8371188 C4.2808122,0.8371188 4.1381172,0.8454348 3.9948552,0.8620668 C3.1411422,0.9631818 2.3995062,1.4007168 1.7911152,2.1621978 C1.1710062,2.9370978 0.8566992,4.1962158 0.8566992,5.9057208 L0.8566992,8.2763478 C0.8566992,10.3088538 0.9135882,12.7244628 1.0258542,15.4568358 C1.1354742,18.1839168 1.4176512,20.5825158 1.8644472,22.5861048 C2.5405002,25.2986328 3.0644082,26.2933398 3.3843852,26.6490378 C3.5353962,26.8172478 3.6756342,26.9096688 3.7790172,26.9096688 C3.9013002,26.9096688 4.0661082,26.7684858 4.2311052,26.5220298 C4.6584342,25.8784848 5.0974812,24.7747248 5.5361502,23.2417458 C5.9801112,21.6819288 6.3469602,19.9043838 6.6257352,17.9586288 C6.9043212,15.9964308 7.1602272,14.0060718 7.3864602,12.0429288 C7.6070232,10.1053008 7.7489622,8.3207628 7.8073632,6.7388328 C7.8610392,5.2096338 7.7818482,4.1147568 7.5724362,3.4851978 L7.5559932,3.4133778 C7.4563902,2.6248698 7.0526862,1.9713078 6.3560322,1.4712138 C5.7654072,1.0504998 5.1133572,0.8371188 4.4193492,0.8371188 M3.7790172,27.6635898 C3.4495902,27.6635898 3.1281012,27.4917888 2.8238112,27.1529118 C2.2594572,26.5258098 1.7215632,25.1296668 1.1307492,22.7592288 C0.6722352,20.7038538 0.3841992,18.2591388 0.2728782,15.4872648 C0.1600452,12.7454418 0.1029672,10.3192488 0.1029672,8.2763478 L0.1029672,5.9057208 C0.1029672,4.0212018 0.4728402,2.6031348 1.2023802,1.6915878 C1.9387242,0.7696458 2.8489482,0.2389338 3.9071592,0.1134378 C4.9572432,-0.0086562 5.9322942,0.2442258 6.7943232,0.8580978 C7.6586202,1.4785848 8.1647622,2.2939308 8.2991412,3.2825898 C8.5318002,4.0092948 8.6172282,5.1493428 8.5607172,6.7660488 C8.5013712,8.3678238 8.3581092,10.1718288 8.1352782,12.1287348 C7.9081002,14.0996268 7.6514382,16.0969788 7.3722852,18.0650358 C7.0882182,20.0446218 6.7141872,21.8558088 6.2609652,23.4487008 C5.8009392,25.0563348 5.3290062,26.2307808 4.8582072,26.9400978 C4.5370962,27.4201578 4.1742162,27.6635898 3.7790172,27.6635898 M15.4248192,0.8371188 C15.2862822,0.8371188 15.1433982,0.8454348 15.0001362,0.8620668 C14.1515262,0.9626148 13.4416422,1.3958028 12.8907072,2.1491568 C12.3206832,2.9248128 12.0317022,4.1884668 12.0317022,5.9057208 L12.0317022,8.2763478 C12.0317022,10.3757598 12.0604302,12.7938258 12.1167522,15.4643958 C12.1709952,18.1903428 12.4242552,20.5868628 12.8691612,22.5862938 C13.5461592,25.2999558 14.0700672,26.2937178 14.3900442,26.6486598 C14.5435122,26.8197048 14.6862072,26.9096688 14.8026312,26.9096688 C14.9487282,26.9096688 15.1369722,26.7662178 15.3325872,26.5055868 C15.8064102,25.8745158 16.2403542,24.7803948 16.6230792,23.2538418 C17.0150652,21.6824958 17.3832372,19.8975798 17.7177672,17.9484228 C18.0530532,15.9920838 18.3080142,14.0087178 18.4752792,12.0538908 C18.6402762,10.1336508 18.7540542,8.3455218 18.8132112,6.7388328 C18.8668872,5.2050978 18.8408052,4.0962348 18.7357212,3.4430508 C18.5299002,2.6415018 18.0674172,1.9783008 17.3613132,1.4712138 C16.7704992,1.0504998 16.1188272,0.8371188 15.4248192,0.8371188 M14.8026312,27.6635898 C14.4611082,27.6635898 14.1339492,27.4917888 13.8298482,27.1527228 C13.2656832,26.5275108 12.7272222,25.1313678 12.1356522,22.7592288 C11.6778942,20.7027198 11.4187752,18.2557368 11.3632092,15.4797048 C11.3066982,12.8061108 11.2781592,10.3821858 11.2781592,8.2763478 L11.2781592,5.9057208 C11.2781592,4.0246038 11.6160912,2.6106948 12.2826942,1.7036838 C12.9617712,0.7749378 13.8464802,0.2398788 14.9122512,0.1134378 C15.9629022,-0.0082782 16.9373862,0.2442258 17.7996042,0.8580978 C18.6599322,1.4757498 19.2218292,2.2882608 19.4701752,3.2740848 L19.4766012,3.3047028 C19.5920802,4.0047588 19.6223202,5.1691878 19.5663762,6.7660488 C19.5068412,8.3854008 19.3921182,10.1860038 19.2261762,12.1183398 C19.0570212,14.0941458 18.7994142,16.0986798 18.4607262,18.0756198 C18.1231722,20.0432988 17.7508422,21.8469258 17.3543202,23.4366048 C16.9411662,25.0844958 16.4769822,26.2362618 15.9353082,26.9578638 C15.5841462,27.4260168 15.2029332,27.6635898 14.8026312,27.6635898" id="Fill-31" fill="#FFFFFF"></path>
                    <path d="M73.0308524,4.1836473 C73.0350432,4.5072153 72.9488592,4.8634803 72.7494642,5.2522533 C71.7560802,7.1879913 68.6836962,7.6542543 66.7838682,7.8071553 C60.9690942,8.2753083 55.1390112,7.5340503 49.3187562,7.7857983 C42.5092752,8.0804493 39.4193142,12.6882693 36.9048582,18.4873563 C36.0536022,20.4508773 35.3548692,22.3433343 34.8114942,24.1637823 C34.2673632,25.9853643 33.8770782,27.4877253 33.6408282,28.6695423 C39.3639372,28.0076643 44.4969882,27.4400973 49.0382802,26.9664633 C49.7944692,26.8723413 50.5516032,26.7782193 51.3089262,26.6827743 C53.2002492,26.5408353 54.5606712,26.6948703 55.3888692,27.1441233 C56.2159332,27.5941323 56.3346252,28.1970423 55.7434332,28.9534203 C55.1516742,29.7103653 53.6260662,30.4202493 51.1667982,31.0819383 C48.6591462,31.7449503 45.9870642,32.2883253 43.1490402,32.7139533 C40.3108272,33.1395813 36.9281052,33.6132153 33.0021972,34.1333433 C32.4346302,39.3372693 31.9490892,44.8717563 31.5476532,50.7369933 C31.1452722,56.6031753 30.8028042,62.5867263 30.5187372,68.6882133 C30.1874202,75.5481573 29.7738882,82.3718133 29.2771962,89.1593703 C28.7803152,95.9469273 28.0587132,102.51033 27.1127682,108.849957 C26.7814512,110.64678 26.0721342,112.160103 24.9842502,113.390493 C23.8957992,114.620127 22.6183482,115.423755 21.1526532,115.803267 C19.6858242,116.181078 18.2547162,115.955979 16.8598962,115.128915 C15.4641312,114.301095 14.3053722,112.716897 13.3828632,110.374998 C12.4607322,108.033855 11.9993832,104.780409 11.9993832,100.618629 C12.0935052,95.4148923 12.6026712,88.6982103 13.5248022,80.4676383 C14.4473112,72.2361213 15.5582532,63.9821133 16.8598962,55.7037243 C18.1602162,47.4260913 19.4019462,40.6610253 20.5850862,35.4104163 C18.8343792,35.6476113 17.0838612,35.9314893 15.3342882,36.2616723 C13.4898372,36.5455503 11.6444412,36.8182773 9.7998012,37.0775853 C7.9549722,37.3384053 6.1101432,37.4680593 4.2653142,37.4680593 C3.3671862,37.4211873 2.7750492,37.1964663 2.4911712,36.7937073 C2.2074822,36.3924603 2.3615172,35.8715763 2.9525202,35.2331343 C3.5446572,34.5943143 4.6797912,33.9447213 6.3583002,33.2815203 C8.0383212,32.6196423 10.3673682,32.0520753 13.3477092,31.5788193 C15.8544162,31.1530023 18.6691932,30.7269963 21.7912842,30.3015573 C22.3588512,28.1261673 23.0441652,25.7725503 23.8489272,23.2412733 C24.6527442,20.7115083 25.6340322,18.2155743 26.7935472,15.7557393 C29.0124072,11.0468043 32.5058832,6.0241293 37.1862792,3.5312193 C42.3919062,0.7584003 48.3939792,-0.2019087 54.1057482,0.2343033 C56.9908332,0.4541103 59.8723272,0.7748433 62.7678072,0.8292753 C65.3281902,0.8772813 68.1308712,1.3785093 70.6373892,2.0052333 C71.8917822,2.3187843 73.0155762,3.0507813 73.0308524,4.1836473" id="Fill-33" fill="#F5001F"></path>
                    <path d="M91.0629405,59.314626 C90.7083765,60.994269 90.4243095,62.755938 90.2116845,64.600767 C89.9986815,66.445407 89.9387685,68.183829 90.0342135,69.816033 C90.1285245,71.44767 90.4598415,72.760842 91.0275975,73.753848 C91.4532255,74.463354 92.0086965,74.995767 92.6949555,75.350709 C93.3802695,75.705462 94.0542435,75.81168 94.7170665,75.670119 C95.3793225,75.527991 95.9467005,75.05568 96.4201455,74.250918 C96.7038345,73.588851 97.0941195,72.228429 97.5910005,70.170786 C98.0875035,68.113143 98.5600035,65.81925 99.0102015,63.287973 C99.4588875,60.758019 99.8019225,58.427649 100.038928,56.298942 C100.180868,54.833436 99.9557685,53.686017 99.3647655,52.857819 C98.7726285,52.030188 98.0043435,51.544836 97.0585875,51.403086 C96.1120755,51.260958 95.1784155,51.498342 94.2560955,52.112403 C93.3337755,52.727976 92.6117955,53.768799 92.0918565,55.234494 C91.7605395,56.275506 91.4176935,57.635928 91.0629405,59.314626 M88.7569515,82.694304 C86.7699945,82.50606 85.1969475,81.807516 84.0383775,80.601129 C82.8786735,79.395309 82.0395135,77.869323 81.5191965,76.024683 C80.9983125,74.179665 80.7267195,72.157365 80.7032835,69.957783 C80.6790915,67.758201 80.8452225,65.547657 81.2001645,63.323316 C81.5547285,61.100487 82.0162665,59.043033 82.5838335,57.150387 C83.1514005,55.259064 83.7424035,53.673732 84.3575985,52.396281 C85.5872325,50.078952 87.2313435,48.174588 89.2887975,46.683945 C91.3468185,45.194058 93.6762435,44.284212 96.2782065,43.952517 C98.0277795,43.716456 99.6363585,43.92927 101.103376,44.591148 C102.568883,45.25416 103.79965,46.436166 104.793034,48.138867 C105.076724,48.848562 105.312784,49.700007 105.50254,50.693202 C105.64429,51.498342 105.821762,52.208037 106.034387,52.82172 C106.247578,53.437104 106.613293,53.815482 107.134366,53.957421 C107.606678,54.005049 108.092596,53.94627 108.58891,53.779761 C109.085603,53.614575 109.570199,53.437104 110.043455,53.247537 C110.61121,52.963848 111.119243,52.775604 111.569252,52.679781 C112.018126,52.586037 112.373068,52.715691 112.63351,53.070444 C112.892818,53.425575 113.023796,54.146988 113.023796,55.234494 L113.023796,58.072707 C113.070682,60.059286 113.082386,62.496441 113.059138,65.381148 C113.034758,68.267178 112.940635,71.33049 112.775638,74.570139 C112.609129,77.810544 112.28972,80.991603 111.817786,84.113505 C111.344152,87.235785 110.657894,90.050373 109.759765,92.557647 C108.860692,95.063976 107.702123,97.003116 106.282921,98.375256 C104.863909,99.747396 103.089955,100.314774 100.961438,100.078902 C100.014547,99.888957 99.3647655,99.227268 99.0102015,98.091567 C98.6552595,96.956622 98.4779775,95.572953 98.4779775,93.941316 C98.4779775,92.309112 98.5244715,90.666135 98.6199165,89.009739 C98.6662215,87.827544 98.6906025,86.727564 98.6906025,85.710177 C98.6906025,84.693357 98.6431635,83.854197 98.5488525,83.190996 C98.4069135,82.718874 98.1818145,82.375272 97.8746895,82.162269 C97.5664305,81.949455 97.1761455,81.819801 96.7038345,81.771984 C95.8047615,81.677862 94.9888485,81.689958 94.2560955,81.807516 C93.5222085,81.926019 92.8246095,82.080432 92.1627315,82.268676 C91.5475365,82.410615 90.9674955,82.529496 90.4243095,82.623429 C89.8799895,82.718874 89.3247075,82.742121 88.7569515,82.694304" id="Fill-35" fill="#F5001F"></path>
                    <path d="M119.63838,77.1598926 C118.407801,77.8692096 117.462045,78.1065936 116.800167,77.8692096 C116.137344,77.6331486 115.688469,77.0886396 115.451841,76.2375726 C114.978396,74.8181826 114.718143,72.6662286 114.671649,69.7801986 C114.623832,66.8956806 114.730239,63.7611156 114.990681,60.3787716 C115.250367,56.9973726 115.640463,53.8864326 116.161536,51.0482196 C116.681664,48.2101956 117.296859,46.1521746 118.006365,44.8751016 C118.620615,43.9293456 119.271342,43.4092176 119.957412,43.3137726 C120.642726,43.2196506 121.281357,43.4322756 121.873683,43.9524036 C122.464308,44.4734766 122.949093,45.1357326 123.328038,45.9395496 C123.753666,47.0744946 123.966669,48.6358236 123.966669,50.6224026 C123.966669,52.6093596 123.895794,54.6913836 123.753666,56.8663956 C123.658599,58.3812306 123.600009,59.7647106 123.576573,61.0174026 C123.552192,62.2716066 123.611916,63.3001446 123.753666,64.1037726 C123.895794,64.9089126 124.155291,65.3349186 124.534425,65.3810346 C124.864986,65.3349186 125.657652,64.7074386 126.9111,63.5008626 C128.163981,62.2946646 129.643284,60.8399316 131.346174,59.1374196 C133.191003,57.2920236 134.964957,55.5430176 136.667847,53.8864326 C139.174554,51.5692926 141.315357,50.2563096 143.0895,49.9484286 C144.863454,49.6413036 146.341056,50.1145596 147.524007,51.3672516 C148.706013,52.6214556 149.61756,54.4303746 150.255813,56.7957096 C150.894444,59.1616116 151.284918,61.8578856 151.42629,64.8847206 C151.568418,67.9125006 151.52079,71.0344026 151.284918,74.2508046 C151.047156,77.4679626 150.692781,80.8848936 150.220281,84.5040546 C149.747214,88.1220816 149.096109,91.0563066 148.269045,93.3023826 C147.441036,95.5482696 146.518338,97.2158166 145.502085,98.3044566 C144.483942,99.3925296 143.408721,99.6527826 142.273398,99.0852156 C140.948319,98.3753316 139.96722,97.4053836 139.3284,96.1759386 C138.690147,94.9455486 138.299673,93.5261586 138.157734,91.9187136 C138.015795,90.3108906 137.980452,88.2290556 138.051327,85.6747206 C138.122391,83.1200076 138.299673,80.8495506 138.583551,78.8627826 C138.819612,77.0655816 139.032615,75.2687586 139.221993,73.4702346 C139.410615,71.6728446 139.481868,69.9225156 139.435185,68.2192476 C139.387368,66.5165466 139.174554,64.9089126 138.796554,63.3944556 C138.512676,62.4965166 137.873856,62.2593216 136.880661,62.6851386 C135.887466,63.1107666 134.656509,63.9620226 133.191003,65.2390956 C131.723985,66.5165466 130.163412,67.9597506 128.507772,69.5679516 C126.946632,71.0820306 125.39721,72.5246676 123.860451,73.8958626 C122.322558,75.2687586 120.915642,76.3560756 119.63838,77.1598926" id="Fill-37" fill="#F5001F"></path>
                    <path d="M177.947828,43.2785052 C178.561889,43.6332582 178.763741,44.2609272 178.550549,45.1586772 C178.338302,46.0583172 177.805889,46.6256952 176.954633,46.8617562 C174.257981,47.6188902 171.785672,48.5413992 169.539596,49.6289052 C167.292386,50.7177342 165.39974,52.2079992 163.86317,54.0993222 C162.325277,55.9917792 161.296361,58.4519922 160.776611,61.4786382 C160.255538,64.5064182 160.598951,67.4865702 161.805527,70.4189052 C163.011725,73.3525632 165.021551,75.9537702 167.836517,78.2242272 C170.650727,80.4944952 174.281417,81.7719462 178.728398,82.0556352 C179.626337,82.0556352 180.548846,82.0803942 181.495358,82.1265102 C183.198626,82.2686382 184.16744,83.0025252 184.404635,84.3264702 C184.640885,85.6513602 184.39235,87.0348402 183.659975,88.4770992 C182.925899,89.9206812 181.318265,90.7834662 178.834805,91.0671552 C176.351345,91.3512222 173.974481,91.3264632 171.703457,90.9962802 C169.101494,90.6179022 166.582691,89.6479542 164.147048,88.0870032 C161.709704,86.5260522 159.557939,84.5041302 157.689863,82.0202922 C155.820653,79.5368322 154.484612,76.7587212 153.680984,73.6833132 C152.829539,70.1830332 152.627498,66.6940932 153.078074,63.2172492 C153.52676,59.7404052 154.638836,56.5360992 156.41279,53.6026302 C158.186744,50.6701062 160.622387,48.2452362 163.721231,46.3293432 C166.818941,44.4138282 170.59157,43.2673542 175.03874,42.8884092 C176.362118,42.7939092 177.332444,42.9239412 177.947828,43.2785052" id="Fill-39" fill="#F5001F"></path>
                    <path d="M189.915478,44.8750449 C190.198978,43.7875389 190.660138,42.8170239 191.298958,41.9661459 C191.937778,41.1145119 192.611941,40.5359829 193.321258,40.2277239 C194.030764,39.9202209 194.65711,40.0266279 195.201619,40.5467559 C195.744994,41.0680179 196.064215,42.1320879 196.159282,43.7397219 C196.301599,48.1865139 196.360189,54.5605389 196.337131,62.8621749 C196.312561,71.1641889 196.111843,78.2008479 195.733843,83.9717739 C195.544087,86.1955479 195.070453,87.8986269 194.314642,89.0806329 C193.557319,90.2633949 192.682627,90.9730899 191.689054,91.2091509 C190.695859,91.4452119 189.738196,91.2911769 188.815687,90.7476129 C187.892989,90.2046159 187.123759,89.3178279 186.509698,88.0870599 C185.800003,86.3839809 185.385526,84.1258089 185.26759,81.3108429 C185.149087,78.4968219 185.243587,75.3747309 185.551468,71.9451369 C185.858404,68.5151649 186.272314,65.0742309 186.793387,61.6204449 C187.313326,58.1679819 187.857835,54.9752049 188.425402,52.0415469 C188.992969,49.1090229 189.48985,46.7198739 189.915478,44.8750449" id="Fill-41" fill="#F5001F"></path>
                    <path d="M208.675108,59.314626 C208.320733,60.994269 208.036666,62.755938 207.823474,64.600767 C207.61066,66.445407 207.550936,68.183829 207.646192,69.816033 C207.740503,71.44767 208.072009,72.760842 208.639765,73.753848 C209.065204,74.463354 209.620675,74.995767 210.307312,75.350709 C210.992437,75.705462 211.6666,75.81168 212.329234,75.670119 C212.991112,75.527991 213.558679,75.05568 214.032502,74.250918 C214.316191,73.588851 214.706476,72.228429 215.202979,70.170786 C215.69986,68.113143 216.172171,65.81925 216.62218,63.287973 C217.071244,60.758019 217.413901,58.427649 217.651096,56.298942 C217.792846,54.833436 217.567747,53.686017 216.976933,52.857819 C216.384796,52.030188 215.616511,51.544836 214.670755,51.403086 C213.724243,51.260958 212.790772,51.498342 211.868263,52.112403 C210.945754,52.727976 210.223774,53.768799 209.704024,55.234494 C209.372518,56.275506 209.03005,57.635928 208.675108,59.314626 M206.369119,82.694304 C204.382162,82.50606 202.809115,81.807516 201.650545,80.601129 C200.490841,79.395309 199.651492,77.869323 199.131553,76.024683 C198.61048,74.179665 198.339076,72.157365 198.315829,69.957783 C198.291259,67.758201 198.457579,65.547657 198.812143,63.323316 C199.167274,61.100487 199.628056,59.043033 200.195812,57.150387 C200.763568,55.259064 201.354382,53.673732 201.969766,52.396281 C203.199211,50.078952 204.843511,48.174588 206.901154,46.683945 C208.959364,45.194058 211.288411,44.284212 213.890563,43.952517 C215.640325,43.716456 217.248715,43.92927 218.715355,44.591148 C220.18105,45.25416 221.411818,46.436166 222.405202,48.138867 C222.68908,48.848562 222.925141,49.700007 223.11433,50.693202 C223.256647,51.498342 223.434307,52.208037 223.646743,52.82172 C223.859746,53.437104 224.225461,53.815482 224.746156,53.957421 C225.218656,54.005049 225.704386,53.94627 226.201267,53.779761 C226.697959,53.614575 227.182177,53.437104 227.655811,53.247537 C228.223567,52.963848 228.731221,52.775604 229.181419,52.679781 C229.630294,52.586037 229.985425,52.715691 230.245678,53.070444 C230.505175,53.425575 230.635774,54.146988 230.635774,55.234494 L230.635774,58.072707 C230.682457,60.059286 230.694931,62.496441 230.671684,65.381148 C230.646925,68.267178 230.552803,71.33049 230.387617,74.570139 C230.221297,77.810544 229.901887,80.991603 229.429765,84.113505 C228.95632,87.235785 228.269872,90.050373 227.372122,92.557647 C226.472671,95.063976 225.31429,97.003116 223.895467,98.375256 C222.476077,99.747396 220.702501,100.314774 218.573794,100.078902 C217.626526,99.888957 216.976933,99.227268 216.62218,98.091567 C216.267427,96.956622 216.089956,95.572953 216.089956,93.941316 C216.089956,92.309112 216.136639,90.666135 216.231706,89.009739 C216.278578,87.827544 216.30277,86.727564 216.30277,85.710177 C216.30277,84.693357 216.255142,83.854197 216.160642,83.190996 C216.018892,82.718874 215.793982,82.375272 215.486857,82.162269 C215.178976,81.949455 214.788502,81.819801 214.316191,81.771984 C213.41674,81.677862 212.601016,81.689958 211.868263,81.807516 C211.134376,81.926019 210.436966,82.080432 209.774899,82.268676 C209.159515,82.410615 208.579852,82.529496 208.036666,82.623429 C207.492157,82.718874 206.936875,82.742121 206.369119,82.694304" id="Fill-43" fill="#F5001F"></path>
                    <path d="M53.2474236,59.2886952 C53.3079036,60.9779772 53.5490676,61.9535952 53.9714826,62.2147932 C54.3937086,62.4767472 55.0064466,62.0339202 55.8113976,60.8874462 C56.6157816,59.7411612 57.5706096,58.3941582 58.6772046,56.8453032 C59.7830436,55.2973932 61.1302356,53.7080922 62.7195366,52.0791012 C64.3078926,50.4501102 66.1978926,48.8617542 68.3906706,47.3128992 C70.5823146,45.7651782 73.0361016,44.6385492 75.7508976,43.9343352 C78.4658826,43.2310662 80.9894106,43.1199342 83.3224266,43.6024512 C84.4481106,43.8043032 85.0814496,44.0851572 85.2230106,44.4472812 C85.3634376,44.8090272 85.1719806,45.1711512 84.6499626,45.5330862 C84.2069466,45.8150742 83.6441046,46.0968732 82.9604916,46.3777272 C82.7994636,46.4183622 82.4571846,46.5389442 81.9349776,46.7398512 C81.4118256,46.9413252 80.8988796,47.1620772 80.3965176,47.4034302 C79.8930216,47.6445942 79.4405556,47.8662912 79.0389306,48.0670092 C76.2638436,49.6357092 73.9504836,51.2645112 72.1009296,52.9537932 C69.6471426,55.1664162 66.9822426,58.0019832 64.1069856,61.4606832 C61.2309726,64.9201392 58.4453016,69.1433442 55.7511066,74.1301092 C55.3080906,75.6988092 54.9064656,77.6802852 54.5445306,80.0726472 C54.1825956,82.4661432 53.8601616,85.2820542 53.5791186,88.5192462 C53.2973196,91.7573832 52.9552296,93.8989422 52.5536046,94.9444902 C52.1916696,95.7891312 51.5279016,96.8448852 50.5626786,98.1119412 C49.5974556,99.3788082 48.1589766,100.021597 46.2489426,100.042387 C44.3381526,100.062421 42.9505146,99.7906392 42.0862176,99.2279862 C41.2217316,98.6641992 40.7286306,97.5783942 40.6080486,95.9700042 C40.4874666,94.3619922 40.5080676,92.8836342 40.6683396,91.5356862 C40.8295566,90.1886832 41.0104296,88.9320222 41.2113366,87.7649472 C41.2926066,87.2022942 41.3527086,86.6592972 41.3923986,86.1359562 C42.1162686,80.4253212 43.1119206,74.2113792 44.3787876,67.4937522 C45.6456546,60.7770702 46.7815446,55.6895682 47.7875916,52.2297342 C47.9881206,51.4663632 48.4003296,50.8328352 49.0242186,50.3295282 C49.6475406,49.8269772 50.3007246,49.5054882 50.9849046,49.3641162 C51.6683286,49.2238782 52.2519606,49.2943752 52.7346666,49.5752292 C53.2171836,49.8570282 53.4585366,50.4002142 53.4585366,51.2042202 C53.2568736,54.9052182 53.1871326,57.5994132 53.2474236,59.2886952" id="Fill-45" fill="#F5001F"></path>
                </g>
            </g>
        </g>
    </g>
</svg>